<svg width="300" height="216" viewBox="0 0 300 216" fill="none" xmlns="http://www.w3.org/2000/svg">
<rect width="300" height="216" transform="matrix(-1 0 0 1 300 0)" fill="white"/>
<rect width="300" height="216" transform="matrix(-1 0 0 1 300 0)" fill="#744C9D" fill-opacity="0.05"/>
<path d="M112.336 42.902L112.4 43.8005C112.944 51.3951 109.692 58.7477 103.768 62.7524C103.007 63.2686 102.211 63.7234 101.388 64.1132C98.375 65.4831 95.0955 66.0288 91.8404 65.7017C88.5853 65.3747 85.4553 64.185 82.728 62.2383C79.528 59.9141 76.8 56.5057 73.056 55.5985C68.184 54.4321 63.532 57.8881 59.6 61.1237C55.668 64.3594 51 67.8241 46.128 66.6145C43.08 65.8628 40.6 63.3485 38.904 60.4887C34.412 52.9114 34.784 42.7378 38.616 34.8538C42.448 26.9698 49.3 21.2156 56.804 17.5738C67.308 12.4417 79.688 11.1629 90.568 15.5521C101.448 19.9412 110.452 30.4949 112.336 42.902Z" fill="#F5F5F5"/>
<path d="M182 46.3796L182.02 47.2824C182.172 54.8986 186.08 61.8711 192.34 65.2234C193.145 65.6559 193.98 66.0227 194.836 66.3207C197.96 67.3649 201.274 67.5596 204.484 66.8873C207.694 66.2151 210.7 64.6967 213.236 62.4672C216.204 59.8148 218.612 56.1298 222.252 54.8295C226.996 53.1317 231.936 56.0693 236.152 58.8903C240.368 61.7112 245.32 64.6402 250.056 62.9208C253.02 61.8451 255.256 59.0847 256.684 56.0563C260.464 48.0384 259.164 37.9556 254.632 30.5165C250.1 23.0775 242.748 18.0836 234.952 15.2453C224.036 11.2709 211.6 11.3184 201.176 16.848C190.752 22.3776 182.752 33.8386 182 46.3796Z" fill="#F5F5F5"/>
<path d="M133.012 47.3146C130.728 37.3686 136.342 27.3061 145.551 24.8392C154.76 22.3723 164.078 28.4352 166.362 38.3812C168.646 48.3271 163.032 58.3897 153.823 60.8566C144.614 63.3235 135.296 57.2605 133.012 47.3146Z" fill="#F5F5F5"/>
<path d="M12.4 199.925C12.4 199.99 74.724 200.038 151.6 200.038C228.476 200.038 290.8 199.99 290.8 199.925C290.8 199.861 228.492 199.813 151.6 199.813C74.708 199.813 12.4 199.865 12.4 199.925Z" fill="#263238"/>
<path d="M227.888 156.384H274.708V189.255H227.888V156.384Z" fill="#744C9D"/>
<path d="M227.88 189.264H274.72V156.384H227.88V189.264ZM274.68 189.242H227.88V156.384H274.68V189.242Z" fill="#263238"/>
<g opacity="0.3">
<path d="M227.888 156.384H274.708V189.255H227.888V156.384Z" fill="black"/>
</g>
<path d="M29.704 73.6344H276.548C282.108 73.6344 286.616 77.4662 286.616 82.1923V180.792C286.616 185.514 282.108 189.346 276.548 189.346H265.816C266.936 186.312 267.35 183.028 267.024 179.781C266.697 176.534 265.639 173.423 263.942 170.72C262.245 168.017 259.961 165.804 257.29 164.274C254.618 162.744 251.64 161.944 248.616 161.944C245.592 161.944 242.614 162.744 239.942 164.274C237.271 165.804 234.987 168.017 233.29 170.72C231.593 173.423 230.535 176.534 230.208 179.781C229.882 183.028 230.296 186.312 231.416 189.346H29.704C24.144 189.346 19.636 185.514 19.636 180.792V82.1923C19.636 77.4662 24.144 73.6344 29.704 73.6344Z" fill="#744C9D"/>
<path d="M73.2719 81.5184H172.096V145.645H73.2719V81.5184Z" fill="#455A64"/>
<path d="M286.444 81.6481C286.444 81.5876 226.676 81.5358 152.96 81.5358C79.244 81.5358 19.464 81.5876 19.464 81.6481C19.464 81.7086 79.224 81.7604 152.96 81.7604C226.696 81.7604 286.444 81.6913 286.444 81.6481Z" fill="#263238"/>
<path d="M84.04 69.47H149.188C150.814 69.47 152.132 70.8925 152.132 72.6473C152.132 74.4021 150.814 75.8247 149.188 75.8247H84.04C82.414 75.8247 81.096 74.4021 81.096 72.6473C81.096 70.8925 82.414 69.47 84.04 69.47Z" fill="#744C9D"/>
<path d="M243.052 69.47H271.748C273.374 69.47 274.692 70.8925 274.692 72.6473C274.692 74.4021 273.374 75.8247 271.748 75.8247H243.052C241.426 75.8247 240.108 74.4021 240.108 72.6473C240.108 70.8925 241.426 69.47 243.052 69.47Z" fill="#744C9D"/>
<g opacity="0.3">
<path d="M80.0879 155.33H120.8V189.346H80.0879V155.33Z" fill="black"/>
</g>
<path d="M18.844 178.291H26.128C26.7422 178.291 27.3313 178.027 27.7656 177.558C28.2 177.089 28.444 176.453 28.444 175.79C28.444 175.126 28.2001 174.489 27.7659 174.019C27.3317 173.55 26.7426 173.285 26.128 173.284H18.844C18.2294 173.285 17.6403 173.55 17.2061 174.019C16.7719 174.489 16.528 175.126 16.528 175.79C16.528 176.453 16.772 177.089 17.2063 177.558C17.6407 178.027 18.2297 178.291 18.844 178.291Z" fill="#455A64"/>
<path d="M19.636 171.66H23.308C24.888 171.658 26.4029 170.98 27.5198 169.773C28.6366 168.566 29.264 166.929 29.264 165.223C29.264 163.516 28.6366 161.88 27.5198 160.673C26.4029 159.466 24.888 158.787 23.308 158.786H19.636V171.66Z" fill="#EBEBEB"/>
<path d="M19.636 171.66C19.6408 171.575 19.6408 171.49 19.636 171.405C19.636 171.223 19.636 170.973 19.636 170.688C19.636 170.048 19.636 169.15 19.66 168.022C19.66 165.737 19.688 162.536 19.708 158.786L19.612 158.894H23.024C24.2308 158.848 25.4221 159.199 26.44 159.901C27.5049 160.638 28.3202 161.727 28.764 163.007C28.9806 163.607 29.1036 164.242 29.128 164.886C29.1636 165.504 29.111 166.125 28.972 166.726C28.7198 167.844 28.1933 168.868 27.448 169.69C26.792 170.398 25.9942 170.935 25.116 171.258C24.3873 171.508 23.6243 171.622 22.86 171.595H21.12L20.012 171.616H19.716H19.612C19.612 171.616 19.64 171.616 19.7 171.616H19.984L21.084 171.638L22.848 171.664C23.6309 171.707 24.4148 171.602 25.164 171.353C26.0664 171.029 26.8876 170.485 27.564 169.763C28.3429 168.923 28.8959 167.87 29.164 166.717C29.3076 166.098 29.3629 165.458 29.328 164.821C29.3151 164.492 29.2803 164.164 29.224 163.84C29.1556 163.512 29.0674 163.189 28.96 162.873C28.5033 161.548 27.6612 160.419 26.56 159.654C25.5064 158.932 24.2752 158.571 23.028 158.617H19.516V158.721C19.516 162.501 19.548 165.724 19.56 168.026C19.56 169.141 19.56 170.035 19.588 170.67C19.588 170.96 19.588 171.189 19.588 171.366C19.5944 171.465 19.6105 171.564 19.636 171.66Z" fill="#263238"/>
<path d="M269.936 174.887H276.692C277.376 174.887 278.032 174.593 278.516 174.071C279 173.548 279.272 172.839 279.272 172.1C279.272 171.361 279 170.653 278.516 170.13C278.032 169.607 277.376 169.314 276.692 169.314H269.936C269.252 169.314 268.595 169.607 268.112 170.13C267.628 170.653 267.356 171.361 267.356 172.1C267.356 172.839 267.628 173.548 268.112 174.071C268.595 174.593 269.252 174.887 269.936 174.887Z" fill="#F5F5F5"/>
<path d="M269.936 174.887C269.552 174.853 269.177 174.745 268.828 174.567C268.36 174.314 267.976 173.911 267.729 173.413C267.482 172.914 267.384 172.346 267.448 171.785C267.514 171.191 267.762 170.637 268.151 170.212C268.541 169.786 269.051 169.513 269.6 169.435C270 169.392 270.448 169.435 270.888 169.435H276.672C277.138 169.435 277.595 169.577 277.99 169.844C278.385 170.112 278.702 170.494 278.905 170.947C279.108 171.4 279.188 171.906 279.137 172.407C279.086 172.907 278.905 173.382 278.616 173.776C278.355 174.131 278.017 174.41 277.632 174.589C277.262 174.748 276.866 174.821 276.468 174.804H274.272L271.072 174.839H270.208C270.106 174.837 270.005 174.844 269.904 174.861C270.004 174.88 270.106 174.889 270.208 174.887H271.072L274.272 174.925H276.468C276.89 174.949 277.312 174.874 277.704 174.705C278.032 174.558 278.329 174.342 278.579 174.07C278.828 173.797 279.025 173.474 279.158 173.119C279.291 172.763 279.357 172.383 279.353 172C279.348 171.616 279.273 171.238 279.132 170.886C278.922 170.371 278.577 169.934 278.14 169.627C277.703 169.32 277.193 169.157 276.672 169.158H270.888C270.436 169.158 270.02 169.137 269.576 169.189C269.155 169.247 268.753 169.414 268.404 169.677C268.094 169.911 267.833 170.214 267.639 170.566C267.445 170.917 267.323 171.309 267.28 171.716C267.216 172.389 267.372 173.066 267.72 173.629C267.934 173.969 268.215 174.254 268.543 174.463C268.871 174.672 269.237 174.8 269.616 174.839C269.712 174.839 269.788 174.839 269.84 174.839C269.892 174.839 269.936 174.891 269.936 174.887Z" fill="#263238"/>
<path d="M10.068 91.3637H11.268C11.268 85.4453 14.488 80.6285 18.468 80.6285H31.668V79.3325H18.468C13.828 79.3325 10.068 84.7325 10.068 91.3637Z" fill="#744C9D"/>
<path d="M10.26 87.9077H13.26C14.0133 87.9077 14.624 88.5672 14.624 89.3808V118.835C14.624 119.648 14.0133 120.308 13.26 120.308H10.26C9.5067 120.308 8.896 119.648 8.896 118.835V89.3808C8.896 88.5672 9.5067 87.9077 10.26 87.9077Z" fill="#744C9D"/>
<path d="M10.26 120.308C10.028 120.292 9.80233 120.22 9.59999 120.096C9.35706 119.944 9.16516 119.713 9.052 119.435C8.92923 119.044 8.88959 118.627 8.93601 118.217C8.93601 116.316 8.93599 113.586 8.96799 110.216C8.99999 106.847 8.96799 102.816 8.99199 98.3535C8.99199 96.1244 8.99199 93.7787 8.99199 91.3508V89.5148C8.97071 89.2211 9.03685 88.9278 9.18076 88.6776C9.32466 88.4274 9.53881 88.2333 9.79199 88.1238C10.0491 88.0296 10.3215 87.9943 10.592 88.0201H13.252C13.5253 88.0251 13.7898 88.1254 14.0061 88.306C14.2223 88.4866 14.3787 88.7379 14.452 89.0223C14.4995 89.3247 14.5142 89.6321 14.496 89.9382V90.8843C14.496 92.1371 14.496 93.3726 14.496 94.5908C14.496 97.0187 14.496 99.3428 14.496 101.594C14.496 106.06 14.496 110.078 14.52 113.461C14.52 115.145 14.52 116.675 14.52 118.014C14.52 118.346 14.52 118.679 14.52 118.982C14.4952 119.259 14.395 119.522 14.232 119.738C14.069 119.954 13.8505 120.113 13.604 120.195C13.3844 120.255 13.1579 120.278 12.932 120.265L10.932 120.286H12.932C13.1668 120.306 13.403 120.285 13.632 120.226C13.8965 120.137 14.1314 119.968 14.3083 119.737C14.4851 119.507 14.5962 119.227 14.628 118.93C14.628 118.61 14.628 118.295 14.628 117.953C14.628 116.614 14.628 115.085 14.628 113.4C14.628 110.018 14.628 106 14.628 101.533C14.628 99.3039 14.628 96.9582 14.628 94.5303V89.463C14.634 89.2941 14.6165 89.1251 14.576 88.9618C14.4898 88.6274 14.3048 88.3326 14.0492 88.122C13.7936 87.9115 13.4814 87.7968 13.16 87.7954H10.5C10.1955 87.7681 9.88901 87.8093 9.59999 87.9164C9.31386 88.0483 9.07276 88.2729 8.91008 88.5593C8.7474 88.8457 8.67118 89.1796 8.69199 89.5148C8.69199 90.1283 8.69199 90.7417 8.69199 91.3508C8.69199 93.7787 8.69199 96.1028 8.69199 98.3535C8.69199 102.816 8.69199 106.838 8.71599 110.216C8.73999 113.594 8.73999 116.316 8.74799 118.217C8.74799 118.45 8.74799 118.675 8.74799 118.886C8.75776 119.144 8.82881 119.394 8.95424 119.612C9.07968 119.831 9.25524 120.011 9.46398 120.135C9.61826 120.228 9.78829 120.287 9.96398 120.308C10.0621 120.323 10.1619 120.323 10.26 120.308Z" fill="#263238"/>
<path d="M226.448 147.524L248.276 146.919L266.636 123.764H281.76V81.6307H226.448V147.524Z" fill="#455A64"/>
<path d="M226.448 147.524C226.448 147.524 226.448 147.416 226.448 147.208C226.448 147.001 226.448 146.69 226.448 146.288C226.448 145.476 226.448 144.275 226.448 142.716C226.448 139.592 226.448 135.026 226.472 129.237C226.472 117.668 226.5 101.209 226.52 81.6307L226.428 81.7301H275.672H281.76L281.656 81.6178C281.656 96.5866 281.656 110.812 281.656 123.751L281.752 123.647H266.628H266.588L266.56 123.682L248.228 146.88L248.272 146.854L232.196 147.338L227.928 147.472L226.824 147.511H226.448H226.8L227.892 147.489L232.148 147.385L248.264 146.975H248.292L248.312 146.953L266.7 123.824L266.636 123.859H281.76H281.856V123.755C281.856 110.817 281.856 96.5909 281.856 81.6221V81.5098H275.692H226.448H226.356V81.648C226.356 101.252 226.388 117.733 226.4 129.319C226.4 135.099 226.42 139.657 226.428 142.776C226.428 144.327 226.428 145.519 226.428 146.327C226.428 146.724 226.428 147.027 226.428 147.234C226.428 147.442 226.448 147.524 226.448 147.524Z" fill="#263238"/>
<path d="M84.3903 182.615C84.2459 173.008 91.3397 165.094 100.235 164.938C109.13 164.782 116.458 172.444 116.602 182.05C116.746 191.657 109.653 199.571 100.758 199.727C91.8626 199.883 84.5347 192.222 84.3903 182.615Z" fill="#263238"/>
<path d="M116.608 182.032C116.608 182.032 116.608 182.062 116.608 182.079C116.675 184.388 116.316 186.687 115.552 188.844C114.787 191.001 113.633 192.972 112.156 194.642C110.679 196.312 108.909 197.648 106.949 198.571C104.989 199.495 102.878 199.987 100.74 200.021C98.6018 200.054 96.479 199.627 94.4951 198.765C92.5113 197.903 90.7063 196.623 89.1853 194.999C87.6644 193.376 86.4579 191.442 85.6363 189.31C84.8148 187.177 84.3945 184.89 84.4 182.581V182.533L116.608 182.032Z" fill="#263238"/>
<path d="M111.812 182.153C111.843 184.568 111.211 186.939 109.995 188.965C108.779 190.992 107.034 192.584 104.98 193.54C102.927 194.496 100.657 194.772 98.4573 194.335C96.258 193.898 94.2282 192.766 92.6245 191.083C91.0207 189.4 89.9151 187.241 89.4473 184.879C88.9795 182.517 89.1706 180.059 89.9964 177.814C90.8222 175.57 92.2456 173.64 94.0868 172.27C95.9279 170.899 98.104 170.148 100.34 170.113C103.34 170.067 106.233 171.309 108.385 173.567C110.536 175.825 111.769 178.913 111.812 182.153Z" fill="#FAFAFA"/>
<path d="M100.34 170.113C101.825 170.09 103.3 170.382 104.681 170.975C106.061 171.567 107.32 172.448 108.386 173.566C109.451 174.684 110.302 176.018 110.89 177.491C111.478 178.965 111.791 180.549 111.812 182.153L89.196 182.503C89.1533 179.264 90.3032 176.139 92.3929 173.816C94.4827 171.493 97.3412 170.161 100.34 170.113Z" fill="#E0E0E0"/>
<path d="M107.392 182.222C107.409 183.693 107.023 185.136 106.281 186.369C105.539 187.602 104.475 188.57 103.224 189.151C101.973 189.732 100.59 189.899 99.2514 189.631C97.9124 189.364 96.6768 188.673 95.7009 187.648C94.7249 186.622 94.0524 185.307 93.7682 183.869C93.484 182.43 93.601 180.933 94.1043 179.567C94.6076 178.2 95.4747 177.025 96.596 176.191C97.7173 175.356 99.0424 174.899 100.404 174.878C101.31 174.864 102.209 175.042 103.05 175.404C103.892 175.765 104.659 176.303 105.308 176.985C105.957 177.667 106.475 178.481 106.833 179.379C107.191 180.278 107.381 181.244 107.392 182.222Z" fill="#263238"/>
<path d="M232.577 182.776C232.439 173.17 239.538 165.261 248.433 165.111C257.328 164.962 264.651 172.629 264.789 182.236C264.927 191.843 257.829 199.751 248.933 199.901C240.038 200.05 232.715 192.383 232.577 182.776Z" fill="#263238"/>
<path d="M264.8 182.209V182.252C264.862 186.866 263.224 191.318 260.247 194.627C257.271 197.937 253.198 199.835 248.926 199.902C244.654 199.969 240.532 198.2 237.467 194.985C234.403 191.77 232.646 187.371 232.584 182.758C232.584 182.758 232.584 182.727 232.584 182.71L264.8 182.209Z" fill="#263238"/>
<path d="M260 182.33C260.032 184.746 259.4 187.118 258.184 189.146C256.968 191.175 255.222 192.768 253.168 193.725C251.113 194.681 248.842 194.958 246.642 194.521C244.441 194.084 242.41 192.951 240.806 191.267C239.201 189.583 238.095 187.423 237.627 185.06C237.159 182.697 237.351 180.238 238.177 177.992C239.004 175.747 240.429 173.817 242.271 172.446C244.113 171.075 246.291 170.325 248.528 170.29C251.527 170.245 254.42 171.488 256.571 173.746C258.722 176.003 259.956 179.091 260 182.33Z" fill="#FAFAFA"/>
<path d="M248.52 170.29C251.521 170.243 254.416 171.485 256.569 173.742C258.721 176 259.956 179.089 260 182.33L237.38 182.68C237.338 179.442 238.488 176.319 240.577 173.996C242.665 171.673 245.522 170.34 248.52 170.29Z" fill="#E0E0E0"/>
<path d="M255.572 182.399C255.59 183.871 255.204 185.315 254.462 186.55C253.72 187.785 252.655 188.754 251.403 189.336C250.151 189.917 248.768 190.085 247.428 189.817C246.087 189.549 244.851 188.859 243.874 187.832C242.897 186.806 242.224 185.49 241.94 184.05C241.656 182.61 241.773 181.112 242.277 179.745C242.781 178.377 243.65 177.202 244.772 176.367C245.895 175.532 247.221 175.076 248.584 175.055C250.412 175.029 252.175 175.787 253.486 177.165C254.796 178.542 255.547 180.425 255.572 182.399Z" fill="#263238"/>
<path d="M281.76 188.11C281.816 188.11 281.864 164.272 281.864 134.875C281.864 105.477 281.816 81.6481 281.76 81.6481C281.704 81.6481 281.656 105.482 281.656 134.892C281.656 164.303 281.704 188.11 281.76 188.11Z" fill="#263238"/>
<path d="M278.044 74.0276C278.044 73.9671 233.372 73.9153 178.28 73.9153C123.188 73.9153 78.508 73.9671 78.508 74.0276C78.508 74.0881 123.168 74.1399 178.28 74.1399C233.392 74.1399 278.044 74.0924 278.044 74.0276Z" fill="#263238"/>
<path d="M172.096 153.204C172.152 153.204 172.2 137.398 172.2 117.901C172.2 98.4053 172.152 82.5984 172.096 82.5984C172.04 82.5984 171.992 98.401 171.992 117.901C171.992 137.402 172.036 153.204 172.096 153.204Z" fill="#263238"/>
<path d="M121.764 144.137C121.824 144.137 121.868 130.36 121.868 113.37C121.868 96.3792 121.824 82.5984 121.764 82.5984C121.704 82.5984 121.66 96.3705 121.66 113.37C121.66 130.369 121.708 144.137 121.764 144.137Z" fill="#263238"/>
<path d="M155.34 137.082C155.388 137.048 150.3 129.017 143.984 119.146C137.668 109.274 132.504 101.3 132.456 101.334C132.408 101.369 137.492 109.4 143.812 119.275C150.132 129.151 155.292 137.117 155.34 137.082Z" fill="#263238"/>
<path d="M162.452 140.728C162.496 140.694 157.044 132.373 150.276 122.152C143.508 111.931 137.976 103.68 137.928 103.68C137.88 103.68 143.332 112.035 150.104 122.256C156.876 132.477 162.4 140.767 162.452 140.728Z" fill="#263238"/>
<path d="M115.94 126.978C115.984 126.939 110.2 119.712 103.02 110.838C95.8399 101.965 89.9839 94.7982 89.9399 94.8543C89.8959 94.9105 95.6799 102.121 102.864 110.998C110.048 119.876 115.896 127.008 115.94 126.978Z" fill="#263238"/>
<path d="M110.592 127.954C110.636 127.911 104.956 121.228 97.908 113.029C90.86 104.829 85.108 98.2153 85.068 98.2585C85.028 98.3017 90.704 104.976 97.752 113.184C104.8 121.392 110.552 127.997 110.592 127.954Z" fill="#263238"/>
<path d="M172.096 153.157V189.251H118C119.011 186.515 119.451 183.572 119.286 180.632C119.122 177.692 118.358 174.827 117.05 172.243C115.741 169.659 113.92 167.419 111.716 165.683C109.513 163.947 106.981 162.759 104.303 162.203C101.625 161.647 98.8656 161.737 96.2232 162.466C93.5809 163.196 91.1204 164.547 89.0178 166.423C86.9151 168.299 85.2223 170.653 84.0603 173.318C82.8983 175.983 82.2958 178.892 82.2959 181.837C82.2959 184.46 83.096 187.021 83.932 189.311L76.2879 189.346V153.157H172.096Z" fill="#744C9D"/>
<path d="M125.264 177.237H132C132.685 177.237 133.343 176.943 133.827 176.419C134.312 175.896 134.584 175.186 134.584 174.446C134.583 173.707 134.31 172.998 133.826 172.475C133.341 171.953 132.685 171.66 132 171.66H125.248C124.564 171.66 123.907 171.953 123.424 172.476C122.94 172.998 122.668 173.707 122.668 174.446C122.668 174.814 122.735 175.177 122.866 175.517C122.996 175.856 123.188 176.165 123.429 176.424C123.67 176.683 123.957 176.888 124.271 177.028C124.586 177.167 124.924 177.238 125.264 177.237Z" fill="white"/>
<path d="M125.264 177.237C124.879 177.2 124.502 177.09 124.152 176.913C123.751 176.693 123.411 176.364 123.164 175.958C122.837 175.42 122.696 174.774 122.764 174.135C122.831 173.538 123.082 172.982 123.475 172.556C123.869 172.13 124.383 171.859 124.936 171.785C125.336 171.737 125.78 171.785 126.22 171.785H132.004C132.47 171.784 132.928 171.925 133.323 172.193C133.719 172.46 134.036 172.842 134.24 173.295C134.443 173.749 134.524 174.255 134.473 174.756C134.422 175.256 134.242 175.732 133.952 176.127C133.692 176.482 133.354 176.763 132.968 176.943C132.598 177.102 132.201 177.174 131.804 177.155H129.604L126.404 177.194H125.536C125.435 177.191 125.335 177.2 125.236 177.219C125.335 177.236 125.436 177.243 125.536 177.241L126.404 177.263L129.604 177.297H131.804C132.225 177.32 132.647 177.246 133.04 177.081C133.595 176.812 134.048 176.347 134.326 175.763C134.604 175.178 134.689 174.509 134.568 173.865C134.447 173.222 134.127 172.641 133.66 172.22C133.194 171.799 132.608 171.562 132 171.547H126.216C125.768 171.547 125.348 171.526 124.908 171.578C124.318 171.66 123.77 171.955 123.354 172.414C122.937 172.873 122.676 173.47 122.612 174.109C122.544 174.782 122.7 175.459 123.052 176.019C123.315 176.437 123.679 176.77 124.104 176.982C124.368 177.117 124.653 177.2 124.944 177.228C125.02 177.234 125.096 177.234 125.172 177.228L125.264 177.237Z" fill="#263238"/>
<path d="M199.276 81.8123H226.388V189.251H199.276V81.8123Z" fill="#744C9D"/>
<path d="M199.276 189.251C199.276 189.251 199.276 189.069 199.276 188.715C199.276 188.361 199.276 187.851 199.276 187.142C199.276 185.76 199.276 183.721 199.276 181.094C199.276 175.82 199.276 168.134 199.304 158.557C199.304 139.385 199.332 112.54 199.352 81.8251L199.252 81.9331H226.4L226.296 81.8208C226.296 125.664 226.324 164.678 226.336 189.259L226.4 189.19L206.4 189.216H201.092H199.724H199.256H199.708H201.068H206.364L226.364 189.251H226.428V189.181C226.428 164.601 226.452 125.587 226.468 81.7431V81.6307H199.148V81.7387C199.148 112.484 199.184 139.359 199.196 158.548C199.196 168.126 199.196 175.789 199.224 181.06C199.224 183.686 199.224 185.721 199.224 187.108C199.224 187.795 199.224 188.313 199.224 188.667C199.224 189.022 199.276 189.251 199.276 189.251Z" fill="#263238"/>
<path d="M208.172 85.7089H217.172C219.927 85.7089 222.16 88.1207 222.16 91.0959V147.77C222.16 150.745 219.927 153.157 217.172 153.157H208.172C205.417 153.157 203.184 150.745 203.184 147.77V91.0959C203.184 88.1207 205.417 85.7089 208.172 85.7089Z" fill="#455A64"/>
<path d="M208.172 153.157C208.172 153.157 208.04 153.157 207.772 153.122C207.386 153.083 207.005 152.997 206.636 152.868C206.034 152.655 205.476 152.319 204.992 151.878C204.336 151.276 203.834 150.5 203.536 149.628C203.352 149.111 203.25 148.565 203.236 148.012C203.236 147.433 203.236 146.815 203.236 146.172C203.236 144.876 203.236 143.497 203.236 142.003C203.236 139.005 203.236 135.596 203.236 131.829C203.236 124.286 203.236 115.314 203.26 105.348C203.26 102.853 203.26 100.302 203.26 97.6925V91.7352C203.229 91.0705 203.286 90.4043 203.428 89.7567C203.666 88.7746 204.162 87.8879 204.856 87.2034C205.55 86.5189 206.413 86.0659 207.34 85.8989C207.976 85.8185 208.616 85.7925 209.256 85.8212H217.164C217.81 85.8206 218.45 85.9584 219.047 86.2267C219.644 86.4949 220.185 86.8883 220.64 87.3841C221.095 87.8799 221.454 88.4682 221.697 89.1149C221.94 89.7617 222.062 90.4541 222.056 91.152V99.4292C222.056 104.851 222.056 110.082 222.056 115.068C222.056 125.034 222.056 134.011 222.076 141.549C222.076 143.433 222.076 145.23 222.076 146.928C222.076 147.36 222.076 147.77 222.076 148.176C222.046 148.575 221.979 148.971 221.876 149.355C221.661 150.088 221.304 150.762 220.828 151.334C219.967 152.368 218.765 152.998 217.48 153.088C216.3 153.127 215.208 153.088 214.236 153.118H209.74L214.236 153.14C215.212 153.14 216.292 153.161 217.484 153.14C218.799 153.054 220.031 152.415 220.916 151.36C221.67 150.47 222.124 149.332 222.204 148.129C222.232 147.697 222.224 147.295 222.224 146.871C222.224 145.174 222.224 143.377 222.224 141.493C222.224 133.955 222.224 124.978 222.248 115.011C222.248 110.026 222.248 104.795 222.248 99.373C222.248 96.66 222.248 93.901 222.248 91.0959C222.253 89.6431 221.729 88.2464 220.788 87.2079C220.314 86.6838 219.748 86.2677 219.123 85.9843C218.498 85.7008 217.826 85.5557 217.148 85.5576H209.28C208.628 85.5291 207.976 85.5566 207.328 85.6397C206.362 85.8141 205.464 86.2866 204.741 87.0003C204.019 87.714 203.503 88.6383 203.256 89.6616C203.108 90.3273 203.05 91.0127 203.084 91.6964V97.6536C203.084 100.263 203.084 102.815 203.084 105.309C203.084 115.275 203.084 124.248 203.108 131.79C203.108 135.557 203.108 138.966 203.108 141.964C203.108 143.459 203.108 144.854 203.108 146.133C203.108 146.776 203.108 147.39 203.108 147.977C203.126 148.54 203.232 149.094 203.42 149.619C203.684 150.385 204.105 151.075 204.653 151.639C205.2 152.203 205.859 152.624 206.58 152.872C206.955 152.997 207.341 153.075 207.732 153.105L208.172 153.157Z" fill="#263238"/>
<path d="M172.028 189.251C172.028 189.251 172.028 189.069 172.028 188.715C172.028 188.361 172.028 187.851 172.028 187.143C172.028 185.76 172.028 183.721 172.028 181.095C172.028 175.82 172.028 168.135 172.056 158.557C172.056 139.385 172.084 112.54 172.1 81.8252L172 81.9332H199.14L199.036 81.8209C199.036 125.665 199.068 164.679 199.076 189.259L199.14 189.19L179.176 189.229H173.864H172.496H172.028H172.484H173.84H179.136L199.136 189.264H199.2V189.195C199.2 164.614 199.224 125.6 199.24 81.7561V81.6438H171.92V81.7518C171.94 112.497 171.956 139.372 171.968 158.561C171.968 168.139 171.992 175.803 171.996 181.073C171.996 183.699 171.996 185.734 171.996 187.121C171.996 187.808 171.996 188.326 171.996 188.68C171.996 189.035 172.028 189.251 172.028 189.251Z" fill="#263238"/>
<path d="M180.816 85.7089H190.032C192.727 85.7089 194.912 88.0685 194.912 90.9793V147.887C194.912 150.797 192.727 153.157 190.032 153.157H180.816C178.121 153.157 175.936 150.797 175.936 147.887V90.9793C175.936 88.0685 178.121 85.7089 180.816 85.7089Z" fill="#455A64"/>
<path d="M180.8 153.157C180.279 153.135 179.764 153.036 179.268 152.863C178.666 152.648 178.111 152.302 177.636 151.848C176.985 151.235 176.496 150.447 176.22 149.563C176.06 149.037 175.975 148.488 175.968 147.934C175.968 147.351 175.968 146.737 175.968 146.094C175.968 144.798 175.968 143.415 175.968 141.916C175.968 138.918 175.968 135.505 175.968 131.73C175.968 124.183 175.968 115.197 175.988 105.218C175.988 102.724 175.988 100.169 175.988 97.5542C175.988 96.2496 175.988 94.9306 175.988 93.5971V91.584C175.954 90.9187 176.013 90.2515 176.164 89.6054C176.417 88.6263 176.931 87.7492 177.643 87.0833C178.354 86.4174 179.231 85.992 180.164 85.86C180.784 85.7866 181.444 85.8254 182.088 85.8168H190.028C190.679 85.8155 191.322 85.9586 191.92 86.2373C192.517 86.516 193.055 86.9243 193.5 87.4368C193.939 87.9426 194.281 88.5376 194.505 89.1873C194.73 89.8369 194.833 90.5282 194.808 91.2211C194.808 94.0291 194.808 96.791 194.808 99.5069C194.808 104.937 194.808 110.173 194.808 115.167C194.808 125.146 194.808 134.132 194.832 141.679C194.832 143.565 194.832 145.359 194.832 147.061C194.885 147.879 194.805 148.701 194.596 149.489C194.373 150.22 194.006 150.889 193.52 151.451C193.084 151.956 192.558 152.362 191.974 152.644C191.39 152.926 190.76 153.079 190.12 153.092H186.872H182.372L186.872 153.114H190.124C190.777 153.102 191.422 152.949 192.02 152.663C192.618 152.377 193.156 151.965 193.604 151.451C194.104 150.877 194.484 150.193 194.716 149.446C194.772 149.256 194.812 149.053 194.86 148.854C194.908 148.656 194.928 148.448 194.94 148.236C194.968 147.804 194.96 147.403 194.964 146.975C194.964 145.276 194.964 143.482 194.964 141.592C194.964 134.045 194.964 125.06 194.964 115.08C194.964 110.087 194.964 104.851 194.964 99.4205V91.2254C194.989 90.5039 194.882 89.7842 194.648 89.1079C194.413 88.4316 194.057 87.8122 193.6 87.2856C193.135 86.7512 192.574 86.3255 191.95 86.035C191.327 85.7444 190.655 85.5952 189.976 85.5965H182.08C181.432 85.5965 180.788 85.5662 180.128 85.644C179.477 85.7338 178.848 85.9629 178.28 86.3179C177.147 87.0267 176.317 88.1868 175.968 89.5493C175.812 90.2151 175.75 90.9025 175.784 91.5883V97.5542C175.784 100.169 175.784 102.724 175.784 105.218C175.784 115.197 175.784 124.183 175.808 131.73C175.808 135.505 175.808 138.918 175.808 141.916C175.808 143.415 175.808 144.811 175.808 146.094C175.808 146.737 175.808 147.351 175.808 147.938C175.816 148.5 175.905 149.057 176.072 149.589C176.356 150.485 176.857 151.283 177.524 151.9C178.007 152.353 178.57 152.694 179.18 152.902C179.553 153.033 179.94 153.115 180.332 153.144L180.8 153.157Z" fill="#263238"/>
<path d="M251.824 121.854C251.872 121.82 248.512 116.329 244.316 109.594C240.12 102.859 236.68 97.4203 236.636 97.4549C236.592 97.4894 239.948 102.976 244.144 109.719C248.34 116.463 251.776 121.893 251.824 121.854Z" fill="#263238"/>
<path d="M258.36 121.854L258.312 121.759L258.152 121.483L257.528 120.442C256.984 119.539 256.184 118.238 255.176 116.649C253.176 113.46 250.336 109.097 247.176 104.298C244.016 99.4983 241.176 95.1523 239.14 91.9858L236.74 88.236L236.084 87.2165L235.912 86.953C235.872 86.8968 235.848 86.8666 235.844 86.8709C235.857 86.9041 235.873 86.936 235.892 86.9659L236.052 87.2424L236.672 88.2835C237.22 89.1864 238.02 90.4867 239.028 92.0765C241.028 95.2647 243.868 99.6279 247.028 104.427C250.188 109.227 253.028 113.573 255.064 116.739L257.464 120.489L258.116 121.509L258.292 121.772C258.332 121.824 258.356 121.859 258.36 121.854Z" fill="#263238"/>
<path d="M139.6 171.249C139.524 171.238 139.448 171.238 139.372 171.249C139.149 171.288 138.94 171.393 138.768 171.552C138.627 171.681 138.513 171.842 138.435 172.023C138.357 172.204 138.317 172.401 138.316 172.601C138.316 173.064 138.316 173.599 138.316 174.2C138.316 176.61 138.296 180.088 138.284 184.378C138.284 185.453 138.284 186.581 138.284 187.752C138.261 188.071 138.336 188.39 138.496 188.66C138.656 188.929 138.893 189.135 139.172 189.246C139.315 189.3 139.465 189.327 139.616 189.328H140.916H148.384H165.504C165.71 189.33 165.913 189.28 166.098 189.183C166.283 189.087 166.445 188.946 166.572 188.771C166.699 188.596 166.788 188.392 166.832 188.175C166.864 187.968 166.875 187.758 166.864 187.549V180.451C166.864 178.904 166.864 177.388 166.864 175.897V173.69C166.864 173.327 166.864 172.964 166.864 172.606C166.864 172.414 166.83 172.224 166.762 172.047C166.694 171.87 166.595 171.709 166.469 171.573C166.343 171.438 166.194 171.331 166.03 171.258C165.865 171.186 165.689 171.149 165.512 171.15H162.648H159.02H152.508L143.084 171.184L140.52 171.206H143.084L152.508 171.241H159.02H165.472C165.78 171.241 166.075 171.373 166.292 171.607C166.51 171.842 166.632 172.161 166.632 172.493V173.578C166.632 174.308 166.632 175.042 166.632 175.785V180.338C166.632 181.885 166.632 183.457 166.632 185.056V187.471C166.643 187.664 166.634 187.858 166.604 188.05C166.567 188.233 166.492 188.404 166.384 188.551C166.276 188.699 166.139 188.819 165.983 188.901C165.826 188.983 165.654 189.026 165.48 189.026H148.36H140.892H140C139.731 189.051 139.461 189.026 139.2 188.953C138.95 188.858 138.737 188.677 138.592 188.438C138.447 188.199 138.38 187.915 138.4 187.631C138.4 186.46 138.4 185.332 138.4 184.257C138.4 179.967 138.372 176.481 138.368 174.079C138.368 173.478 138.368 172.943 138.368 172.48C138.364 172.29 138.398 172.101 138.467 171.926C138.536 171.751 138.638 171.594 138.768 171.465C138.934 171.308 139.135 171.199 139.352 171.15C139.508 171.253 139.6 171.258 139.6 171.249Z" fill="#263238"/>
<path d="M163.768 189.251C163.824 189.251 163.872 185.229 163.872 180.269C163.872 175.31 163.824 171.284 163.768 171.284C163.712 171.284 163.664 175.306 163.664 180.269C163.664 185.233 163.708 189.251 163.768 189.251Z" fill="#263238"/>
<path d="M160.628 189.251C160.684 189.251 160.732 185.229 160.732 180.269C160.732 175.31 160.684 171.284 160.628 171.284C160.572 171.284 160.524 175.306 160.524 180.269C160.524 185.233 160.572 189.251 160.628 189.251Z" fill="#263238"/>
<path d="M157.488 189.251C157.548 189.251 157.592 185.229 157.592 180.269C157.592 175.31 157.548 171.284 157.488 171.284C157.428 171.284 157.384 175.306 157.384 180.269C157.384 185.233 157.432 189.251 157.488 189.251Z" fill="#263238"/>
<path d="M154.348 189.251C154.408 189.251 154.452 185.229 154.452 180.269C154.452 175.31 154.408 171.284 154.348 171.284C154.288 171.284 154.244 175.306 154.244 180.269C154.244 185.233 154.292 189.251 154.348 189.251Z" fill="#263238"/>
<path d="M151.2 189.251C151.26 189.251 151.304 185.229 151.304 180.269C151.304 175.31 151.26 171.284 151.2 171.284C151.14 171.284 151.096 175.306 151.096 180.269C151.096 185.233 151.152 189.251 151.2 189.251Z" fill="#263238"/>
<path d="M148.072 189.251C148.128 189.251 148.176 185.229 148.176 180.269C148.176 175.31 148.128 171.284 148.072 171.284C148.016 171.284 147.964 175.306 147.964 180.269C147.964 185.233 148 189.251 148.072 189.251Z" fill="#263238"/>
<path d="M144.932 189.251C144.988 189.251 145.036 185.229 145.036 180.269C145.036 175.31 144.988 171.284 144.932 171.284C144.876 171.284 144.828 175.306 144.828 180.269C144.828 185.233 144.872 189.251 144.932 189.251Z" fill="#263238"/>
<path d="M141.792 189.251C141.848 189.251 141.896 185.229 141.896 180.269C141.896 175.31 141.848 171.284 141.792 171.284C141.736 171.284 141.688 175.306 141.688 180.269C141.688 185.233 141.732 189.251 141.792 189.251Z" fill="#263238"/>
<path d="M76.5679 81.5184H172.028V94.5087H76.5679V81.5184Z" fill="#263238"/>
<path d="M226.448 81.5184H281.896V94.5087H226.448V81.5184Z" fill="#263238"/>
<path d="M13.4399 116.757C13.4959 116.757 13.5439 111.098 13.5439 104.121C13.5439 97.1439 13.4959 91.4847 13.4399 91.4847C13.3839 91.4847 13.336 97.1396 13.336 104.121C13.336 111.102 13.3799 116.757 13.4399 116.757Z" fill="#263238"/>
<path d="M278.964 161.538C279.02 161.538 279.068 154.272 279.068 145.308C279.068 136.344 279.02 129.077 278.964 129.077C278.908 129.077 278.86 136.344 278.86 145.308C278.86 154.272 278.904 161.538 278.964 161.538Z" fill="white"/>
<path d="M215.936 123.09C216.084 123.564 216.3 124.01 216.576 124.412C216.787 124.852 217.056 125.257 217.376 125.613C217.227 125.139 217.011 124.693 216.736 124.291C216.524 123.851 216.254 123.447 215.936 123.09Z" fill="white"/>
<path d="M208.348 117.102C208.369 117.17 208.397 117.236 208.432 117.297L208.696 117.832C208.932 118.295 209.288 118.956 209.732 119.768C210.628 121.388 211.912 123.6 213.42 125.971C214.928 128.343 216.384 130.429 217.468 131.911C218.012 132.654 218.456 133.246 218.772 133.639L219.14 134.101C219.179 134.158 219.225 134.208 219.276 134.253C219.276 134.253 219.248 134.184 219.172 134.071L218.836 133.583L217.584 131.808C216.532 130.304 215.104 128.205 213.584 125.837C212.064 123.47 210.784 121.275 209.852 119.677L208.76 117.781L208.46 117.266C208.4 117.158 208.356 117.098 208.348 117.102Z" fill="white"/>
<path d="M182.308 108.644C182.26 108.678 184.108 111.953 186.436 115.962C188.764 119.971 190.692 123.193 190.74 123.159C190.788 123.124 188.94 119.85 186.612 115.841C184.284 111.832 182.356 108.609 182.308 108.644Z" fill="white"/>
<path d="M179.06 111.188C179.012 111.218 181.68 116.022 185.024 121.915C188.368 127.807 191.112 132.559 191.164 132.525C191.216 132.49 188.544 127.691 185.2 121.798C181.856 115.906 179.108 111.154 179.06 111.188Z" fill="white"/>
<path d="M224.688 148.932C224.744 148.932 224.792 137.009 224.792 122.304C224.792 107.598 224.744 95.675 224.688 95.675C224.632 95.675 224.584 107.594 224.584 122.304C224.584 137.013 224.632 148.932 224.688 148.932Z" fill="white"/>
<path d="M220.312 77.0818C220.312 77.1423 233.244 77.1941 249.196 77.1941C265.148 77.1941 278.088 77.1423 278.088 77.0818C278.088 77.0213 265.156 76.9695 249.196 76.9695C233.236 76.9695 220.312 77.017 220.312 77.0818Z" fill="white"/>
<path d="M158.744 77.0818C158.744 77.1423 163.576 77.1941 169.544 77.1941C175.512 77.1941 180.344 77.1423 180.344 77.0818C180.344 77.0213 175.512 76.9695 169.544 76.9695C163.576 76.9695 158.744 77.017 158.744 77.0818Z" fill="white"/>
<path d="M168.956 179.185C169.012 179.185 169.06 172.705 169.06 164.691C169.06 156.678 169.012 150.193 168.956 150.193C168.9 150.193 168.852 156.673 168.852 164.691C168.852 172.709 168.896 179.185 168.956 179.185Z" fill="white"/>
<path d="M198.136 183.915C198.192 183.915 198.24 175.237 198.24 164.532C198.24 153.827 198.192 145.152 198.136 145.152C198.08 145.152 198.032 153.827 198.032 164.532C198.032 175.237 198.076 183.915 198.136 183.915Z" fill="white"/>
<path d="M92.8 72.3557C92.8 72.4162 105.54 72.4681 121.248 72.4681C136.956 72.4681 149.7 72.4162 149.7 72.3557C149.7 72.2953 136.964 72.2434 121.248 72.2434C105.532 72.2434 92.8 72.2909 92.8 72.3557Z" fill="white"/>
<path d="M30.644 78.6586C30.644 78.7191 40.836 78.7709 53.404 78.7709C65.972 78.7709 76.1639 78.7191 76.1639 78.6586C76.1639 78.5981 65.976 78.5463 53.404 78.5463C40.832 78.5463 30.644 78.5938 30.644 78.6586Z" fill="white"/>
<path d="M34.792 81.5358H73.272V189.251H34.792V81.5358Z" fill="#FAFAFA"/>
<path d="M34.8 189.251C34.8 189.251 34.8 189.069 34.8 188.719C34.8 188.369 34.8 187.855 34.8 187.168C34.8 185.799 34.8 183.781 34.8 181.164C34.8 175.932 34.8 168.312 34.828 158.738C34.828 139.614 34.856 112.696 34.876 81.5357L34.776 81.6437H73.272L73.164 81.5314C73.164 123.98 73.192 162.281 73.2 189.246L73.272 189.168L45.084 189.212L37.452 189.233H35.452H34.772C34.772 189.233 34.996 189.233 35.436 189.233H37.408L45.008 189.255L73.24 189.294H73.312V189.216C73.312 162.251 73.312 123.949 73.344 81.5011V81.3888H34.656V81.4968C34.656 112.687 34.692 139.627 34.704 158.773C34.704 168.333 34.704 175.949 34.732 181.176C34.732 183.768 34.732 185.795 34.732 187.155C34.732 187.834 34.732 188.348 34.732 188.693C34.732 189.039 34.8 189.251 34.8 189.251Z" fill="#263238"/>
<path d="M19.636 150.807L31.784 150.803V81.6307H19.464L19.636 150.807Z" fill="#FAFAFA"/>
<path d="M19.636 150.807C19.636 150.807 19.636 150.686 19.636 150.453C19.636 150.219 19.636 149.878 19.636 149.429C19.636 148.526 19.636 147.204 19.636 145.493C19.636 142.063 19.636 137.095 19.636 130.9C19.616 118.519 19.588 101.244 19.56 81.6524L19.456 81.7647H31.776L31.672 81.6524C31.672 110.761 31.708 136.326 31.72 150.824L31.776 150.764L22.816 150.798H20.448H19.836H19.628H19.828H20.428H22.784L31.776 150.829H31.832V150.768C31.832 136.27 31.86 110.704 31.88 81.5962V81.4839H19.36V81.648C19.424 101.291 19.484 118.597 19.524 130.995C19.552 137.182 19.576 142.141 19.592 145.562C19.592 147.26 19.592 148.586 19.616 149.476C19.616 149.908 19.616 150.254 19.616 150.483C19.616 150.712 19.636 150.807 19.636 150.807Z" fill="#263238"/>
<path d="M40.116 119.56C40.116 119.53 39.716 119.664 38.624 119.707C37.532 119.75 35.472 119.496 35.216 119.517C34.96 119.539 32.016 119.707 32.016 119.707C32.016 119.707 32.7 120.39 33.256 120.312C33.8024 120.274 34.3508 120.283 34.896 120.338L35.296 120.316L34.396 121.016L34.652 124.165C34.6838 124.194 34.721 124.215 34.761 124.226C34.801 124.238 34.8429 124.24 34.8837 124.232C34.9244 124.224 34.9632 124.207 34.9971 124.181C35.031 124.156 35.0593 124.122 35.08 124.083C35.1926 123.796 35.2218 123.478 35.164 123.172L35.564 124.554C35.564 124.554 35.964 124.727 36.192 124.438C36.252 124.337 36.2879 124.222 36.2962 124.103C36.3046 123.984 36.2853 123.864 36.24 123.755L36.348 122.528L37.224 121.535L38.272 121.91L37.716 123.276C37.716 123.276 37.164 124.502 37.288 124.619C37.412 124.736 37.532 125.163 37.844 124.71C38.156 124.256 38.244 123.846 38.584 123.673C38.924 123.5 40.724 122.304 41.032 121.336L40.116 119.56Z" fill="#FFBF9D"/>
<path d="M59.28 109.076C58.7396 109.379 58.2413 109.763 57.8 110.216C57.324 110.786 50.66 115.69 50.66 115.69L42.712 118.156L39.46 119.599L40.468 122.8L43.696 122.001C43.696 122.001 47.452 121.543 49.728 121.314C50.9686 121.229 52.1782 120.86 53.276 120.23L57.8 117.426L59.68 111.599L59.28 109.076Z" fill="#744C9D"/>
<path d="M46.428 146.941L51.156 159.317H75.4V146.941L46.64 146.543" fill="#E0E0E0"/>
<path d="M67.564 133.086C67.1502 134.451 66.4368 135.687 65.4846 136.689C64.5324 137.691 63.3698 138.429 62.096 138.841C57.72 140.245 43.612 139.463 43.612 139.463L41.536 154.941L34.78 153.939C34.78 153.939 37.98 135.575 37.952 134.257C37.924 132.201 38.752 130.745 40.752 130.749C41.972 130.749 55.656 129.885 55.656 129.885L57.788 128.157L66.872 131.799L67.564 133.086Z" fill="#263238"/>
<path d="M47.036 144.137C47.036 144.137 45.488 144.007 45.436 142.344C45.436 141.54 45.436 140.452 45.436 139.545C45.4412 139.088 45.6114 138.652 45.9104 138.329C46.2093 138.006 46.6133 137.822 47.036 137.817H67.564L69.204 138.763L69.656 141.376L68.824 143.64L47.036 144.137Z" fill="#455A64"/>
<path d="M56.4319 95.3036C56.8319 94.7981 57.3399 94.31 57.4679 93.649C57.5959 92.988 57.3639 92.353 57.6399 91.8216C57.9799 91.152 58.8839 91.0613 59.2999 90.4479C59.4999 90.1498 59.56 89.761 59.76 89.4586C59.9542 89.2235 60.2012 89.0464 60.4773 88.9442C60.7533 88.8421 61.049 88.8184 61.336 88.8754C61.916 88.9359 62.472 89.1605 63.056 89.1994C63.856 89.2556 64.656 88.9748 65.456 89.1994C66.3 89.4672 66.8199 90.2751 67.3719 91.0527L68.0919 91.9556C68.2394 92.1151 68.4001 92.2597 68.5719 92.3876C68.8914 92.5632 69.1953 92.77 69.48 93.0053C69.6112 93.1539 69.7134 93.3296 69.7805 93.5218C69.8475 93.714 69.8781 93.9188 69.8702 94.124C69.8624 94.3293 69.8163 94.5307 69.7349 94.7162C69.6534 94.9018 69.5381 95.0678 69.3959 95.2042C69.7017 95.3173 69.9659 95.533 70.1501 95.8198C70.3343 96.1066 70.4289 96.4494 70.4199 96.7983C70.3703 97.1773 70.279 97.5486 70.1479 97.9042C70.0182 98.264 70.0097 98.6616 70.1239 99.0274C70.1565 99.1153 70.2048 99.1954 70.2662 99.263C70.3275 99.3306 70.4006 99.3844 70.4813 99.4214C70.562 99.4583 70.6487 99.4777 70.7363 99.4783C70.8239 99.4789 70.9108 99.4607 70.9919 99.4248C70.9362 99.6731 70.8301 99.905 70.6814 100.104C70.5327 100.302 70.345 100.463 70.132 100.574C70.3021 100.759 70.5308 100.867 70.7719 100.876C70.1279 102.518 68.3719 103.386 66.7239 103.404C65.0759 103.421 63.492 102.747 61.96 102.086L57.512 100.855C57.112 100.76 56.9599 100.25 56.9639 99.8137C57.0264 99.3828 57.0129 98.9431 56.9239 98.5177C56.7239 97.9647 56.1239 97.6537 55.9239 97.1223C55.6719 96.5132 56.0239 95.8133 56.4319 95.3036Z" fill="#263238"/>
<path d="M66.956 99.6495C67.303 98.5729 67.5627 97.4657 67.732 96.3404C67.9015 95.2117 67.808 94.0551 67.46 92.9751C67.404 92.811 66.92 91.731 66.764 91.7483C66.608 91.7655 66.948 92.7721 66.892 92.8801C66.3787 93.928 66.1736 95.1201 66.304 96.2972C66.4067 97.4371 66.6253 98.5613 66.956 99.6495Z" fill="#263238"/>
<path d="M67.032 95.3036C67.1 92.4481 65.62 90.0289 62.972 90.0332H62.728C61.5403 90.1113 60.4236 90.6701 59.6006 91.5982C58.7776 92.5262 58.3089 93.7553 58.288 95.0401C58.244 97.5111 58.224 100.25 58.312 101.568C58.496 104.302 61.052 104.561 61.052 104.561L60.992 109.058L67.176 104.855L67.032 95.3036Z" fill="#FFBF9D"/>
<path d="M61.052 104.566C62.2222 104.485 63.3465 104.045 64.292 103.296C64.0426 103.986 63.5942 104.572 63.0129 104.966C62.4317 105.361 61.7484 105.543 61.064 105.486L61.052 104.566Z" fill="#FF9A6C"/>
<path d="M59.7199 97.3642C59.7241 97.4665 59.7655 97.563 59.8352 97.6326C59.9048 97.7021 59.9971 97.7392 60.0919 97.7357C60.1381 97.7368 60.1841 97.7279 60.227 97.7095C60.2699 97.6911 60.309 97.6635 60.3418 97.6285C60.3747 97.5934 60.4006 97.5515 60.4182 97.5054C60.4357 97.4592 60.4445 97.4097 60.4439 97.3598C60.4388 97.2586 60.3976 97.1634 60.3291 97.0942C60.2605 97.025 60.1698 96.987 60.0759 96.9883C60.0297 96.9877 59.9838 96.997 59.9409 97.0156C59.898 97.0342 59.8589 97.0617 59.8259 97.0966C59.7928 97.1315 59.7664 97.1731 59.7483 97.219C59.7301 97.2649 59.7205 97.3142 59.7199 97.3642Z" fill="#263238"/>
<path d="M58.896 96.1416C58.94 96.1891 59.204 95.9515 59.592 95.9299C59.98 95.9083 60.28 96.0941 60.32 96.0422C60.36 95.9904 60.288 95.9299 60.156 95.8392C59.9805 95.7244 59.7767 95.6701 59.572 95.6837C59.37 95.6978 59.1771 95.7793 59.02 95.917C58.908 96.025 58.872 96.12 58.896 96.1416Z" fill="#263238"/>
<path d="M63.0639 97.2C63.0681 97.3024 63.1095 97.3989 63.1792 97.4684C63.2489 97.538 63.3411 97.5751 63.436 97.5716C63.4821 97.5727 63.5281 97.5638 63.571 97.5454C63.6139 97.527 63.653 97.4994 63.6858 97.4643C63.7187 97.4293 63.7447 97.3874 63.7622 97.3413C63.7798 97.2951 63.7885 97.2456 63.7879 97.1957C63.7828 97.0937 63.7411 96.9979 63.6716 96.9286C63.6022 96.8592 63.5105 96.8218 63.4159 96.8242C63.3698 96.823 63.3238 96.8319 63.2809 96.8504C63.238 96.8688 63.1989 96.8963 63.1661 96.9314C63.1332 96.9665 63.1072 97.0084 63.0897 97.0545C63.0722 97.1007 63.0634 97.1502 63.0639 97.2Z" fill="#263238"/>
<path d="M62.7159 96.0639C62.7639 96.1114 63.0239 95.8738 63.4159 95.8479C63.8079 95.822 64.0999 96.0164 64.1399 95.9602C64.1799 95.904 64.108 95.8479 63.98 95.7615C63.805 95.6453 63.6008 95.591 63.3959 95.606C63.1923 95.6174 62.9973 95.6992 62.8399 95.8392C62.7279 95.9472 62.6919 96.0423 62.7159 96.0639Z" fill="#263238"/>
<path d="M61.5 99.3817C61.2916 99.3286 61.0781 99.3025 60.864 99.3039C60.764 99.3039 60.668 99.2823 60.648 99.2089C60.6317 99.0995 60.6485 98.9874 60.696 98.8892C60.772 98.6213 60.856 98.3449 60.944 98.0511C61.1761 97.3401 61.3567 96.6107 61.484 95.8695C61.195 96.5571 60.9596 97.2695 60.78 97.9993C60.7 98.293 60.62 98.5738 60.544 98.8633C60.49 98.9998 60.4801 99.152 60.516 99.2953C60.5334 99.3323 60.5583 99.3647 60.5887 99.3901C60.6191 99.4155 60.6544 99.4332 60.692 99.4421C60.7477 99.4502 60.8042 99.4502 60.86 99.4421C61.0749 99.4526 61.2901 99.4323 61.5 99.3817Z" fill="#263238"/>
<path d="M62.664 99.5977C62.6 99.5977 62.624 100.056 62.264 100.405C61.904 100.755 61.464 100.729 61.464 100.794C61.464 100.859 61.572 100.876 61.76 100.868C62.0082 100.856 62.2447 100.751 62.428 100.57C62.6025 100.394 62.7071 100.153 62.72 99.8957C62.744 99.7057 62.692 99.5933 62.664 99.5977Z" fill="#263238"/>
<path d="M62.64 94.3575C62.688 94.4655 63.072 94.3877 63.532 94.418C63.992 94.4482 64.368 94.5562 64.424 94.4525C64.48 94.3489 64.376 94.297 64.224 94.1977C64.0191 94.07 63.7883 93.9988 63.552 93.9903C63.316 93.975 63.0801 94.0209 62.864 94.1242C62.7 94.2063 62.62 94.3013 62.64 94.3575Z" fill="#263238"/>
<path d="M58.976 94.7333C59.052 94.8241 59.312 94.7074 59.636 94.6815C59.96 94.6556 60.232 94.7074 60.292 94.6037C60.352 94.5001 60.268 94.4612 60.144 94.3791C59.9775 94.2815 59.7881 94.2393 59.5994 94.2578C59.4108 94.2762 59.2315 94.3545 59.084 94.4828C58.976 94.6081 58.944 94.6901 58.976 94.7333Z" fill="#263238"/>
<path d="M66.94 97.3426C66.984 97.321 68.648 96.673 68.7 98.5435C68.752 100.414 66.996 100.086 66.992 100.034C66.988 99.9821 66.94 97.3426 66.94 97.3426Z" fill="#FFBF9D"/>
<path d="M67.504 99.3083C67.504 99.3083 67.532 99.3299 67.584 99.3515C67.6201 99.3677 67.6588 99.3761 67.698 99.3761C67.7371 99.3761 67.7759 99.3677 67.812 99.3515C67.9218 99.2711 68.0099 99.1609 68.0675 99.0319C68.1251 98.903 68.1501 98.7598 68.14 98.6171C68.1395 98.4554 68.1054 98.2959 68.04 98.1505C68.0226 98.0928 67.9923 98.0405 67.9519 97.9984C67.9114 97.9562 67.862 97.9254 67.808 97.9086C67.773 97.8993 67.7361 97.9038 67.7038 97.9212C67.6716 97.9386 67.6461 97.9678 67.632 98.0036C67.608 98.0555 67.632 98.0943 67.612 98.0943C67.592 98.0943 67.576 98.0641 67.588 97.9863C67.5949 97.9401 67.6178 97.8985 67.652 97.8697C67.6745 97.8491 67.7007 97.8336 67.7288 97.8239C67.7569 97.8143 67.7866 97.8108 67.816 97.8135C67.8875 97.8272 67.9547 97.86 68.0113 97.9091C68.0679 97.9582 68.1122 98.0219 68.14 98.0943C68.2185 98.2556 68.2597 98.4349 68.26 98.6171C68.2725 98.7808 68.2415 98.945 68.1706 99.0903C68.0998 99.2357 67.992 99.3563 67.86 99.4379C67.814 99.4539 67.7652 99.4584 67.7173 99.4509C67.6695 99.4434 67.6239 99.4242 67.584 99.3947C67.508 99.3601 67.496 99.3126 67.504 99.3083Z" fill="#FF9A6C"/>
<path d="M59.356 91.9124C59.072 91.7526 59.896 90.7547 60.58 90.4004C61.612 89.8648 63.2 89.5364 64.18 89.7913C64.7428 89.913 65.2764 90.1583 65.7478 90.5121C66.2191 90.8658 66.6181 91.3204 66.92 91.8476C67.4995 92.9945 67.7866 94.2871 67.752 95.5931C67.7753 95.9919 67.6994 96.3901 67.532 96.7465C67.296 97.1785 66.836 97.4377 66.868 98.008C66.8833 98.2165 66.8214 98.4231 66.696 98.5825C66.384 98.954 65.992 98.6214 65.808 98.2801C65.4655 97.5203 65.2928 96.6843 65.304 95.8393C65.2388 95.2441 65.2645 94.6414 65.38 94.0552C65.46 93.7398 65.592 93.4417 65.652 93.122C65.6928 92.9649 65.7015 92.8 65.6773 92.6388C65.6531 92.4776 65.5967 92.3241 65.512 92.1889C65.4687 92.1348 65.4204 92.0856 65.368 92.042C65.1229 91.8178 64.8266 91.6687 64.51 91.6102C64.1935 91.5517 63.8681 91.5859 63.568 91.7094C62.596 92.1025 60.94 92.6987 60.496 92.3488C60.1781 92.1346 59.9055 91.8505 59.696 91.515L59.356 91.9124Z" fill="#263238"/>
<path d="M64.072 89.5407C63.5938 89.3688 63.0889 89.301 62.5864 89.341C62.0838 89.381 61.5936 89.5282 61.144 89.7739C60.9032 89.9008 60.6886 90.0786 60.5126 90.2968C60.3367 90.5149 60.2032 90.769 60.12 91.044C60.046 91.3218 60.0653 91.6189 60.1743 91.8828C60.2833 92.1468 60.4752 92.3607 60.716 92.4869H60.752C61.3985 92.706 62.0981 92.6504 62.708 92.3314C63.324 92.0851 63.868 91.6575 64.488 91.4155C65.1496 91.16 65.8666 91.1224 66.548 91.3075C65.8801 90.4947 65.0263 89.8854 64.072 89.5407Z" fill="#263238"/>
<path d="M67.6 105.227C67.6 105.227 71.228 109.819 71.2 113.029C71.2 114.757 67.54 133.086 67.54 133.086L57.356 129.013C57.0457 128.889 56.7845 128.653 56.6162 128.345C56.448 128.038 56.3829 127.677 56.432 127.323L57.776 117.716L59.256 109.076L60.8 107.862L60.92 106.963L61.116 106.531L67.052 103.81L67.6 105.227Z" fill="#744C9D"/>
<path d="M42.712 126.848L35.256 127.764L34.48 126.421L38.956 125.077L42.128 125.319L42.712 126.848Z" fill="#263238"/>
<path d="M28.92 119.405L30.744 126.42H28.88L26.336 118.748L28.92 119.405Z" fill="#263238"/>
<path d="M41.2 151.114C41.2 151.114 37.6 129.79 37.004 128.187C36.408 126.585 36.508 125.907 34.128 125.682C31.748 125.457 19.616 125.682 19.616 125.682V150.811L34.772 151.053L34.836 159.538L42.712 159.136L41.2 151.114Z" fill="#263238"/>
<path d="M74.048 96.267C74.048 96.267 70.772 96.6126 70.292 97.995C69.944 98.9972 70.1 102.976 70.216 105.067C70.2344 105.418 70.3771 105.749 70.6145 105.99C70.852 106.231 71.166 106.364 71.492 106.363C71.492 106.363 69.812 107.957 69.652 108.588C69.492 109.218 66.376 129.492 66.696 133.082C67.016 136.672 67.972 138.396 67.972 138.396L74.048 138.741V96.267Z" fill="#455A64"/>
<path d="M66.2919 137.929C66.3399 137.873 62.2679 126.308 61.4919 122.558C60.7159 118.809 60.7999 107.806 60.7999 107.806C60.4719 107.806 59.3839 108.631 59.0719 109.076C59.0719 109.076 59.2079 118.986 59.6639 122.8C60.1199 126.615 63.5999 138.879 63.5999 138.879L66.2919 137.929Z" fill="#263238"/>
<path d="M66.292 137.929C66.2305 137.94 66.1702 137.957 66.112 137.981L65.596 138.149L63.596 138.836L63.652 138.867C62.976 136.378 61.848 132.352 60.648 127.276C60.356 126.002 60.048 124.684 59.848 123.263C59.648 121.841 59.576 120.364 59.492 118.835C59.344 115.767 59.26 112.51 59.2 109.136V109.076L59.18 109.145C59.4148 108.861 59.6839 108.613 59.98 108.406C60.1187 108.298 60.263 108.199 60.412 108.108C60.5436 108.019 60.6883 107.955 60.84 107.918L60.732 107.806C60.732 112.147 60.772 116.26 61.072 119.975C61.1455 120.882 61.2683 121.784 61.44 122.675C61.628 123.539 61.864 124.351 62.092 125.138C62.552 126.71 63.016 128.162 63.444 129.479C64.304 132.114 65.044 134.231 65.532 135.674L66.332 137.929C66.294 137.725 66.2391 137.526 66.168 137.333L65.6 135.648C65.12 134.184 64.4 132.067 63.576 129.427C63.176 128.105 62.7 126.658 62.248 125.086C62.024 124.299 61.792 123.483 61.608 122.632C61.4429 121.749 61.3253 120.856 61.256 119.958C60.964 116.256 60.916 112.143 60.936 107.81V107.68H60.832C60.6458 107.714 60.4677 107.788 60.308 107.896C60.152 107.991 60.004 108.095 59.856 108.207C59.5472 108.43 59.2662 108.694 59.02 108.994V109.024V109.128C59.076 112.506 59.168 115.763 59.32 118.835C59.408 120.368 59.484 121.859 59.692 123.28C59.9 124.701 60.228 126.036 60.524 127.306C61.752 132.387 62.924 136.404 63.616 138.879V138.927H63.66L65.6 138.193L66.108 138.003C66.1706 137.982 66.232 137.957 66.292 137.929Z" fill="#455A64"/>
<path d="M66.024 138.24C66.024 138.037 62.452 130.935 58.204 129.337L55.852 130.08C55.852 130.08 62.86 135.488 63.6 138.879L66.024 138.24Z" fill="#263238"/>
<path d="M66.024 138.24C65.9658 138.246 65.9082 138.257 65.852 138.275L65.372 138.383L63.608 138.815L63.68 138.862C63.4614 138.107 63.126 137.397 62.688 136.763C62.1463 135.983 61.5542 135.245 60.916 134.555C59.3554 132.901 57.6828 131.374 55.912 129.989L55.88 130.188L55.96 130.162L58.232 129.445H58.168C59.5751 130.068 60.8433 131.007 61.888 132.201C62.7449 133.141 63.5327 134.152 64.244 135.225C64.9016 136.187 65.4964 137.197 66.024 138.249C65.9352 137.945 65.8101 137.654 65.652 137.385C65.2544 136.615 64.8205 135.868 64.352 135.147C63.6468 134.052 62.8602 133.02 62 132.062C60.9423 130.839 59.6531 129.875 58.22 129.237H58.192H58.156L55.884 129.954L55.808 129.98L55.604 130.045L55.776 130.179C57.5467 131.558 59.2255 133.069 60.8 134.702C61.4351 135.379 62.0284 136.101 62.576 136.862C63.0127 137.473 63.3508 138.16 63.576 138.892V138.953H63.632L65.408 138.452L65.872 138.314C65.925 138.295 65.976 138.271 66.024 138.24Z" fill="#455A64"/>
<path d="M67.74 107.806C70.048 109.076 69.2 114.07 68.484 116.217C67.232 119.971 65.284 125.876 64.248 126.891C62.824 128.313 52.648 132.041 52.648 132.041L50.676 128.015L60.228 122.528C60.228 122.528 60.228 121.699 60.628 121.582C61.028 121.466 62.124 113.759 62.124 113.759C62.124 113.759 62.524 110.761 63.528 109.344" fill="#744C9D"/>
<path d="M63.504 109.344C63.3147 109.598 63.1548 109.877 63.028 110.173C62.6706 111.021 62.4023 111.909 62.228 112.821C62.1 113.409 62.012 114.07 61.9 114.787C61.788 115.504 61.656 116.281 61.524 117.111C61.392 117.94 61.228 118.839 61.044 119.755C60.948 120.217 60.852 120.697 60.716 121.167C60.6849 121.278 60.6433 121.385 60.592 121.487C60.62 121.487 60.512 121.517 60.46 121.565C60.4051 121.612 60.3578 121.669 60.32 121.733C60.2005 121.979 60.1374 122.251 60.136 122.528L60.184 122.446L50.624 127.92L50.536 127.971L50.584 128.066C51.212 129.362 51.876 130.71 52.556 132.093L52.596 132.179L52.68 132.145L54.532 131.449C56.472 130.71 58.356 129.959 60.16 129.177C61.06 128.784 61.94 128.382 62.784 127.945L63.412 127.609C63.612 127.479 63.812 127.367 64.012 127.224L64.296 126.995C64.3811 126.905 64.4612 126.81 64.536 126.71C64.6725 126.512 64.7967 126.304 64.908 126.088C65.3153 125.265 65.6799 124.419 66 123.552C66.328 122.688 66.628 121.885 66.908 121.081C67.472 119.483 67.972 117.979 68.424 116.61C68.8429 115.374 69.1118 114.084 69.224 112.774C69.3348 111.783 69.2847 110.778 69.076 109.806C68.9517 109.185 68.6544 108.619 68.224 108.186C68.1654 108.115 68.0965 108.055 68.02 108.009L67.856 107.901L67.72 107.819L67.844 107.922L68 108.039C68.0747 108.085 68.1411 108.145 68.196 108.216C68.6035 108.657 68.8818 109.217 68.996 109.827C69.1908 110.791 69.2287 111.783 69.108 112.761C68.9826 114.058 68.703 115.333 68.276 116.554C67.816 117.923 67.308 119.418 66.74 121.016C66.456 121.811 66.152 122.636 65.824 123.474C65.4962 124.337 65.1236 125.18 64.708 125.997C64.5233 126.428 64.2328 126.795 63.868 127.06C63.688 127.194 63.468 127.306 63.284 127.431L62.668 127.768C61.828 128.2 60.952 128.593 60.052 128.982C58.252 129.76 56.368 130.512 54.452 131.25L52.6 131.946L52.724 132.002L50.752 127.976L50.708 128.127L60.252 122.623L60.296 122.597V122.541C60.2955 122.298 60.3475 122.059 60.448 121.841C60.4738 121.796 60.5078 121.756 60.548 121.725C60.58 121.681 60.612 121.725 60.712 121.608C60.7766 121.49 60.8264 121.364 60.86 121.232C61 120.748 61.092 120.269 61.184 119.802C61.364 118.869 61.512 117.984 61.648 117.15C61.784 116.316 61.892 115.538 62.004 114.821C62.116 114.104 62.192 113.439 62.312 112.856C62.4796 111.948 62.7343 111.062 63.072 110.212C63.1651 109.991 63.2706 109.776 63.388 109.568C63.468 109.417 63.504 109.344 63.504 109.344Z" fill="#263238"/>
<path d="M74.048 95.2906C74.048 95.2906 75.904 95.6795 76.364 97.2433C76.824 98.8071 76.364 146.923 76.364 146.923H46.428C46.428 146.923 45.944 143.221 49.14 142.504C52.336 141.787 63.38 142.284 63.38 142.284C63.38 142.284 67.264 138.197 68.132 137.372C69 136.547 69.36 135.903 70.588 136.141C71.816 136.378 72.732 136.542 72.732 136.542V120.437L74.048 116.294V95.2906Z" fill="#263238"/>
<path d="M50.552 132.391C50.552 132.391 51.84 132.935 51.72 134.369C51.6645 135.188 51.4678 135.988 51.1399 136.728L49.14 158.903H47.416L49.316 135.925V133.203L50.552 132.391Z" fill="#263238"/>
<path d="M50.552 132.391C50.552 132.391 50.524 132.391 50.468 132.434L50.228 132.577L49.284 133.168C49.284 133.86 49.284 134.78 49.284 135.89C48.884 140.689 48.16 149.152 47.336 158.864V158.985H49.268V158.885C50.068 149.675 50.792 141.605 51.228 136.706V136.728C51.5051 136.086 51.686 135.401 51.764 134.698C51.8036 134.411 51.8036 134.12 51.764 133.834C51.7191 133.597 51.6336 133.371 51.512 133.168C51.3406 132.895 51.1151 132.666 50.852 132.499C50.7852 132.456 50.7157 132.419 50.644 132.386C50.6 132.386 50.572 132.356 50.572 132.361L50.64 132.404C50.684 132.43 50.752 132.469 50.836 132.529C51.0848 132.705 51.2972 132.934 51.46 133.203C51.5736 133.401 51.6509 133.621 51.688 133.851C51.7158 134.129 51.7064 134.41 51.66 134.685C51.5716 135.372 51.3854 136.041 51.108 136.668V136.693C50.656 141.592 49.908 149.653 49.06 158.864L49.1639 158.76H47.4399L47.5399 158.885C48.3399 149.165 49.008 140.702 49.392 135.899C49.392 134.788 49.3919 133.868 49.3639 133.177V133.207L50.236 132.624L50.472 132.46L50.552 132.391Z" fill="#455A64"/>
<path d="M61.084 106.635C61.05 106.804 61.05 106.98 61.084 107.149C61.1463 107.61 61.2816 108.055 61.484 108.467L61.516 108.536L61.588 108.505C62.224 108.238 63.004 107.883 63.832 107.464C64.88 106.942 65.808 106.419 66.468 106.021C66.8348 105.825 67.1831 105.591 67.508 105.322C67.1268 105.479 66.7565 105.665 66.4 105.879C65.724 106.242 64.8 106.743 63.744 107.261C62.92 107.693 62.144 108.043 61.524 108.337L61.632 108.38C61.3717 107.83 61.1871 107.242 61.084 106.635Z" fill="#263238"/>
<path d="M58.5919 111.551C58.5457 111.712 58.5188 111.879 58.512 112.048C58.464 112.419 58.4119 112.873 58.3439 113.409C58.2039 114.558 57.9919 116.143 57.7439 117.889C57.4959 119.634 57.276 121.167 57.104 122.364C57.032 122.904 56.976 123.358 56.928 123.725C56.8975 123.891 56.8841 124.061 56.8879 124.23C56.9458 124.072 56.9861 123.907 57.008 123.738L57.2479 122.39C57.4439 121.25 57.6999 119.673 57.948 117.923C58.196 116.174 58.3879 114.584 58.4919 113.426C58.5439 112.851 58.5759 112.381 58.5919 112.057C58.6075 111.889 58.6075 111.719 58.5919 111.551Z" fill="#263238"/>
<path d="M21.5299 114.796L45.3242 126.039C45.7553 126.243 45.9518 126.786 45.7632 127.251L45.6911 127.429C45.5025 127.895 45.0001 128.107 44.569 127.903L20.7747 116.66C20.3436 116.457 20.1471 115.914 20.3357 115.449L20.4078 115.27C20.5964 114.805 21.0988 114.593 21.5299 114.796Z" fill="#455A64"/>
<path d="M45.6239 133.691C45.6239 133.436 46.3279 130.611 46.5639 130.283C46.7999 129.954 50.9119 128.689 50.8919 128.645L52.2679 131.289L51.8 131.721C51.3957 132.104 50.9449 132.425 50.46 132.676L50.0879 134.11C50.0879 134.11 50.0199 134.871 49.9879 135.16C49.9559 135.449 49.1479 135.38 49.1479 135.38C48.9799 135.631 48.3479 135.454 48.3479 135.454H47.704C47.972 136.033 47.504 136.141 47.504 136.141L46.7639 135.778C45.6559 135.596 46.16 134.836 46.16 134.836C45.9354 134.481 45.7552 134.097 45.6239 133.691Z" fill="#FFBF9D"/>
<path d="M49.044 135.337C49.104 135.337 49 134.616 49.044 133.739C49.088 132.862 49.252 132.17 49.192 132.153C48.7671 133.155 48.7156 134.295 49.048 135.337H49.044Z" fill="#FF9A6C"/>
<path d="M47.848 135.354C47.876 135.354 47.82 135.168 47.784 134.879C47.7386 134.505 47.7481 134.126 47.812 133.756C47.964 132.892 48.212 132.192 48.156 132.166C48.1 132.14 48.044 132.317 47.932 132.598C47.781 132.958 47.6709 133.337 47.604 133.726C47.5368 134.121 47.549 134.528 47.64 134.918C47.716 135.216 47.824 135.367 47.848 135.354Z" fill="#FF9A6C"/>
<path d="M47.796 135.497C47.796 135.467 47.624 135.363 47.356 135.169C47.1815 135.066 47.0385 134.911 46.9446 134.723C46.8508 134.534 46.8103 134.319 46.828 134.106C46.9561 133.46 47.0165 132.801 47.008 132.14C46.806 132.768 46.6718 133.419 46.608 134.08C46.5881 134.221 46.5945 134.364 46.6268 134.502C46.6591 134.64 46.7166 134.77 46.796 134.883C46.9232 135.062 47.0841 135.209 47.268 135.315C47.6 135.471 47.788 135.523 47.796 135.497Z" fill="#FF9A6C"/>
<path d="M46.236 134.991C46.264 135.048 46.416 135.022 46.6 135.022C46.784 135.022 46.936 135.022 46.96 134.978C46.984 134.935 46.828 134.793 46.596 134.797C46.364 134.801 46.208 134.94 46.236 134.991Z" fill="#FF9A6C"/>
<path d="M49.2 132.058C49.256 132.037 49.2 131.764 49.356 131.492C49.512 131.22 49.716 131.095 49.7 131.03C49.684 130.965 49.616 130.991 49.504 131.03C49.3622 131.102 49.2457 131.222 49.172 131.371C49.0971 131.522 49.0717 131.695 49.1 131.864C49.124 132.006 49.176 132.067 49.2 132.058Z" fill="#FF9A6C"/>
<path d="M48.064 131.635C48.124 131.635 48.144 131.41 48.244 131.203C48.344 130.995 48.476 130.823 48.444 130.771C48.412 130.719 48.18 130.818 48.044 131.112C47.908 131.406 48 131.648 48.064 131.635Z" fill="#FF9A6C"/>
<path d="M47.156 131.76C47.216 131.76 47.236 131.497 47.332 131.207C47.428 130.918 47.5599 130.702 47.5159 130.659C47.4719 130.615 47.248 130.788 47.136 131.134C47.024 131.479 47.104 131.76 47.156 131.76Z" fill="#FF9A6C"/>
<path d="M73.272 81.6307H76.276V189.346H73.272V81.6307Z" fill="#744C9D"/>
<path d="M73.272 189.346C73.272 189.346 73.272 189.156 73.272 188.784C73.272 188.412 73.272 187.868 73.272 187.155C73.272 185.721 73.272 183.613 73.272 180.9C73.272 175.465 73.272 167.607 73.304 157.879C73.304 138.439 73.328 111.521 73.348 81.6307L73.244 81.743H76.248L76.144 81.6307C76.184 134.071 76.216 177.988 76.224 189.346L76.248 189.32H73.984H73.244C73.244 189.32 73.476 189.32 73.968 189.32H76.248H76.272V189.294C76.272 177.936 76.312 134.019 76.352 81.5789V81.4666H73.152V81.648C73.152 111.573 73.18 138.512 73.192 157.978C73.192 167.698 73.216 175.548 73.224 180.973C73.224 183.678 73.224 185.777 73.224 187.203C73.224 187.911 73.224 188.451 73.224 188.819C73.224 189.186 73.272 189.346 73.272 189.346Z" fill="#263238"/>
<path d="M35.34 175.28C35.34 175.344 43.788 175.392 54.208 175.392C64.628 175.392 73.076 175.344 73.076 175.28C73.076 175.215 64.628 175.167 54.208 175.167C43.788 175.167 35.34 175.219 35.34 175.28Z" fill="#263238"/>
<path d="M35.224 183.207C35.224 183.272 43.696 183.319 54.148 183.319C64.6 183.319 73.076 183.272 73.076 183.207C73.076 183.142 64.604 183.095 54.148 183.095C43.692 183.095 35.224 183.168 35.224 183.207Z" fill="#263238"/>
<path d="M34.78 159.317C34.78 159.382 43.404 159.43 54.044 159.43C64.684 159.43 73.308 159.382 73.308 159.317C73.308 159.252 64.684 159.205 54.044 159.205C43.404 159.205 34.78 159.257 34.78 159.317Z" fill="#263238"/>
<path d="M35.136 167.616C35.136 167.677 43.62 167.728 54.088 167.728C64.556 167.728 73.04 167.677 73.04 167.616C73.04 167.556 64.556 167.504 54.088 167.504C43.62 167.504 35.136 167.543 35.136 167.616Z" fill="#263238"/>
<path d="M35.136 125.833C35.2394 125.869 35.345 125.898 35.452 125.919C35.7408 126.05 35.995 126.257 36.192 126.52C36.716 127.198 37.164 128.429 37.392 129.976C37.94 133.129 38.696 137.449 39.528 142.223C40.36 146.997 41.16 151.295 41.724 154.462C42.012 156.012 42.248 157.27 42.416 158.168C42.496 158.6 42.564 158.924 42.612 159.17C42.6309 159.289 42.659 159.406 42.696 159.52C42.6913 159.4 42.6766 159.28 42.652 159.162C42.612 158.911 42.56 158.574 42.496 158.151C42.344 157.252 42.132 155.991 41.872 154.436C41.32 151.282 40.568 146.958 39.732 142.184C38.896 137.411 38.104 133.112 37.536 129.95C37.272 128.373 36.796 127.133 36.24 126.451C36.026 126.182 35.7499 125.979 35.44 125.863C35.332 125.842 35.248 125.833 35.192 125.824C35.136 125.816 35.136 125.829 35.136 125.833Z" fill="#455A64"/>
<path d="M67.86 140.962L66.236 138.149L63.956 138.784L65.252 141.977L67.86 140.962Z" fill="#263238"/>
<path d="M31.784 81.6307H34.788V189.069H31.784V81.6307Z" fill="#744C9D"/>
<path d="M31.784 189.069C31.784 189.069 31.784 188.879 31.784 188.512C31.784 188.145 31.784 187.596 31.784 186.888C31.784 185.458 31.784 183.354 31.784 180.645C31.784 175.228 31.804 167.387 31.816 157.684C31.816 138.288 31.844 111.46 31.86 81.6523L31.756 81.7646H34.8L34.696 81.6523C34.736 133.955 34.768 177.751 34.776 189.091L34.8 189.065H32.536H31.796C31.796 189.065 32.028 189.065 32.52 189.065H34.8V189.039C34.8 177.703 34.84 133.903 34.88 81.6005V81.4882H31.68V81.648C31.68 111.495 31.712 138.37 31.72 157.784C31.72 167.478 31.744 175.306 31.752 180.719C31.752 183.419 31.752 185.509 31.752 186.935C31.752 187.639 31.752 188.179 31.752 188.546C31.752 188.914 31.784 189.069 31.784 189.069Z" fill="#263238"/>
<path d="M63.86 139.389L66.26 138.504C66.3395 138.476 66.413 138.432 66.4764 138.373C66.5397 138.315 66.5916 138.243 66.6289 138.163C66.6662 138.082 66.6881 137.994 66.6935 137.905C66.6988 137.815 66.6875 137.725 66.66 137.64C66.6338 137.554 66.5923 137.476 66.5379 137.408C66.4835 137.34 66.4172 137.285 66.3429 137.244C66.2686 137.204 66.1877 137.18 66.1049 137.174C66.022 137.168 65.9388 137.179 65.86 137.208L63.46 138.093C63.3812 138.121 63.3083 138.166 63.2455 138.225C63.1827 138.284 63.1313 138.355 63.0941 138.436C63.057 138.516 63.0349 138.603 63.029 138.693C63.0231 138.782 63.0337 138.872 63.06 138.957C63.0862 139.042 63.1277 139.121 63.1821 139.189C63.2365 139.257 63.3028 139.312 63.3771 139.352C63.4514 139.392 63.5323 139.416 63.6151 139.423C63.698 139.429 63.7812 139.418 63.86 139.389Z" fill="#744C9D"/>
<path d="M30.352 111.05C30.4 111.02 28.776 107.978 26.724 104.268C24.672 100.557 22.968 97.5629 22.92 97.5975C22.872 97.632 24.492 100.665 26.544 104.38C28.596 108.095 30.304 111.08 30.352 111.05Z" fill="#263238"/>
<path d="M30.248 105.797C30.1548 105.603 30.045 105.42 29.92 105.248L28.98 103.784C28.18 102.548 27.124 100.824 26.008 98.8762C24.892 96.9278 23.944 95.1221 23.272 93.8088C22.952 93.1781 22.688 92.651 22.472 92.245C22.3826 92.0487 22.2783 91.8609 22.16 91.6833C22.2229 91.8924 22.3032 92.0948 22.4 92.2882C22.564 92.6683 22.8 93.2126 23.132 93.8822C23.768 95.2214 24.7 97.0402 25.816 98.9971C26.932 100.954 28.028 102.665 28.848 103.879C29.248 104.484 29.6 104.972 29.844 105.3C29.964 105.479 30.0992 105.645 30.248 105.797Z" fill="#263238"/>
<path d="M76.276 152.289C76.332 152.289 76.38 136.482 76.38 116.986C76.38 97.4895 76.332 81.6783 76.276 81.6783C76.22 81.6783 76.172 97.4852 76.172 116.986C76.172 136.486 76.22 152.289 76.276 152.289Z" fill="#263238"/>
</svg>
