<svg width="300" height="216" viewBox="0 0 300 216" fill="none" xmlns="http://www.w3.org/2000/svg">
<rect width="300" height="216" transform="matrix(-1 0 0 1 300 0)" fill="white"/>
<rect width="300" height="216" transform="matrix(-1 0 0 1 300 0)" fill="#744C9D" fill-opacity="0.05"/>
<path d="M162.4 43.6968L162.764 44.8588C165.824 54.6652 163.808 65.5257 157.244 72.9388C156.399 73.8944 155.49 74.7809 154.524 75.5913C147.564 81.4233 137.748 83.0822 129.364 79.8422C124.436 77.9328 119.784 74.4249 114.564 74.5761C107.764 74.7792 102.716 80.9956 98.5359 86.7067C94.3559 92.4177 89.2759 98.6256 82.4919 98.8027C78.2399 98.9064 74.1959 96.4915 71.0799 93.3336C62.8239 84.97 60.1679 71.4355 62.7799 59.6678C65.3919 47.9001 72.6399 37.8345 81.3919 30.3177C93.6559 19.7899 109.564 13.6425 125.264 15.552C140.964 17.4614 156.072 28.0324 162.4 43.6968Z" fill="white"/>
<path d="M162.4 43.6968L162.764 44.8588C165.824 54.6652 163.808 65.5257 157.244 72.9388C156.399 73.8944 155.49 74.7809 154.524 75.5913C147.564 81.4233 137.748 83.0822 129.364 79.8422C124.436 77.9328 119.784 74.4249 114.564 74.5761C107.764 74.7792 102.716 80.9956 98.5359 86.7067C94.3559 92.4177 89.2759 98.6256 82.4919 98.8027C78.2399 98.9064 74.1959 96.4915 71.0799 93.3336C62.8239 84.97 60.1679 71.4355 62.7799 59.6678C65.3919 47.9001 72.6399 37.8345 81.3919 30.3177C93.6559 19.7899 109.564 13.6425 125.264 15.552C140.964 17.4614 156.072 28.0324 162.4 43.6968Z" fill="#744C9D" fill-opacity="0.1"/>
<path d="M208.684 113.4C191.117 113.4 176.876 98.0198 176.876 79.0473C176.876 60.0749 191.117 44.6947 208.684 44.6947C226.251 44.6947 240.492 60.0749 240.492 79.0473C240.492 98.0198 226.251 113.4 208.684 113.4Z" fill="white"/>
<path d="M208.684 113.4C191.117 113.4 176.876 98.0198 176.876 79.0473C176.876 60.0749 191.117 44.6947 208.684 44.6947C226.251 44.6947 240.492 60.0749 240.492 79.0473C240.492 98.0198 226.251 113.4 208.684 113.4Z" fill="#744C9D" fill-opacity="0.1"/>
<path d="M17.6 203.472C17.6 203.532 76.884 203.584 150 203.584C223.116 203.584 282.4 203.537 282.4 203.472C282.4 203.407 223.128 203.36 150 203.36C76.872 203.36 17.6 203.416 17.6 203.472Z" fill="#263238"/>
<path d="M174.764 175.742C174.764 175.807 180.008 175.854 186.48 175.854C192.952 175.854 198.2 175.807 198.2 175.742C198.2 175.677 192.956 175.63 186.48 175.63C180.004 175.63 174.764 175.681 174.764 175.742Z" fill="white"/>
<path d="M239.16 174.139H265.428V177.349H239.16V174.139Z" fill="#E0E0E0"/>
<path d="M264.744 175.742C264.744 176.627 265.048 177.345 265.428 177.345C265.808 177.345 266.112 176.627 266.112 175.742C266.112 174.856 265.804 174.139 265.428 174.139C265.052 174.139 264.744 174.856 264.744 175.742Z" fill="#263238"/>
<g opacity="0.3">
<path d="M252.04 174.139C252.469 175.147 252.522 176.295 252.188 177.345H249.276V174.139H252.04Z" fill="black"/>
</g>
<path d="M195.332 149.563H258.252V171.871H195.332V149.563Z" fill="#744C9D"/>
<path opacity="0.3" d="M195.332 149.563H258.252V171.871H195.332V149.563Z" fill="black"/>
<path d="M170 132.996V171.811C169.999 172.508 170.126 173.198 170.373 173.842C170.619 174.486 170.981 175.072 171.437 175.565C171.893 176.058 172.435 176.449 173.031 176.716C173.628 176.983 174.267 177.12 174.912 177.12H201.896C202.675 177.119 203.429 176.818 204.02 176.269C204.611 175.721 205.002 174.962 205.12 174.131C206.072 167.452 210.32 151.913 229.096 151.813C246.116 151.723 252.016 164.134 253.756 169.439C253.981 170.128 254.398 170.724 254.951 171.145C255.504 171.566 256.164 171.791 256.84 171.789L274.988 171.724C276.542 171.72 278.032 171.05 279.13 169.863C280.228 168.675 280.846 167.065 280.848 165.387L280.912 131.82C280.912 131.354 280.826 130.891 280.659 130.461C280.492 130.03 280.247 129.64 279.939 129.312C279.63 128.985 279.265 128.727 278.863 128.554C278.462 128.381 278.032 128.296 277.6 128.304L173.2 129.488C172.348 129.505 171.536 129.881 170.938 130.537C170.34 131.193 170.003 132.075 170 132.996Z" fill="#744C9D"/>
<path d="M254.488 172.035L277.104 171.876C278.388 171.876 280.92 170.834 280.92 166.182V161.037L249.564 161.352C251.807 164.551 253.477 168.174 254.488 172.035Z" fill="#E0E0E0"/>
<path opacity="0.3" d="M276.224 145.273H279.84C280.436 145.273 280.92 145.795 280.92 146.439V156.665C280.92 157.309 280.436 157.831 279.84 157.831H276.224C275.627 157.831 275.144 157.309 275.144 156.665V146.439C275.144 145.795 275.627 145.273 276.224 145.273Z" fill="white"/>
<path opacity="0.3" d="M277.156 142.245H171.3C170.975 142.245 170.664 142.105 170.434 141.857C170.205 141.61 170.076 141.273 170.076 140.923C170.076 140.572 170.205 140.236 170.434 139.988C170.664 139.74 170.975 139.601 171.3 139.601H277.156C277.481 139.601 277.792 139.74 278.022 139.988C278.251 140.236 278.38 140.572 278.38 140.923C278.38 141.273 278.251 141.61 278.022 141.857C277.792 142.105 277.481 142.245 277.156 142.245Z" fill="black"/>
<path d="M170.236 130.464L280.904 129.764C281.128 129.762 281.343 129.664 281.501 129.492C281.659 129.319 281.748 129.086 281.748 128.844C281.747 128.723 281.725 128.604 281.681 128.493C281.638 128.382 281.575 128.281 281.495 128.196C281.416 128.111 281.322 128.044 281.218 127.999C281.114 127.954 281.004 127.931 280.892 127.932L170.224 128.619C170.113 128.62 170.002 128.644 169.9 128.691C169.797 128.737 169.704 128.805 169.625 128.891C169.547 128.976 169.485 129.077 169.443 129.189C169.401 129.3 169.379 129.419 169.38 129.539C169.379 129.661 169.401 129.781 169.444 129.894C169.487 130.006 169.55 130.108 169.629 130.194C169.709 130.28 169.804 130.348 169.908 130.395C170.012 130.441 170.123 130.464 170.236 130.464Z" fill="#E0E0E0"/>
<path d="M170.236 130.464C170.04 130.456 169.852 130.381 169.7 130.248C169.609 130.166 169.535 130.063 169.483 129.948C169.431 129.833 169.403 129.707 169.4 129.578C169.395 129.402 169.438 129.228 169.524 129.078C169.61 128.928 169.735 128.809 169.884 128.736C170.069 128.661 170.267 128.633 170.464 128.654H172.656H176.468L200.756 128.537L280.888 128.045C280.996 128.044 281.102 128.068 281.2 128.115C281.299 128.162 281.386 128.232 281.457 128.32C281.528 128.407 281.581 128.51 281.612 128.621C281.643 128.733 281.651 128.85 281.636 128.965C281.62 129.08 281.582 129.189 281.523 129.286C281.464 129.383 281.387 129.465 281.296 129.526C281.097 129.641 280.871 129.684 280.648 129.652H277.74L271.984 129.691L260.728 129.76L239.452 129.898L203.428 130.149L179.14 130.334L172.536 130.395L170.82 130.416H170.236L170.8 130.464H172.516L179.12 130.442L203.408 130.33L239.432 130.127L260.708 130.002L272 129.933L277.756 129.894H280.664C280.797 129.903 280.931 129.903 281.064 129.894C281.206 129.874 281.342 129.823 281.464 129.742C281.639 129.623 281.773 129.445 281.846 129.235C281.918 129.026 281.926 128.797 281.867 128.582C281.808 128.368 281.686 128.18 281.52 128.047C281.353 127.914 281.151 127.844 280.944 127.846L200.812 128.373L176.524 128.563L172.712 128.593H171.184H170.52C170.316 128.574 170.11 128.606 169.92 128.688C169.766 128.767 169.636 128.893 169.548 129.05C169.46 129.208 169.416 129.39 169.424 129.574C169.429 129.706 169.46 129.835 169.515 129.953C169.57 130.071 169.648 130.174 169.744 130.257C169.881 130.384 170.055 130.457 170.236 130.464Z" fill="#263238"/>
<path d="M171.508 177.12H204.844C204.844 173.953 206.476 168.139 208.568 163.728H170V175.5C170.003 175.93 170.163 176.341 170.446 176.645C170.728 176.948 171.11 177.119 171.508 177.12Z" fill="#E0E0E0"/>
<path d="M208.684 152.729C208.719 152.718 208.753 152.7 208.784 152.677L209.072 152.505C209.324 152.358 209.684 152.107 210.168 151.831C211.521 151.02 212.918 150.299 214.352 149.671C221.731 146.417 229.888 145.833 237.6 148.008C239.818 148.624 241.98 149.459 244.056 150.504C245.459 151.205 246.822 151.997 248.136 152.876C248.604 153.179 248.936 153.446 249.196 153.611L249.476 153.801C249.54 153.84 249.572 153.861 249.576 153.857C249.55 153.827 249.52 153.801 249.488 153.779L249.22 153.572C248.984 153.399 248.644 153.118 248.176 152.803C246.877 151.889 245.522 151.073 244.12 150.358C239.482 147.972 234.431 146.666 229.295 146.525C224.159 146.383 219.053 147.409 214.308 149.537C212.873 150.173 211.481 150.915 210.14 151.757C209.66 152.042 209.308 152.306 209.06 152.466L208.784 152.66L208.684 152.729Z" fill="#263238"/>
<path d="M208.272 180.421C208.272 180.421 208.272 180.382 208.272 180.36C208.19 174.173 210.387 168.204 214.379 163.767C218.372 159.329 223.833 156.786 229.562 156.697C235.291 156.608 240.817 158.981 244.926 163.293C249.035 167.605 251.39 173.503 251.472 179.69C251.472 179.69 251.472 179.729 251.472 179.747C251.472 179.764 251.472 179.837 251.472 179.881C251.472 179.924 251.472 179.906 251.472 179.919C251.513 182.983 250.994 186.025 249.946 188.872C248.898 191.719 247.342 194.316 245.365 196.513C243.388 198.71 241.029 200.465 238.424 201.678C235.819 202.891 233.018 203.538 230.182 203.582C227.345 203.626 224.529 203.066 221.892 201.935C219.256 200.803 216.852 199.121 214.818 196.986C212.783 194.851 211.158 192.304 210.035 189.491C208.912 186.677 208.313 183.652 208.272 180.589C208.272 180.546 208.272 180.503 208.272 180.459C208.272 180.416 208.272 180.433 208.272 180.421Z" fill="#263238"/>
<path d="M243.36 180.045C243.398 182.925 242.645 185.754 241.195 188.172C239.745 190.59 237.664 192.49 235.215 193.631C232.765 194.772 230.058 195.103 227.434 194.582C224.811 194.061 222.389 192.711 220.475 190.704C218.562 188.696 217.243 186.121 216.684 183.304C216.126 180.487 216.353 177.554 217.338 174.877C218.323 172.2 220.021 169.898 222.217 168.262C224.413 166.627 227.009 165.731 229.676 165.689C231.447 165.661 233.207 166.009 234.853 166.716C236.5 167.422 238.002 168.471 239.272 169.804C240.543 171.138 241.558 172.728 242.26 174.485C242.961 176.242 243.335 178.131 243.36 180.045Z" fill="#E0E0E0"/>
<path d="M229.676 165.689C231.447 165.661 233.206 166.01 234.853 166.717C236.499 167.423 238.001 168.473 239.271 169.806C240.542 171.139 241.557 172.729 242.259 174.486C242.96 176.243 243.334 178.132 243.36 180.045L216.384 180.477C216.356 178.563 216.679 176.662 217.332 174.882C217.985 173.103 218.957 171.48 220.191 170.107C221.426 168.734 222.899 167.636 224.527 166.878C226.154 166.12 227.904 165.716 229.676 165.689Z" fill="#E0E0E0"/>
<path d="M240.96 180.083C240.991 182.453 240.372 184.779 239.179 186.767C237.986 188.756 236.274 190.318 234.26 191.256C232.245 192.194 230.018 192.465 227.861 192.036C225.703 191.607 223.712 190.497 222.138 188.846C220.565 187.194 219.481 185.076 219.022 182.759C218.564 180.442 218.751 178.03 219.562 175.828C220.373 173.627 221.77 171.734 223.576 170.39C225.383 169.046 227.518 168.31 229.712 168.277C231.168 168.254 232.615 168.541 233.968 169.122C235.322 169.703 236.556 170.567 237.601 171.663C238.645 172.76 239.48 174.068 240.056 175.512C240.632 176.957 240.94 178.51 240.96 180.083Z" fill="#263238"/>
<path d="M234.864 168.182C234.748 168.372 230.652 173.733 230.652 173.733H228.516L224.472 168.683L220.604 171.551L223.84 177.409L223.548 179.159L217.428 182.524L219.68 187.574L225.224 185.207L226.9 186.265L227.532 193.748L232.612 193.372L232.672 186.326L234.272 184.771L240.672 186.702L242.272 181.466L235.732 179.28L235.04 177.349L238.908 170.554L234.864 168.182Z" fill="#E0E0E0"/>
<path d="M229.872 182.598C228.781 182.598 227.896 181.642 227.896 180.464C227.896 179.285 228.781 178.33 229.872 178.33C230.963 178.33 231.848 179.285 231.848 180.464C231.848 181.642 230.963 182.598 229.872 182.598Z" fill="#263238"/>
<path d="M185.424 142.068C185.424 142.128 205.628 142.18 230.544 142.18C255.46 142.18 275.668 142.128 275.668 142.068C275.668 142.007 255.468 141.955 230.544 141.955C205.62 141.955 185.424 142.003 185.424 142.068Z" fill="#263238"/>
<path d="M172.324 170.558C172.324 170.618 179.684 170.67 188.764 170.67C197.844 170.67 205.2 170.64 205.2 170.558C205.2 170.476 197.836 170.446 188.752 170.446C179.668 170.446 172.324 170.493 172.324 170.558Z" fill="#263238"/>
<path d="M279.096 166.532C279.096 166.471 273.172 166.419 265.868 166.419C258.564 166.419 252.636 166.471 252.636 166.532C252.636 166.592 258.56 166.644 265.868 166.644C273.176 166.644 279.096 166.592 279.096 166.532Z" fill="#263238"/>
<path opacity="0.4" d="M173.032 171.94H202.296C202.868 171.94 203.332 172.441 203.332 173.059V174.912C203.332 175.53 202.868 176.031 202.296 176.031H173.032C172.46 176.031 171.996 175.53 171.996 174.912V173.059C171.996 172.441 172.46 171.94 173.032 171.94Z" fill="white"/>
<path opacity="0.4" d="M256.512 167.028H276.276C276.848 167.028 277.312 167.529 277.312 168.147V170.001C277.312 170.619 276.848 171.119 276.276 171.119H256.512C255.94 171.119 255.476 170.619 255.476 170.001V168.147C255.476 167.529 255.94 167.028 256.512 167.028Z" fill="white"/>
<path d="M257.492 170.834C257.492 170.895 261.324 170.947 266.052 170.947C270.78 170.947 274.608 170.895 274.608 170.834C274.608 170.774 270.776 170.722 266.052 170.722C261.328 170.722 257.492 170.77 257.492 170.834Z" fill="white"/>
<g opacity="0.4">
<path d="M229.736 148.444C237.003 148.329 244.093 150.874 249.852 155.662C250.13 155.867 250.366 156.132 250.544 156.44C250.631 156.596 250.674 156.776 250.668 156.958C250.661 157.14 250.606 157.316 250.508 157.464C250.292 157.74 249.768 157.987 248.908 157.261C242.464 151.239 236.908 149.843 229.784 149.787C229.32 149.787 228.7 149.636 228.688 149.139C228.676 148.642 229.272 148.457 229.736 148.444Z" fill="white"/>
</g>
<path opacity="0.4" d="M226.132 149.787C225.761 149.787 225.46 149.462 225.46 149.062C225.46 148.661 225.761 148.336 226.132 148.336C226.503 148.336 226.804 148.661 226.804 149.062C226.804 149.462 226.503 149.787 226.132 149.787Z" fill="white"/>
<path d="M206 139.285C206 139.346 220 139.398 237.296 139.398C254.592 139.398 268.596 139.346 268.596 139.285C268.596 139.225 254.596 139.173 237.296 139.173C219.996 139.173 206 139.221 206 139.285Z" fill="white"/>
<path d="M191.796 139.406C193.006 139.517 194.222 139.555 195.436 139.519C196.65 139.555 197.866 139.518 199.076 139.406C197.866 139.292 196.65 139.255 195.436 139.294C194.222 139.255 193.006 139.293 191.796 139.406Z" fill="white"/>
<path d="M276.22 157.831C276.111 157.811 276.003 157.785 275.896 157.753C275.749 157.697 275.616 157.607 275.504 157.489C275.393 157.371 275.307 157.228 275.252 157.071C275.187 156.836 275.167 156.589 275.192 156.345C275.192 156.073 275.192 155.775 275.192 155.455C275.192 154.812 275.192 154.086 275.192 153.295C275.192 151.68 275.192 149.761 275.212 147.64C275.212 147.372 275.212 147.105 275.212 146.828C275.188 146.568 275.212 146.305 275.284 146.055C275.375 145.817 275.543 145.622 275.756 145.506C275.988 145.399 276.242 145.361 276.492 145.394H279.84C280.096 145.398 280.34 145.511 280.52 145.709C280.699 145.906 280.8 146.171 280.8 146.448V148.176C280.8 149.334 280.8 150.453 280.8 151.515C280.8 152.578 280.8 153.593 280.8 154.539C280.8 155.015 280.8 155.468 280.8 155.909C280.8 156.129 280.8 156.341 280.8 156.557C280.811 156.751 280.776 156.946 280.7 157.123C280.628 157.285 280.521 157.425 280.387 157.531C280.253 157.638 280.097 157.707 279.932 157.732C279.612 157.732 279.284 157.732 278.992 157.732L277.472 157.753L276.512 157.775C276.4 157.77 276.287 157.777 276.176 157.797C276.288 157.806 276.4 157.806 276.512 157.797L277.472 157.818H278.992C279.292 157.818 279.596 157.84 279.948 157.818C280.136 157.791 280.314 157.715 280.469 157.596C280.623 157.477 280.747 157.319 280.832 157.136C280.919 156.938 280.961 156.72 280.952 156.501C280.952 156.289 280.952 156.069 280.952 155.853C280.952 155.421 280.952 154.958 280.952 154.483C280.952 153.537 280.952 152.526 280.952 151.459C280.952 150.392 280.952 149.299 280.952 148.12C280.952 147.541 280.952 146.949 280.952 146.349C280.95 146.014 280.824 145.694 280.604 145.459C280.39 145.263 280.12 145.155 279.84 145.152H276.52C276.38 145.152 276.26 145.152 276.12 145.152C275.98 145.166 275.844 145.21 275.72 145.282C275.462 145.419 275.26 145.655 275.152 145.943C275.102 146.08 275.073 146.226 275.068 146.375V147.597C275.068 149.718 275.068 151.636 275.092 153.252C275.092 154.056 275.092 154.781 275.092 155.412C275.092 155.732 275.092 156.03 275.092 156.302C275.073 156.557 275.102 156.814 275.176 157.058C275.239 157.223 275.335 157.372 275.457 157.492C275.58 157.612 275.725 157.702 275.884 157.753C275.99 157.804 276.104 157.831 276.22 157.831Z" fill="#263238"/>
<path d="M254.488 172.035C254.605 172.045 254.723 172.045 254.84 172.035L255.852 172.057L259.564 172.091L271.812 172.126H275.304C275.862 172.143 276.42 172.126 276.976 172.074C277.515 171.998 278.037 171.817 278.516 171.538C279.407 171.029 280.121 170.221 280.552 169.236C280.908 168.377 281.059 167.435 280.992 166.497C280.992 164.821 280.968 163.473 280.96 162.488C280.96 162.03 280.96 161.667 280.96 161.399C280.962 161.272 280.955 161.145 280.94 161.019C280.929 161.146 280.929 161.273 280.94 161.399C280.94 161.667 280.94 162.03 280.94 162.488C280.94 163.456 280.92 164.821 280.904 166.497C280.947 167.42 280.773 168.34 280.4 169.171C279.978 170.114 279.289 170.886 278.432 171.374C277.971 171.636 277.469 171.806 276.952 171.875C276.405 171.926 275.856 171.942 275.308 171.923H271.816L259.568 171.953L255.856 171.992L254.844 172.014C254.725 172.008 254.606 172.016 254.488 172.035Z" fill="#263238"/>
<path d="M169.792 163.819C169.787 163.862 169.787 163.905 169.792 163.948C169.792 164.048 169.792 164.173 169.792 164.328C169.792 164.678 169.792 165.167 169.772 165.789C169.772 167.085 169.752 168.903 169.74 171.158C169.74 172.29 169.74 173.534 169.74 174.865C169.734 175.224 169.8 175.58 169.933 175.909C170.066 176.237 170.264 176.531 170.512 176.77C170.772 177.022 171.083 177.204 171.42 177.301C171.762 177.387 172.114 177.419 172.464 177.397H181.492L197.892 177.362L202.864 177.327L204.212 177.306H204.564C204.604 177.312 204.644 177.312 204.684 177.306H204.564H204.212L202.864 177.284L197.892 177.245L181.492 177.215H172.464C172.13 177.239 171.795 177.211 171.468 177.133C171.158 177.045 170.872 176.879 170.632 176.649C170.402 176.43 170.218 176.159 170.095 175.855C169.971 175.552 169.91 175.223 169.916 174.891C169.916 173.56 169.916 172.299 169.916 171.184C169.916 168.929 169.892 167.098 169.884 165.815C169.884 165.192 169.884 164.704 169.864 164.354C169.864 164.199 169.864 164.074 169.864 163.974C169.848 163.919 169.824 163.866 169.792 163.819Z" fill="#263238"/>
<path d="M31.5919 151.848H94.512V174.156H31.5919V151.848Z" fill="#744C9D"/>
<path opacity="0.3" d="M31.5919 151.848H94.512V174.156H31.5919V151.848Z" fill="black"/>
<path d="M162.876 98.7941L115.128 99.2649C115.128 99.2649 109.6 98.7422 106.308 104.112C104.464 107.136 85.6319 127.349 85.6319 127.349C85.6319 127.349 54.2199 129.73 44.2359 131.699C34.2519 133.669 24.9559 136.451 23.9239 141.238C22.8919 146.025 23.9239 163.11 23.9239 163.11H36.4559C36.4559 163.11 40.1399 153.226 56.4559 154.47C72.7719 155.714 77.1479 177.695 77.1479 177.695L168.64 177.297V134.235L165.488 101.304C165.421 100.609 165.116 99.9662 164.633 99.5018C164.149 99.0374 163.523 98.7849 162.876 98.7941Z" fill="#744C9D"/>
<path d="M30.324 179.453V184.373H22.676L21.92 179.453H30.324Z" fill="#263238"/>
<path d="M35.4719 162.527L36.6959 163.598C36.5159 163.356 32.6959 169.789 32.2959 173.681C32.0399 176.183 31.6079 178.649 31.5359 179.915C31.5256 180.142 31.4328 180.355 31.2779 180.509C31.1229 180.662 30.9182 180.744 30.7079 180.736L20.5239 180.464C20.5239 180.464 19.2399 180.723 18.9959 178.101C18.7519 175.478 17.94 166.843 18.36 165.642C19.064 163.629 23.56 164.039 23.56 164.039L23.6279 162.527H35.4719Z" fill="#E0E0E0"/>
<path d="M23.672 143.022C23.672 143.022 28.704 143.022 29.212 143.022C29.972 143.022 31.672 143.117 31.612 146.301C31.552 150.401 31.612 155.913 31.612 155.913C31.612 155.913 32.012 158.894 29.14 158.894C26.596 158.894 23.7 158.894 23.7 158.894C23.7 158.894 23.42 152.055 23.456 149.71C23.48 148.055 23.532 145.459 23.584 144.046C23.6 143.424 23.672 143.022 23.672 143.022Z" fill="#E0E0E0"/>
<path d="M23.572 144.374H28.652C29.114 144.431 29.5395 144.672 29.844 145.052C30.1486 145.431 30.3099 145.92 30.296 146.422C30.356 147.588 30.296 152.69 30.296 152.69H23.496C23.496 152.69 23.468 149.463 23.496 147.787C23.524 146.111 23.572 144.374 23.572 144.374Z" fill="#744C9D"/>
<path d="M30.308 152.69L30.284 155.55C30.2874 155.819 30.2382 156.086 30.1396 156.334C30.041 156.581 29.8952 156.803 29.7117 156.985C29.5282 157.167 29.3112 157.306 29.0749 157.391C28.8385 157.477 28.5881 157.507 28.34 157.481C26.396 157.451 23.656 157.481 23.656 157.481L23.4879 152.682L30.308 152.69Z" fill="white"/>
<path d="M99.8599 123.271L100.924 129.933H96.8999C96.7653 129.933 96.6319 129.905 96.5075 129.85C96.383 129.794 96.2699 129.713 96.1747 129.61C96.0795 129.507 96.0041 129.385 95.9528 129.251C95.9015 129.116 95.8754 128.972 95.8759 128.827C95.8747 128.569 95.9583 128.32 96.1119 128.123C96.8639 127.142 99.1999 124.096 99.8599 123.271Z" fill="#263238"/>
<path d="M137.112 103.632C137.112 103.632 139.66 103.287 139.82 106.903C139.956 109.983 140.22 124.265 140.28 128.408C140.283 128.555 140.258 128.702 140.208 128.84C140.157 128.977 140.082 129.102 139.986 129.208C139.891 129.314 139.776 129.398 139.65 129.456C139.524 129.513 139.389 129.543 139.252 129.544L100.98 129.842C100.808 129.843 100.637 129.806 100.478 129.734C100.319 129.662 100.174 129.557 100.054 129.424C99.9329 129.291 99.838 129.134 99.7745 128.961C99.711 128.787 99.6802 128.602 99.6839 128.416L99.7839 123.876C99.792 123.569 99.8931 123.273 100.072 123.034L113.94 104.458C114.035 104.326 114.156 104.219 114.295 104.144C114.433 104.069 114.585 104.029 114.74 104.026L137.112 103.632Z" fill="#455A64"/>
<path d="M137.112 103.632C137.112 103.632 137.008 103.632 136.808 103.632H135.924L132.516 103.676L119.988 103.874L115.84 103.943H114.748C114.547 103.944 114.35 104 114.176 104.108C114.012 104.221 113.869 104.368 113.756 104.54L112.316 106.466L106.072 114.804L102.7 119.314L100.956 121.647L100.072 122.83C99.9004 123.03 99.7792 123.274 99.72 123.539C99.6847 123.801 99.6687 124.065 99.672 124.33C99.6533 125.355 99.6307 126.39 99.604 127.436V128.222C99.5766 128.501 99.618 128.782 99.724 129.038C99.8356 129.297 100.014 129.516 100.237 129.669C100.46 129.823 100.719 129.903 100.984 129.902L106.96 129.859L129.716 129.673L134.828 129.63L137.276 129.609H138.476H139.064C139.27 129.624 139.477 129.595 139.672 129.522C139.867 129.439 140.036 129.298 140.161 129.117C140.286 128.935 140.362 128.72 140.38 128.494C140.38 128.062 140.38 127.669 140.38 127.258C140.36 126.446 140.344 125.651 140.324 124.874C140.289 123.313 140.256 121.818 140.224 120.39C140.088 114.683 139.976 110.065 139.9 106.864C139.885 106.148 139.712 105.446 139.396 104.816C139.145 104.363 138.768 104.007 138.32 103.797C138.045 103.67 137.751 103.598 137.452 103.585C137.352 103.574 137.252 103.574 137.152 103.585C137.252 103.577 137.352 103.577 137.452 103.585C137.745 103.606 138.032 103.682 138.3 103.81C138.736 104.023 139.1 104.378 139.34 104.825C139.646 105.447 139.811 106.138 139.82 106.842C139.88 110.043 139.968 114.661 140.076 120.368C140.105 121.808 140.135 123.303 140.164 124.852C140.18 125.63 140.196 126.425 140.212 127.237C140.212 127.639 140.232 128.058 140.232 128.451C140.215 128.641 140.15 128.823 140.043 128.975C139.937 129.128 139.793 129.245 139.628 129.315C139.453 129.376 139.268 129.4 139.084 129.384H138.492H137.292H134.844L129.736 129.418L106.98 129.587L101.004 129.634C100.778 129.631 100.557 129.559 100.368 129.426C100.178 129.293 100.027 129.104 99.932 128.883C99.8401 128.656 99.8043 128.408 99.828 128.161V127.375C99.852 126.335 99.8747 125.3 99.896 124.269C99.8924 124.021 99.9058 123.772 99.936 123.526C99.9888 123.293 100.096 123.079 100.248 122.904L101.112 121.824L102.852 119.491L106.224 114.972L112.448 106.622L113.884 104.691C114.284 103.93 115.144 104.194 115.844 104.129L119.996 104.043L132.52 103.771L135.924 103.684L136.812 103.658L137.112 103.632Z" fill="#263238"/>
<path d="M112.644 106.203L112.976 129.591L110.304 129.889V109.335L112.644 106.203Z" fill="#263238"/>
<path d="M147.78 103.624L149.38 129.19C152.488 128.921 155.577 128.45 158.632 127.777C159.724 127.485 160.794 127.103 161.832 126.632C162.693 126.211 163.41 125.51 163.885 124.627C164.36 123.744 164.568 122.724 164.48 121.707L163.164 106.22C163.156 105.543 162.907 104.896 162.468 104.413C162.029 103.931 161.434 103.649 160.808 103.628L147.78 103.624Z" fill="#455A64"/>
<path d="M147.78 103.624H147.976H148.54H150.68L158.512 103.667C159.332 103.667 160.212 103.667 161.092 103.697C161.542 103.776 161.962 103.996 162.298 104.329C162.634 104.662 162.873 105.094 162.984 105.572C163.042 105.823 163.075 106.079 163.084 106.337C163.108 106.605 163.128 106.872 163.152 107.145C163.196 107.685 163.244 108.233 163.288 108.795C163.384 109.909 163.481 111.061 163.58 112.251C163.776 114.605 163.98 117.076 164.2 119.642L164.364 121.582C164.43 122.225 164.377 122.875 164.208 123.496C164.035 124.129 163.743 124.717 163.35 125.222C162.957 125.727 162.471 126.14 161.924 126.433C160.901 126.922 159.841 127.316 158.756 127.608C157.68 127.876 156.6 128.084 155.556 128.269C153.428 128.628 151.36 128.883 149.384 129.064L149.488 129.164C149.004 121.703 148.588 115.34 148.288 110.808C148.136 108.549 148.012 106.756 147.932 105.516C147.888 104.903 147.852 104.432 147.828 104.099L147.8 103.732C147.803 103.689 147.803 103.645 147.8 103.602C147.797 103.641 147.797 103.68 147.8 103.719C147.8 103.805 147.8 103.922 147.8 104.073C147.82 104.401 147.844 104.868 147.876 105.468C147.948 106.704 148.052 108.492 148.18 110.739C148.452 115.283 148.832 121.686 149.28 129.177V129.285H149.376C151.376 129.107 153.432 128.853 155.568 128.494C156.632 128.313 157.712 128.105 158.804 127.833C159.344 127.682 159.88 127.509 160.404 127.315C160.951 127.13 161.485 126.907 162.004 126.645C162.861 126.185 163.566 125.451 164.023 124.543C164.48 123.634 164.666 122.596 164.556 121.569C164.5 120.917 164.448 120.273 164.392 119.629C164.172 117.068 163.96 114.597 163.756 112.242C163.656 111.063 163.556 109.918 163.46 108.786C163.412 108.227 163.364 107.679 163.316 107.14C163.296 106.868 163.272 106.6 163.248 106.332C163.238 106.061 163.201 105.791 163.136 105.529C163.015 105.017 162.758 104.555 162.396 104.2C162.034 103.845 161.583 103.613 161.1 103.533C160.176 103.486 159.316 103.533 158.48 103.533L150.62 103.576H148.496H147.948L147.78 103.624Z" fill="#263238"/>
<path d="M107.536 102.475C107.584 102.42 107.643 102.379 107.708 102.353C107.773 102.326 107.843 102.316 107.912 102.324C108.452 102.388 109.808 102.583 109.84 102.894C109.872 103.205 95.4399 121.846 91.1679 127.349C90.8219 127.793 90.3584 128.111 89.8399 128.26C89.3213 128.41 88.7726 128.385 88.2679 128.187L85.6319 127.155L107.536 102.475Z" fill="#455A64"/>
<path d="M107.536 102.475C107.494 102.51 107.455 102.549 107.42 102.591C107.336 102.678 107.228 102.799 107.088 102.95L105.816 104.354C104.708 105.585 103.12 107.378 101.144 109.568L85.5439 127.077L85.4319 127.202L85.5839 127.263C86.5119 127.617 87.4679 128.019 88.4879 128.382C88.94 128.504 89.4138 128.499 89.8635 128.367C90.3133 128.234 90.7239 127.979 91.0559 127.626C91.2759 127.388 91.4559 127.142 91.6359 126.9L93.8519 124.045L98.0399 118.636L105.08 109.447C107.08 106.816 108.68 104.695 109.732 103.166L109.824 103.019C109.848 102.967 109.904 102.889 109.856 102.825C109.785 102.733 109.69 102.667 109.584 102.635C109.41 102.569 109.232 102.517 109.052 102.479C108.72 102.41 108.436 102.371 108.204 102.341C108.033 102.289 107.851 102.289 107.68 102.341C107.622 102.365 107.572 102.407 107.536 102.462C107.582 102.421 107.633 102.388 107.688 102.362C107.855 102.312 108.032 102.312 108.2 102.362C108.428 102.401 108.712 102.445 109.04 102.522C109.217 102.563 109.39 102.618 109.56 102.686C109.648 102.715 109.728 102.771 109.788 102.846C109.816 102.907 109.72 102.993 109.664 103.097C108.6 104.6 106.968 106.708 104.964 109.322L97.8919 118.48C96.5599 120.208 95.1599 122.01 93.7079 123.88L91.4919 126.736C91.2999 126.969 91.1159 127.233 90.9199 127.444C90.7168 127.658 90.4832 127.834 90.2279 127.967C89.7042 128.231 89.1124 128.292 88.5519 128.14C87.5719 127.79 86.5839 127.38 85.6679 127.03L85.7039 127.211L101.244 109.65L105.872 104.389L107.116 102.959L107.432 102.583C107.47 102.55 107.504 102.514 107.536 102.475Z" fill="#263238"/>
<path d="M142.924 138.91C143.348 138.91 143.755 138.728 144.055 138.403C144.355 138.079 144.524 137.64 144.524 137.182C144.524 136.723 144.355 136.284 144.055 135.96C143.755 135.636 143.348 135.454 142.924 135.454C142.5 135.454 142.093 135.636 141.793 135.96C141.492 136.284 141.324 136.723 141.324 137.182C141.324 137.64 141.492 138.079 141.793 138.403C142.093 138.728 142.5 138.91 142.924 138.91Z" fill="#E0E0E0"/>
<path opacity="0.3" d="M133.928 139.303V136.616C133.928 136.157 134.097 135.718 134.397 135.394C134.697 135.07 135.104 134.888 135.528 134.888H139.232C139.656 134.888 140.063 135.07 140.363 135.394C140.663 135.718 140.832 136.157 140.832 136.616V139.303H168.6V142.374H34.256C33.8794 142.374 33.5182 142.213 33.2519 141.925C32.9856 141.637 32.836 141.247 32.836 140.841C32.8355 140.639 32.8718 140.439 32.9429 140.252C33.014 140.066 33.1185 139.896 33.2505 139.753C33.3824 139.611 33.5391 139.497 33.7116 139.42C33.8842 139.343 34.0692 139.303 34.256 139.303H133.928Z" fill="black"/>
<path d="M143.544 145.869C142.914 145.869 142.404 145.318 142.404 144.638C142.404 143.958 142.914 143.407 143.544 143.407C144.174 143.407 144.684 143.958 144.684 144.638C144.684 145.318 144.174 145.869 143.544 145.869Z" fill="#E0E0E0"/>
<path d="M70.116 147.861H77.54C78.0878 147.861 78.532 148.34 78.532 148.932V150.003C78.532 150.595 78.0878 151.075 77.54 151.075H70.116C69.5681 151.075 69.124 150.595 69.124 150.003V148.932C69.124 148.34 69.5681 147.861 70.116 147.861Z" fill="#E0E0E0"/>
<path d="M82.016 176.921H193.552V181.241H82.016V176.921Z" fill="#263238"/>
<path d="M77.7799 177.984L168.628 177.306V162.864L71.5239 162.933L76.7999 177.237C76.8743 177.454 77.0077 177.641 77.1826 177.774C77.3576 177.908 77.5658 177.981 77.7799 177.984Z" fill="#E0E0E0"/>
<path d="M76.088 171.763C76.088 171.824 96.488 171.876 121.688 171.876C146.888 171.876 167.288 171.824 167.288 171.763C167.288 171.703 146.888 171.651 121.688 171.651C96.488 171.651 76.088 171.698 76.088 171.763Z" fill="#263238"/>
<path d="M34.0999 154.755C34.1381 154.735 34.1742 154.71 34.2079 154.682L34.5079 154.449C34.7759 154.25 35.1439 153.913 35.6639 153.554C37.1006 152.493 38.6243 151.576 40.2159 150.815C41.3187 150.297 42.4487 149.848 43.5999 149.472C44.911 149.044 46.2473 148.712 47.5999 148.478C53.8956 147.388 60.3466 148.695 65.8479 152.176C68.093 153.561 70.1543 155.267 71.9759 157.248C73.2035 158.576 74.3162 160.022 75.2999 161.568C75.6639 162.108 75.8919 162.562 76.0759 162.864L76.2759 163.201C76.2988 163.24 76.3242 163.278 76.3519 163.313C76.3383 163.269 76.3194 163.227 76.2959 163.188L76.1119 162.842C75.9399 162.544 75.7119 162.082 75.3679 161.546C74.4071 159.968 73.3059 158.495 72.0799 157.149C71.2352 156.217 70.3389 155.341 69.3959 154.526C68.3049 153.601 67.1569 152.757 65.9599 151.999C60.4317 148.477 53.9353 147.157 47.5999 148.271C46.2309 148.506 44.8783 148.842 43.5519 149.278C42.3986 149.668 41.2685 150.134 40.1679 150.673C38.573 151.446 37.0524 152.386 35.6279 153.481C35.1159 153.852 34.7559 154.202 34.4959 154.41L34.2079 154.66L34.0999 154.755Z" fill="#263238"/>
<path d="M32.0239 180.615V180.576C31.9417 174.389 34.1386 168.42 38.1312 163.983C42.1239 159.545 47.5853 157.002 53.3139 156.913C59.0426 156.824 64.5693 159.197 68.6782 163.509C72.7872 167.821 75.1417 173.719 75.2239 179.906C75.2261 179.926 75.2261 179.947 75.2239 179.967C75.2239 180.01 75.2239 180.053 75.2239 180.096V180.135C75.2649 183.199 74.7468 186.241 73.6991 189.088C72.6515 191.935 71.0948 194.532 69.1181 196.729C67.1413 198.927 64.7831 200.682 62.1782 201.896C59.5732 203.109 56.7725 203.756 53.936 203.8C51.0994 203.845 48.2825 203.285 45.6462 202.154C43.0099 201.022 40.6058 199.341 38.5711 197.206C36.5363 195.071 34.9109 192.524 33.7875 189.711C32.6642 186.897 32.0649 183.873 32.0239 180.809V180.636V180.615Z" fill="#263238"/>
<path d="M67.1079 180.239C67.1472 183.12 66.3945 185.949 64.945 188.368C63.4955 190.787 61.4144 192.687 58.9648 193.829C56.5151 194.97 53.8071 195.301 51.1832 194.781C48.5592 194.26 46.1372 192.91 44.2235 190.903C42.3098 188.895 40.9904 186.32 40.432 183.502C39.8737 180.685 40.1016 177.752 41.0869 175.074C42.0721 172.396 43.7705 170.094 45.9672 168.459C48.1639 166.824 50.7603 165.929 53.4279 165.888C57.0036 165.834 60.4529 167.315 63.018 170.006C65.5832 172.697 67.0542 176.377 67.1079 180.239Z" fill="#E0E0E0"/>
<path d="M53.4279 165.888C57.005 165.833 60.4559 167.314 63.022 170.006C65.5881 172.698 67.0593 176.38 67.1119 180.243L40.1359 180.675C40.1089 178.762 40.4314 176.861 41.0849 175.082C41.7384 173.303 42.7101 171.68 43.9446 170.307C45.179 168.934 46.6519 167.836 48.2791 167.078C49.9063 166.32 51.6559 165.916 53.4279 165.888Z" fill="#E0E0E0"/>
<path d="M64.712 180.278C64.745 182.647 64.1266 184.974 62.9349 186.964C61.7433 188.954 60.032 190.517 58.0175 191.456C56.003 192.396 53.7758 192.669 51.6177 192.24C49.4596 191.812 47.4675 190.703 45.8934 189.052C44.3194 187.401 43.2341 185.283 42.7749 182.965C42.3157 180.648 42.5031 178.236 43.3135 176.034C44.124 173.831 45.5209 171.938 47.3277 170.594C49.1345 169.249 51.27 168.514 53.464 168.48C56.4041 168.434 59.2408 169.651 61.3502 171.863C63.4595 174.076 64.6688 177.103 64.712 180.278Z" fill="#263238"/>
<path d="M58.6159 168.381C58.4999 168.566 54.3999 173.927 54.3999 173.927H52.2639L48.2239 168.877L44.3559 171.746L47.5999 177.608L47.3119 179.336L41.1919 182.701L43.4439 187.752L48.9879 185.384L50.6599 186.443L51.2959 193.925L56.3759 193.553L56.3999 186.525L58.0199 184.965L64.4199 186.896L66.0199 181.66L59.4359 179.479L58.7999 177.552L62.6679 170.757L58.6159 168.381Z" fill="#E0E0E0"/>
<path d="M53.6199 182.792C52.5286 182.792 51.644 181.837 51.644 180.658C51.644 179.479 52.5286 178.524 53.6199 178.524C54.7113 178.524 55.5959 179.479 55.5959 180.658C55.5959 181.837 54.7113 182.792 53.6199 182.792Z" fill="#263238"/>
<path d="M73.9239 169.776C73.9239 169.776 73.9759 169.914 74.0919 170.186L74.5839 171.396C75.0079 172.459 75.6079 174.044 76.3399 176.096L76.6239 176.891C76.6955 177.188 76.8327 177.463 77.0239 177.69C77.1337 177.803 77.2631 177.89 77.4046 177.948C77.546 178.006 77.6968 178.033 77.8479 178.027H78.7599L82.7999 177.984L92.6439 177.945L149.656 177.643L168.628 177.552H168.732V177.444C168.732 160.345 168.708 145.277 168.7 133.937C167.992 126.77 167.424 121.033 167.032 117.089C166.832 115.119 166.68 113.594 166.576 112.558C166.52 112.043 166.48 111.655 166.452 111.387C166.424 111.119 166.4 110.989 166.4 110.989C166.4 110.989 166.4 111.123 166.432 111.387C166.464 111.65 166.488 112.048 166.536 112.562C166.632 113.599 166.772 115.124 166.956 117.098C167.332 121.051 167.876 126.788 168.556 133.946C168.556 145.286 168.556 160.354 168.524 177.453L168.624 177.34L149.648 177.448L92.6359 177.82L82.7879 177.893L78.7519 177.928C78.1439 177.898 77.4839 178.083 77.0799 177.625C76.8911 177.411 76.7537 177.15 76.6799 176.865C76.5786 176.597 76.4826 176.334 76.3919 176.074C75.6479 174.022 75.0359 172.446 74.5999 171.383C74.1639 170.32 73.9239 169.776 73.9239 169.776Z" fill="#263238"/>
<path d="M45.392 142.374C45.392 142.439 65.596 142.486 90.512 142.486C115.428 142.486 135.636 142.439 135.636 142.374C135.636 142.309 115.436 142.262 90.512 142.262C65.588 142.262 45.392 142.314 45.392 142.374Z" fill="#263238"/>
<path d="M151.144 139.367C151.144 139.432 153.944 139.484 157.384 139.484C160.824 139.484 163.624 139.432 163.624 139.367C163.624 139.303 160.824 139.255 157.384 139.255C153.944 139.255 151.144 139.307 151.144 139.367Z" fill="white"/>
<path d="M102.952 139.367C102.952 139.432 108.128 139.484 114.512 139.484C120.896 139.484 126.072 139.432 126.072 139.367C126.072 139.303 120.896 139.255 114.512 139.255C108.128 139.255 102.952 139.307 102.952 139.367Z" fill="white"/>
<path d="M35.44 139.018C35.44 139.078 45.328 139.13 57.524 139.13C69.72 139.13 79.6 139.078 79.6 139.018C79.6 138.957 69.712 138.905 57.508 138.905C45.304 138.905 35.44 138.957 35.44 139.018Z" fill="white"/>
<path d="M23.6559 157.49C23.7363 157.506 23.8181 157.514 23.8999 157.512L24.5999 157.533L27.1839 157.568H28.0399C28.3549 157.584 28.6706 157.572 28.9839 157.533C29.3411 157.457 29.6682 157.265 29.9214 156.982C30.1745 156.7 30.3415 156.34 30.3999 155.952C30.4249 155.752 30.4342 155.549 30.4279 155.347V154.742C30.4279 154.332 30.4279 153.917 30.4279 153.494V148.267C30.4279 147.835 30.4279 147.424 30.4279 147.018C30.4431 146.613 30.4284 146.207 30.3839 145.804C30.3059 145.422 30.1223 145.075 29.8572 144.808C29.5922 144.541 29.2584 144.367 28.8999 144.31C28.5872 144.283 28.2734 144.276 27.9599 144.288H27.1039L24.5239 144.323H23.8199C23.7382 144.323 23.6566 144.331 23.5759 144.344C23.6559 144.364 23.7379 144.372 23.8199 144.37L24.5239 144.392L27.1039 144.426H27.9599C28.2654 144.418 28.5712 144.426 28.8759 144.452C29.1976 144.506 29.4963 144.665 29.7321 144.908C29.968 145.15 30.1298 145.464 30.1959 145.809C30.2347 146.197 30.2468 146.589 30.2319 146.979C30.2319 147.385 30.2319 147.8 30.2319 148.228C30.2319 149.092 30.2319 149.956 30.2319 150.85C30.2319 151.744 30.2319 152.626 30.2319 153.472C30.2319 153.904 30.2319 154.31 30.2319 154.721V155.326C30.2397 155.516 30.233 155.707 30.2119 155.896C30.1615 156.244 30.0137 156.567 29.7885 156.822C29.5633 157.076 29.2714 157.251 28.9519 157.321C28.6506 157.36 28.3471 157.374 28.0439 157.365H27.1999L24.6159 157.404L23.9159 157.425C23.8267 157.433 23.7391 157.454 23.6559 157.49Z" fill="#263238"/>
<path d="M23.6 158.907C23.6975 158.927 23.7968 158.935 23.896 158.933L24.74 158.954L27.852 158.989H28.884C29.262 159.01 29.641 158.992 30.016 158.937C30.4382 158.836 30.822 158.599 31.1169 158.257C31.4118 157.915 31.6039 157.485 31.668 157.023C31.6931 156.782 31.7025 156.54 31.696 156.298V155.568C31.696 155.075 31.696 154.574 31.696 154.064V147.744C31.696 147.234 31.696 146.729 31.696 146.241V145.511C31.7032 145.266 31.6884 145.022 31.652 144.781C31.5664 144.323 31.3549 143.904 31.0451 143.579C30.7353 143.254 30.3418 143.037 29.916 142.957C29.5397 142.92 29.1616 142.91 28.784 142.927H27.752L24.64 142.962H23.796C23.6969 142.957 23.5976 142.964 23.5 142.983C23.5976 143.003 23.6969 143.01 23.796 143.005L24.64 143.027L27.752 143.061H28.784C29.1524 143.05 29.521 143.063 29.888 143.1C30.2765 143.177 30.6346 143.378 30.9157 143.678C31.1967 143.978 31.3878 144.362 31.464 144.781C31.5026 145.253 31.5147 145.728 31.5 146.202C31.5 146.69 31.5 147.195 31.5 147.705C31.5 148.725 31.5 149.783 31.5 150.863C31.5 151.943 31.5 153.023 31.5 154.025C31.5 154.535 31.5 155.036 31.5 155.529V156.259C31.5084 156.491 31.5004 156.723 31.476 156.954C31.4197 157.376 31.2467 157.77 30.9799 158.085C30.713 158.399 30.3646 158.62 29.98 158.717C29.6171 158.772 29.2502 158.791 28.884 158.773H27.852L24.74 158.808L23.896 158.829C23.7959 158.848 23.697 158.874 23.6 158.907Z" fill="#263238"/>
<path d="M23.4959 152.664C25.7391 152.814 27.9887 152.814 30.2319 152.664C27.9887 152.515 25.7391 152.515 23.4959 152.664Z" fill="#263238"/>
<path opacity="0.3" d="M29.924 152.306L23.96 144.763H28.128C28.6085 144.763 29.0694 144.969 29.4092 145.336C29.749 145.703 29.9399 146.201 29.9399 146.72L29.924 152.306Z" fill="white"/>
<path d="M35.928 164.004C35.928 163.944 32.984 163.892 29.352 163.892C25.72 163.892 22.776 163.944 22.776 164.004C22.776 164.065 25.72 164.117 29.352 164.117C32.984 164.117 35.928 164.069 35.928 164.004Z" fill="#263238"/>
<path d="M77.2839 177.409C75.2559 171.724 71.6639 164.588 67.2839 160.747C62.9039 156.907 57.3159 154.561 51.6839 154.755C48.8495 154.876 46.0759 155.679 43.5658 157.106C41.0556 158.532 38.8725 160.547 37.1759 163.002C37.0113 163.299 36.7766 163.544 36.4959 163.711C36.2936 163.802 36.0703 163.825 35.8559 163.775C35.6414 163.726 35.446 163.607 35.2959 163.434C35.2238 163.26 35.1909 163.07 35.1999 162.879C35.2089 162.688 35.2597 162.502 35.3479 162.337C36.8639 158.324 40.7839 155.447 44.5479 153.93C48.622 152.393 52.9847 151.967 57.2479 152.69C66.4879 154.418 73.6159 161.33 77.0559 170.765" fill="#E0E0E0"/>
<path d="M112.512 102.259H113.004L114.448 102.233L120 102.112L140.616 101.645C141.168 101.675 141.705 101.843 142.186 102.137C142.667 102.431 143.077 102.843 143.384 103.339C143.705 103.854 143.903 104.448 143.96 105.067C144.008 105.689 144.036 106.337 144.076 106.98C144.225 109.572 144.379 112.264 144.536 115.055C144.856 120.649 145.196 126.641 145.556 132.974C145.556 145.67 145.556 159.732 145.556 174.662L145.66 174.55L129.848 174.597L91.984 174.714L92.076 174.783C90.6672 170.664 89.6761 166.393 89.12 162.043C88.5946 157.978 88.314 153.879 88.28 149.774C88.252 147.8 88.28 145.865 88.344 143.973C88.408 142.08 88.404 140.219 88.744 138.456C89.0654 136.733 89.5272 135.045 90.124 133.41C90.6759 131.854 91.3144 130.335 92.036 128.861L112.504 102.259C112.504 102.259 112.372 102.406 112.124 102.691L111.052 104.043L106.972 109.296C103.428 113.875 98.3 120.528 91.932 128.736C91.2015 130.225 90.5562 131.762 90 133.337C89.3973 134.982 88.9289 136.68 88.6 138.413C88.504 138.845 88.464 139.307 88.396 139.761C88.328 140.214 88.312 140.681 88.292 141.143C88.252 142.068 88.208 143.005 88.18 143.951C88.116 145.848 88.084 147.783 88.108 149.761C88.1378 153.875 88.4144 157.982 88.936 162.056C89.4943 166.422 90.4867 170.711 91.896 174.848L91.92 174.917H92L129.864 174.809L145.676 174.761H145.776V174.649C145.776 159.719 145.776 145.653 145.776 132.957C145.408 126.619 145.06 120.627 144.736 115.033C144.571 112.239 144.412 109.548 144.26 106.959C144.22 106.311 144.196 105.663 144.14 105.036C144.08 104.397 143.873 103.784 143.54 103.252C143.22 102.737 142.793 102.311 142.293 102.006C141.793 101.701 141.234 101.528 140.66 101.498L120 102.034L114.444 102.19L113.004 102.237C112.676 102.246 112.512 102.259 112.512 102.259Z" fill="#263238"/>
<path d="M133.668 137.605H143.756C143.9 137.605 144.039 137.543 144.141 137.433C144.243 137.323 144.3 137.173 144.3 137.017C144.3 136.862 144.243 136.712 144.141 136.602C144.039 136.492 143.9 136.43 143.756 136.43H133.668C133.524 136.43 133.385 136.492 133.283 136.602C133.181 136.712 133.124 136.862 133.124 137.017C133.124 137.095 133.138 137.171 133.165 137.242C133.193 137.314 133.233 137.378 133.283 137.433C133.334 137.487 133.394 137.531 133.46 137.56C133.526 137.59 133.596 137.605 133.668 137.605Z" fill="#E0E0E0"/>
<path d="M133.668 137.605C133.591 137.587 133.516 137.561 133.444 137.527C133.347 137.473 133.269 137.388 133.219 137.284C133.17 137.179 133.152 137.06 133.168 136.944C133.18 136.863 133.208 136.785 133.252 136.718C133.296 136.65 133.353 136.595 133.42 136.555C133.495 136.508 133.581 136.484 133.668 136.486H133.972H135.412L143.756 136.521C143.839 136.52 143.921 136.545 143.992 136.593C144.062 136.64 144.119 136.708 144.156 136.788C144.192 136.867 144.206 136.954 144.199 137.041C144.191 137.128 144.161 137.211 144.112 137.281C144.061 137.352 143.993 137.407 143.916 137.44C143.838 137.473 143.754 137.484 143.672 137.471H143.092H140.876H137.124L134.596 137.51H133.908C133.829 137.507 133.749 137.516 133.672 137.536C133.75 137.552 133.829 137.56 133.908 137.557L134.596 137.579L137.124 137.614L140.876 137.64H143.676C143.79 137.653 143.906 137.635 144.011 137.586C144.117 137.538 144.21 137.461 144.28 137.363C144.353 137.261 144.398 137.139 144.41 137.011C144.422 136.882 144.4 136.753 144.348 136.637C144.295 136.519 144.212 136.42 144.108 136.35C144.005 136.281 143.886 136.244 143.764 136.244L135.42 136.274H133.98H133.676C133.572 136.277 133.47 136.308 133.38 136.365C133.302 136.415 133.236 136.483 133.187 136.564C133.137 136.646 133.106 136.739 133.096 136.836C133.081 136.967 133.106 137.099 133.167 137.213C133.227 137.328 133.32 137.418 133.432 137.471C133.494 137.544 133.577 137.591 133.668 137.605Z" fill="#263238"/>
<path d="M134.472 139.627C134.687 139.83 134.935 139.988 135.204 140.093C136.477 140.698 137.908 140.793 139.24 140.361C139.519 140.294 139.783 140.168 140.016 139.99C139.108 140.282 138.163 140.418 137.216 140.391C135.632 140.301 134.5 139.536 134.472 139.627Z" fill="#263238"/>
<path d="M163.536 102.263C163.536 102.203 158.892 102.151 153.164 102.151C147.436 102.151 142.788 102.203 142.788 102.263C142.788 102.324 147.432 102.375 153.164 102.375C158.896 102.375 163.536 102.328 163.536 102.263Z" fill="#263238"/>
<path d="M119.532 116.428C119.5 116.48 121.652 118.156 124.332 120.152C127.012 122.148 129.22 123.742 129.252 123.69C129.284 123.638 127.136 121.962 124.452 119.966C121.768 117.971 119.564 116.377 119.532 116.428Z" fill="white"/>
<path d="M119.14 111.383C119.104 111.434 122.136 113.901 125.908 116.895C129.68 119.889 132.764 122.256 132.8 122.226C132.836 122.195 129.804 119.707 126.032 116.713C122.26 113.72 119.172 111.335 119.14 111.383Z" fill="white"/>
<path d="M152.088 116.549C152.056 116.601 153.888 117.923 156.18 119.504C158.472 121.085 160.36 122.321 160.4 122.256C160.44 122.191 158.596 120.878 156.3 119.301C154.004 117.724 152.116 116.497 152.088 116.549Z" fill="white"/>
<path d="M152.772 113.4C153.87 114.341 155.012 115.222 156.192 116.039C158.116 117.443 159.7 118.541 159.732 118.489C159.764 118.437 158.232 117.258 156.312 115.854C154.392 114.45 152.8 113.348 152.772 113.4Z" fill="white"/>
<path d="M101.564 124.049C101.564 124.088 97.7359 127.803 97.7359 127.803L98.7279 129.6L102.956 126.831L101.564 124.049Z" fill="#263238"/>
<path d="M103.976 121.344H107.416C109.422 121.344 111.048 123.101 111.048 125.267C111.048 127.433 109.422 129.19 107.416 129.19H103.976C101.97 129.19 100.344 127.433 100.344 125.267C100.344 123.101 101.97 121.344 103.976 121.344Z" fill="#744C9D"/>
<path d="M103.976 129.19C103.591 129.155 103.212 129.073 102.844 128.948C102.417 128.788 102.022 128.542 101.68 128.222C101.229 127.802 100.881 127.268 100.668 126.667C100.39 125.885 100.357 125.027 100.573 124.223C100.79 123.42 101.245 122.715 101.868 122.217C102.227 121.929 102.635 121.718 103.068 121.595C103.52 121.474 103.987 121.427 104.452 121.457H107.444C108.304 121.462 109.132 121.804 109.776 122.42C110.419 123.036 110.833 123.884 110.941 124.805C111.049 125.726 110.842 126.658 110.361 127.428C109.88 128.197 109.156 128.751 108.324 128.987C107.737 129.114 107.138 129.162 106.54 129.129H105.172L104.308 129.151C104.206 129.149 104.104 129.156 104.004 129.172C104.104 129.192 104.206 129.201 104.308 129.198H105.172L106.54 129.22H107.396C107.721 129.223 108.044 129.182 108.36 129.099C109.146 128.885 109.845 128.398 110.351 127.714C110.857 127.03 111.141 126.186 111.16 125.31C111.171 124.774 111.082 124.241 110.9 123.743C110.718 123.244 110.445 122.789 110.099 122.406C109.752 122.022 109.338 121.717 108.881 121.508C108.423 121.299 107.932 121.191 107.436 121.189H104.444C103.961 121.161 103.477 121.212 103.008 121.34C102.346 121.526 101.745 121.906 101.272 122.438C100.798 122.97 100.47 123.634 100.324 124.355C100.178 125.076 100.22 125.827 100.445 126.524C100.671 127.221 101.07 127.837 101.6 128.304C102.189 128.821 102.914 129.123 103.672 129.168C103.772 129.188 103.874 129.195 103.976 129.19Z" fill="#263238"/>
<path d="M26.056 180.658C26.2448 180.694 26.4363 180.711 26.628 180.71L28.188 180.779L30.508 180.848H30.84C30.9633 180.865 31.0885 180.855 31.208 180.818C31.3382 180.771 31.4519 180.682 31.5341 180.563C31.6163 180.444 31.663 180.301 31.668 180.153C31.692 179.643 31.72 179.111 31.764 178.571C31.9099 176.726 32.1597 174.893 32.512 173.081C32.644 172.385 32.768 171.824 32.852 171.435C32.9055 171.236 32.9429 171.032 32.964 170.826C32.8817 171.014 32.8174 171.211 32.772 171.413C32.668 171.798 32.52 172.351 32.372 173.046C31.9797 174.858 31.7123 176.699 31.572 178.554C31.528 179.098 31.5 179.63 31.48 180.14C31.478 180.245 31.4463 180.346 31.3891 180.431C31.3318 180.516 31.2519 180.58 31.16 180.615C31.0608 180.642 30.958 180.651 30.856 180.641H30.528H28.212H26.648C26.4506 180.626 26.2523 180.631 26.056 180.658Z" fill="#263238"/>
</svg>
