<svg width="16" height="16" viewBox="0 0 16 16" fill="none" xmlns="http://www.w3.org/2000/svg">
<path d="M13.9856 9.3806C14.0013 9.44437 14.0043 9.51061 13.9943 9.57553C13.9844 9.64045 13.9618 9.70279 13.9278 9.75897C13.8938 9.81515 13.849 9.86408 13.7961 9.90297C13.7432 9.94185 13.6831 9.96993 13.6194 9.9856L12.0794 10.3606L12.4831 11.8675C12.5001 11.9309 12.5045 11.9971 12.4959 12.0622C12.4873 12.1273 12.466 12.1901 12.4331 12.247C12.4003 12.3039 12.3565 12.3537 12.3044 12.3937C12.2523 12.4337 12.1928 12.463 12.1294 12.48C12.0873 12.4921 12.0438 12.4988 12 12.5C11.89 12.4999 11.7831 12.4635 11.6959 12.3965C11.6086 12.3295 11.5459 12.2356 11.5175 12.1293L11.035 10.3293L8.49998 8.86622V11.7931L9.85373 13.1462C9.90018 13.1927 9.93703 13.2478 9.96217 13.3085C9.98731 13.3692 10.0003 13.4343 10.0003 13.5C10.0003 13.5657 9.98731 13.6307 9.96217 13.6914C9.93703 13.7521 9.90018 13.8073 9.85373 13.8537C9.80727 13.9002 9.75212 13.937 9.69142 13.9622C9.63073 13.9873 9.56567 14.0003 9.49998 14.0003C9.43428 14.0003 9.36922 13.9873 9.30853 13.9622C9.24783 13.937 9.19268 13.9002 9.14623 13.8537L7.99998 12.7068L6.85373 13.8537C6.80727 13.9002 6.75212 13.937 6.69142 13.9622C6.63073 13.9873 6.56567 14.0003 6.49998 14.0003C6.43428 14.0003 6.36922 13.9873 6.30853 13.9622C6.24783 13.937 6.19268 13.9002 6.14623 13.8537C6.09977 13.8073 6.06292 13.7521 6.03778 13.6914C6.01264 13.6307 5.9997 13.5657 5.9997 13.5C5.9997 13.4343 6.01264 13.3692 6.03778 13.3085C6.06292 13.2478 6.09977 13.1927 6.14623 13.1462L7.49998 11.7931V8.86622L4.9656 10.3293L4.4831 12.1293C4.45461 12.2357 4.39182 12.3297 4.30446 12.3967C4.21711 12.4637 4.11008 12.5 3.99998 12.5C3.9561 12.4999 3.91241 12.4942 3.86998 12.4831C3.80652 12.4661 3.74703 12.4368 3.69491 12.3968C3.64278 12.3569 3.59905 12.307 3.5662 12.2501C3.53334 12.1933 3.51202 12.1305 3.50345 12.0653C3.49487 12.0002 3.49922 11.934 3.51623 11.8706L3.91998 10.3637L2.37998 9.98872C2.25118 9.95706 2.14024 9.87554 2.07155 9.76208C2.00287 9.64862 1.98207 9.51252 2.01373 9.38372C2.04539 9.25493 2.12691 9.14398 2.24037 9.0753C2.35383 9.00661 2.48993 8.98581 2.61873 9.01747L4.45935 9.46935L6.99998 7.99997L4.45998 6.53372L2.61935 6.9856C2.5803 6.99527 2.54021 7.00009 2.49998 6.99997C2.37772 7.00006 2.25967 6.95535 2.16814 6.87429C2.07662 6.79324 2.01796 6.68146 2.00326 6.56009C1.98856 6.43872 2.01884 6.31617 2.08837 6.21561C2.1579 6.11505 2.26186 6.04345 2.3806 6.01435L3.9206 5.63935L3.51685 4.12935C3.48254 4.00121 3.50053 3.8647 3.56687 3.74983C3.63321 3.63497 3.74247 3.55116 3.8706 3.51685C3.99873 3.48254 4.13525 3.50053 4.25012 3.56687C4.36498 3.63321 4.44879 3.74247 4.4831 3.8706L4.9656 5.6706L7.49998 7.13372V4.20685L6.14623 2.85372C6.05241 2.7599 5.9997 2.63265 5.9997 2.49997C5.9997 2.43428 6.01264 2.36922 6.03778 2.30852C6.06292 2.24783 6.09977 2.19268 6.14623 2.14622C6.19268 2.09977 6.24783 2.06292 6.30853 2.03778C6.36922 2.01263 6.43428 1.99969 6.49998 1.99969C6.63266 1.99969 6.75991 2.0524 6.85373 2.14622L7.99998 3.2931L9.14623 2.14622C9.24005 2.0524 9.36729 1.99969 9.49998 1.99969C9.63266 1.99969 9.75991 2.0524 9.85373 2.14622C9.94755 2.24004 10.0003 2.36729 10.0003 2.49997C10.0003 2.63265 9.94755 2.7599 9.85373 2.85372L8.49998 4.20685V7.13372L11.0344 5.6706L11.5169 3.8706C11.5512 3.74247 11.635 3.63321 11.7498 3.56687C11.8647 3.50053 12.0012 3.48254 12.1294 3.51685C12.2575 3.55116 12.3667 3.63497 12.4331 3.74983C12.4994 3.8647 12.5174 4.00121 12.4831 4.12935L12.0794 5.63622L13.6194 6.01122C13.7414 6.03729 13.8493 6.10806 13.9218 6.20963C13.9944 6.3112 14.0263 6.43622 14.0113 6.56013C13.9964 6.68403 13.9356 6.79787 13.841 6.87926C13.7464 6.96064 13.6247 7.0037 13.5 6.99997C13.4597 7.00009 13.4197 6.99527 13.3806 6.9856L11.54 6.53372L8.99998 7.99997L11.54 9.46622L13.3806 9.01435C13.4444 8.99866 13.5106 8.99569 13.5755 9.00561C13.6405 9.01552 13.7028 9.03813 13.759 9.07214C13.8152 9.10615 13.8641 9.1509 13.903 9.20383C13.9419 9.25675 13.9699 9.31682 13.9856 9.3806Z" fill="#9A9A9A"/>
<path d="M13.9856 9.3806C14.0013 9.44437 14.0043 9.51061 13.9943 9.57553C13.9844 9.64045 13.9618 9.70279 13.9278 9.75897C13.8938 9.81515 13.849 9.86408 13.7961 9.90297C13.7432 9.94185 13.6831 9.96993 13.6194 9.9856L12.0794 10.3606L12.4831 11.8675C12.5001 11.9309 12.5045 11.9971 12.4959 12.0622C12.4873 12.1273 12.466 12.1901 12.4331 12.247C12.4003 12.3039 12.3565 12.3537 12.3044 12.3937C12.2523 12.4337 12.1928 12.463 12.1294 12.48C12.0873 12.4921 12.0438 12.4988 12 12.5C11.89 12.4999 11.7831 12.4635 11.6959 12.3965C11.6086 12.3295 11.5459 12.2356 11.5175 12.1293L11.035 10.3293L8.49998 8.86622V11.7931L9.85373 13.1462C9.90018 13.1927 9.93703 13.2478 9.96217 13.3085C9.98731 13.3692 10.0003 13.4343 10.0003 13.5C10.0003 13.5657 9.98731 13.6307 9.96217 13.6914C9.93703 13.7521 9.90018 13.8073 9.85373 13.8537C9.80727 13.9002 9.75212 13.937 9.69142 13.9622C9.63073 13.9873 9.56567 14.0003 9.49998 14.0003C9.43428 14.0003 9.36922 13.9873 9.30853 13.9622C9.24783 13.937 9.19268 13.9002 9.14623 13.8537L7.99998 12.7068L6.85373 13.8537C6.80727 13.9002 6.75212 13.937 6.69142 13.9622C6.63073 13.9873 6.56567 14.0003 6.49998 14.0003C6.43428 14.0003 6.36922 13.9873 6.30853 13.9622C6.24783 13.937 6.19268 13.9002 6.14623 13.8537C6.09977 13.8073 6.06292 13.7521 6.03778 13.6914C6.01264 13.6307 5.9997 13.5657 5.9997 13.5C5.9997 13.4343 6.01264 13.3692 6.03778 13.3085C6.06292 13.2478 6.09977 13.1927 6.14623 13.1462L7.49998 11.7931V8.86622L4.9656 10.3293L4.4831 12.1293C4.45461 12.2357 4.39182 12.3297 4.30446 12.3967C4.21711 12.4637 4.11008 12.5 3.99998 12.5C3.9561 12.4999 3.91241 12.4942 3.86998 12.4831C3.80652 12.4661 3.74703 12.4368 3.69491 12.3968C3.64278 12.3569 3.59905 12.307 3.5662 12.2501C3.53334 12.1933 3.51202 12.1305 3.50345 12.0653C3.49487 12.0002 3.49922 11.934 3.51623 11.8706L3.91998 10.3637L2.37998 9.98872C2.25118 9.95706 2.14024 9.87554 2.07155 9.76208C2.00287 9.64862 1.98207 9.51252 2.01373 9.38372C2.04539 9.25493 2.12691 9.14398 2.24037 9.0753C2.35383 9.00661 2.48993 8.98581 2.61873 9.01747L4.45935 9.46935L6.99998 7.99997L4.45998 6.53372L2.61935 6.9856C2.5803 6.99527 2.54021 7.00009 2.49998 6.99997C2.37772 7.00006 2.25967 6.95535 2.16814 6.87429C2.07662 6.79324 2.01796 6.68146 2.00326 6.56009C1.98856 6.43872 2.01884 6.31617 2.08837 6.21561C2.1579 6.11505 2.26186 6.04345 2.3806 6.01435L3.9206 5.63935L3.51685 4.12935C3.48254 4.00121 3.50053 3.8647 3.56687 3.74983C3.63321 3.63497 3.74247 3.55116 3.8706 3.51685C3.99873 3.48254 4.13525 3.50053 4.25012 3.56687C4.36498 3.63321 4.44879 3.74247 4.4831 3.8706L4.9656 5.6706L7.49998 7.13372V4.20685L6.14623 2.85372C6.05241 2.7599 5.9997 2.63265 5.9997 2.49997C5.9997 2.43428 6.01264 2.36922 6.03778 2.30852C6.06292 2.24783 6.09977 2.19268 6.14623 2.14622C6.19268 2.09977 6.24783 2.06292 6.30853 2.03778C6.36922 2.01263 6.43428 1.99969 6.49998 1.99969C6.63266 1.99969 6.75991 2.0524 6.85373 2.14622L7.99998 3.2931L9.14623 2.14622C9.24005 2.0524 9.36729 1.99969 9.49998 1.99969C9.63266 1.99969 9.75991 2.0524 9.85373 2.14622C9.94755 2.24004 10.0003 2.36729 10.0003 2.49997C10.0003 2.63265 9.94755 2.7599 9.85373 2.85372L8.49998 4.20685V7.13372L11.0344 5.6706L11.5169 3.8706C11.5512 3.74247 11.635 3.63321 11.7498 3.56687C11.8647 3.50053 12.0012 3.48254 12.1294 3.51685C12.2575 3.55116 12.3667 3.63497 12.4331 3.74983C12.4994 3.8647 12.5174 4.00121 12.4831 4.12935L12.0794 5.63622L13.6194 6.01122C13.7414 6.03729 13.8493 6.10806 13.9218 6.20963C13.9944 6.3112 14.0263 6.43622 14.0113 6.56013C13.9964 6.68403 13.9356 6.79787 13.841 6.87926C13.7464 6.96064 13.6247 7.0037 13.5 6.99997C13.4597 7.00009 13.4197 6.99527 13.3806 6.9856L11.54 6.53372L8.99998 7.99997L11.54 9.46622L13.3806 9.01435C13.4444 8.99866 13.5106 8.99569 13.5755 9.00561C13.6405 9.01552 13.7028 9.03813 13.759 9.07214C13.8152 9.10615 13.8641 9.1509 13.903 9.20383C13.9419 9.25675 13.9699 9.31682 13.9856 9.3806Z" fill="#744C9D" fill-opacity="0.15"/>
</svg>
