<svg width="25" height="24" viewBox="0 0 25 24" fill="none" xmlns="http://www.w3.org/2000/svg">
<path d="M12.5 2.25C10.5716 2.25 8.68657 2.82183 7.08319 3.89317C5.47982 4.96451 4.23013 6.48726 3.49218 8.26884C2.75422 10.0504 2.56114 12.0108 2.93735 13.9021C3.31355 15.7934 4.24215 17.5307 5.60571 18.8943C6.96928 20.2579 8.70656 21.1865 10.5979 21.5627C12.4892 21.9389 14.4496 21.7458 16.2312 21.0078C18.0127 20.2699 19.5355 19.0202 20.6068 17.4168C21.6782 15.8134 22.25 13.9284 22.25 12C22.2473 9.41498 21.2192 6.93661 19.3913 5.10872C17.5634 3.28084 15.085 2.25273 12.5 2.25ZM12.5 20.25C10.8683 20.25 9.27326 19.7661 7.91655 18.8596C6.55984 17.9531 5.50242 16.6646 4.878 15.1571C4.25358 13.6496 4.0902 11.9908 4.40853 10.3905C4.72685 8.79016 5.51259 7.32015 6.66637 6.16637C7.82016 5.01259 9.29017 4.22685 10.8905 3.90852C12.4909 3.59019 14.1497 3.75357 15.6571 4.37799C17.1646 5.00242 18.4531 6.05984 19.3596 7.41655C20.2661 8.77325 20.75 10.3683 20.75 12C20.7475 14.1873 19.8775 16.2843 18.3309 17.8309C16.7843 19.3775 14.6873 20.2475 12.5 20.25ZM9.5 12C9.5 12.6296 9.69812 13.2433 10.0663 13.7541C10.4344 14.2649 10.954 14.6469 11.5513 14.8461C12.1487 15.0452 12.7935 15.0513 13.3945 14.8635C13.9955 14.6758 14.5222 14.3037 14.9 13.8C15.0195 13.6409 15.1973 13.5357 15.3943 13.5077C15.5913 13.4796 15.7913 13.531 15.9505 13.6505C16.1096 13.7699 16.2148 13.9477 16.2428 14.1447C16.2708 14.3417 16.2195 14.5418 16.1 14.7009C15.5332 15.4563 14.7431 16.0142 13.8416 16.2956C12.9402 16.577 11.973 16.5676 11.0771 16.2689C10.1813 15.9701 9.40208 15.3971 8.84995 14.631C8.29781 13.8648 8.00071 12.9444 8.00071 12C8.00071 11.0556 8.29781 10.1352 8.84995 9.36904C9.40208 8.60289 10.1813 8.02986 11.0771 7.73111C11.973 7.43236 12.9402 7.42302 13.8416 7.70443C14.7431 7.98583 15.5332 8.54371 16.1 9.29906C16.1592 9.37786 16.2022 9.46753 16.2267 9.56296C16.2512 9.6584 16.2567 9.75772 16.2428 9.85527C16.2289 9.95281 16.196 10.0467 16.1458 10.1315C16.0956 10.2163 16.0293 10.2904 15.9505 10.3495C15.8717 10.4087 15.782 10.4517 15.6866 10.4762C15.5911 10.5007 15.4918 10.5062 15.3943 10.4923C15.2967 10.4784 15.2029 10.4455 15.1181 10.3953C15.0333 10.3452 14.9592 10.2788 14.9 10.2C14.5222 9.69628 13.9955 9.3242 13.3945 9.13646C12.7935 8.94872 12.1487 8.95484 11.5513 9.15395C10.954 9.35306 10.4344 9.73507 10.0663 10.2459C9.69812 10.7567 9.5 11.3704 9.5 12Z" fill="white"/>
<path d="M12.5 2.25C10.5716 2.25 8.68657 2.82183 7.08319 3.89317C5.47982 4.96451 4.23013 6.48726 3.49218 8.26884C2.75422 10.0504 2.56114 12.0108 2.93735 13.9021C3.31355 15.7934 4.24215 17.5307 5.60571 18.8943C6.96928 20.2579 8.70656 21.1865 10.5979 21.5627C12.4892 21.9389 14.4496 21.7458 16.2312 21.0078C18.0127 20.2699 19.5355 19.0202 20.6068 17.4168C21.6782 15.8134 22.25 13.9284 22.25 12C22.2473 9.41498 21.2192 6.93661 19.3913 5.10872C17.5634 3.28084 15.085 2.25273 12.5 2.25ZM12.5 20.25C10.8683 20.25 9.27326 19.7661 7.91655 18.8596C6.55984 17.9531 5.50242 16.6646 4.878 15.1571C4.25358 13.6496 4.0902 11.9908 4.40853 10.3905C4.72685 8.79016 5.51259 7.32015 6.66637 6.16637C7.82016 5.01259 9.29017 4.22685 10.8905 3.90852C12.4909 3.59019 14.1497 3.75357 15.6571 4.37799C17.1646 5.00242 18.4531 6.05984 19.3596 7.41655C20.2661 8.77325 20.75 10.3683 20.75 12C20.7475 14.1873 19.8775 16.2843 18.3309 17.8309C16.7843 19.3775 14.6873 20.2475 12.5 20.25ZM9.5 12C9.5 12.6296 9.69812 13.2433 10.0663 13.7541C10.4344 14.2649 10.954 14.6469 11.5513 14.8461C12.1487 15.0452 12.7935 15.0513 13.3945 14.8635C13.9955 14.6758 14.5222 14.3037 14.9 13.8C15.0195 13.6409 15.1973 13.5357 15.3943 13.5077C15.5913 13.4796 15.7913 13.531 15.9505 13.6505C16.1096 13.7699 16.2148 13.9477 16.2428 14.1447C16.2708 14.3417 16.2195 14.5418 16.1 14.7009C15.5332 15.4563 14.7431 16.0142 13.8416 16.2956C12.9402 16.577 11.973 16.5676 11.0771 16.2689C10.1813 15.9701 9.40208 15.3971 8.84995 14.631C8.29781 13.8648 8.00071 12.9444 8.00071 12C8.00071 11.0556 8.29781 10.1352 8.84995 9.36904C9.40208 8.60289 10.1813 8.02986 11.0771 7.73111C11.973 7.43236 12.9402 7.42302 13.8416 7.70443C14.7431 7.98583 15.5332 8.54371 16.1 9.29906C16.1592 9.37786 16.2022 9.46753 16.2267 9.56296C16.2512 9.6584 16.2567 9.75772 16.2428 9.85527C16.2289 9.95281 16.196 10.0467 16.1458 10.1315C16.0956 10.2163 16.0293 10.2904 15.9505 10.3495C15.8717 10.4087 15.782 10.4517 15.6866 10.4762C15.5911 10.5007 15.4918 10.5062 15.3943 10.4923C15.2967 10.4784 15.2029 10.4455 15.1181 10.3953C15.0333 10.3452 14.9592 10.2788 14.9 10.2C14.5222 9.69628 13.9955 9.3242 13.3945 9.13646C12.7935 8.94872 12.1487 8.95484 11.5513 9.15395C10.954 9.35306 10.4344 9.73507 10.0663 10.2459C9.69812 10.7567 9.5 11.3704 9.5 12Z" fill="#006B5E" fill-opacity="0.02"/>
</svg>
