<svg width="17" height="17" viewBox="0 0 17 17" fill="none" xmlns="http://www.w3.org/2000/svg">
<path d="M13.6204 6.9537L8.62039 11.9537C8.57395 12.0002 8.5188 12.0371 8.45811 12.0622C8.39741 12.0874 8.33234 12.1003 8.26664 12.1003C8.20093 12.1003 8.13586 12.0874 8.07517 12.0622C8.01447 12.0371 7.95932 12.0002 7.91289 11.9537L2.91289 6.9537C2.81907 6.85988 2.76636 6.73263 2.76636 6.59995C2.76636 6.46727 2.81907 6.34002 2.91289 6.2462C3.00671 6.15238 3.13395 6.09967 3.26664 6.09967C3.39932 6.09967 3.52657 6.15238 3.62039 6.2462L8.26664 10.8931L12.9129 6.2462C12.9593 6.19974 13.0145 6.16289 13.0752 6.13775C13.1359 6.11261 13.2009 6.09967 13.2666 6.09967C13.3323 6.09967 13.3974 6.11261 13.4581 6.13775C13.5188 6.16289 13.5739 6.19974 13.6204 6.2462C13.6668 6.29265 13.7037 6.3478 13.7288 6.4085C13.754 6.4692 13.7669 6.53425 13.7669 6.59995C13.7669 6.66565 13.754 6.7307 13.7288 6.7914C13.7037 6.85209 13.6668 6.90724 13.6204 6.9537Z" fill="black"/>
</svg>
