<svg width="32" height="32" viewBox="0 0 32 32" fill="none" xmlns="http://www.w3.org/2000/svg">
<path d="M16 2.99756C13.4288 2.99756 10.9154 3.76 8.77759 5.18845C6.63975 6.61691 4.97351 8.64723 3.98957 11.0227C3.00563 13.3981 2.74819 16.012 3.2498 18.5337C3.75141 21.0555 4.98953 23.3719 6.80762 25.1899C8.6257 27.008 10.9421 28.2462 13.4638 28.7478C15.9856 29.2494 18.5995 28.9919 20.9749 28.008C23.3503 27.0241 25.3807 25.3578 26.8091 23.22C28.2376 21.0821 29 18.5687 29 15.9976C28.9964 12.5509 27.6256 9.24637 25.1884 6.80919C22.7512 4.37201 19.4467 3.0012 16 2.99756ZM17 26.9513V18.9976H20C20.2652 18.9976 20.5196 18.8922 20.7071 18.7047C20.8946 18.5171 21 18.2628 21 17.9976C21 17.7323 20.8946 17.478 20.7071 17.2905C20.5196 17.1029 20.2652 16.9976 20 16.9976H17V13.9976C17 13.4671 17.2107 12.9584 17.5858 12.5833C17.9609 12.2083 18.4696 11.9976 19 11.9976H21C21.2652 11.9976 21.5196 11.8922 21.7071 11.7047C21.8946 11.5171 22 11.2628 22 10.9976C22 10.7323 21.8946 10.478 21.7071 10.2905C21.5196 10.1029 21.2652 9.99756 21 9.99756H19C17.9391 9.99756 16.9217 10.419 16.1716 11.1691C15.4214 11.9193 15 12.9367 15 13.9976V16.9976H12C11.7348 16.9976 11.4804 17.1029 11.2929 17.2905C11.1054 17.478 11 17.7323 11 17.9976C11 18.2628 11.1054 18.5171 11.2929 18.7047C11.4804 18.8922 11.7348 18.9976 12 18.9976H15V26.9513C12.181 26.694 9.56971 25.3598 7.7093 23.2263C5.8489 21.0927 4.8826 18.3241 5.0114 15.4963C5.1402 12.6685 6.35419 9.99925 8.40085 8.04369C10.4475 6.08813 13.1693 4.99686 16 4.99686C18.8307 4.99686 21.5525 6.08813 23.5992 8.04369C25.6458 9.99925 26.8598 12.6685 26.9886 15.4963C27.1174 18.3241 26.1511 21.0927 24.2907 23.2263C22.4303 25.3598 19.819 26.694 17 26.9513Z" fill="white"/>
<path d="M16 2.99756C13.4288 2.99756 10.9154 3.76 8.77759 5.18845C6.63975 6.61691 4.97351 8.64723 3.98957 11.0227C3.00563 13.3981 2.74819 16.012 3.2498 18.5337C3.75141 21.0555 4.98953 23.3719 6.80762 25.1899C8.6257 27.008 10.9421 28.2462 13.4638 28.7478C15.9856 29.2494 18.5995 28.9919 20.9749 28.008C23.3503 27.0241 25.3807 25.3578 26.8091 23.22C28.2376 21.0821 29 18.5687 29 15.9976C28.9964 12.5509 27.6256 9.24637 25.1884 6.80919C22.7512 4.37201 19.4467 3.0012 16 2.99756ZM17 26.9513V18.9976H20C20.2652 18.9976 20.5196 18.8922 20.7071 18.7047C20.8946 18.5171 21 18.2628 21 17.9976C21 17.7323 20.8946 17.478 20.7071 17.2905C20.5196 17.1029 20.2652 16.9976 20 16.9976H17V13.9976C17 13.4671 17.2107 12.9584 17.5858 12.5833C17.9609 12.2083 18.4696 11.9976 19 11.9976H21C21.2652 11.9976 21.5196 11.8922 21.7071 11.7047C21.8946 11.5171 22 11.2628 22 10.9976C22 10.7323 21.8946 10.478 21.7071 10.2905C21.5196 10.1029 21.2652 9.99756 21 9.99756H19C17.9391 9.99756 16.9217 10.419 16.1716 11.1691C15.4214 11.9193 15 12.9367 15 13.9976V16.9976H12C11.7348 16.9976 11.4804 17.1029 11.2929 17.2905C11.1054 17.478 11 17.7323 11 17.9976C11 18.2628 11.1054 18.5171 11.2929 18.7047C11.4804 18.8922 11.7348 18.9976 12 18.9976H15V26.9513C12.181 26.694 9.56971 25.3598 7.7093 23.2263C5.8489 21.0927 4.8826 18.3241 5.0114 15.4963C5.1402 12.6685 6.35419 9.99925 8.40085 8.04369C10.4475 6.08813 13.1693 4.99686 16 4.99686C18.8307 4.99686 21.5525 6.08813 23.5992 8.04369C25.6458 9.99925 26.8598 12.6685 26.9886 15.4963C27.1174 18.3241 26.1511 21.0927 24.2907 23.2263C22.4303 25.3598 19.819 26.694 17 26.9513Z" fill="#006B5E" fill-opacity="0.02"/>
</svg>
