<svg width="32" height="32" viewBox="0 0 32 32" fill="none" xmlns="http://www.w3.org/2000/svg">
<path d="M16 9.99756C14.8133 9.99756 13.6533 10.3495 12.6666 11.0087C11.6799 11.668 10.9108 12.6051 10.4567 13.7015C10.0026 14.7978 9.88378 16.0042 10.1153 17.1681C10.3468 18.332 10.9182 19.4011 11.7574 20.2402C12.5965 21.0793 13.6656 21.6508 14.8295 21.8823C15.9933 22.1138 17.1997 21.995 18.2961 21.5408C19.3925 21.0867 20.3295 20.3177 20.9888 19.331C21.6481 18.3443 22 17.1842 22 15.9976C21.9983 14.4068 21.3657 12.8816 20.2408 11.7567C19.116 10.6319 17.5908 9.99921 16 9.99756ZM16 19.9976C15.2089 19.9976 14.4355 19.763 13.7777 19.3234C13.1199 18.8839 12.6072 18.2592 12.3045 17.5283C12.0017 16.7974 11.9225 15.9931 12.0769 15.2172C12.2312 14.4413 12.6122 13.7285 13.1716 13.1691C13.731 12.6097 14.4437 12.2288 15.2196 12.0744C15.9956 11.9201 16.7998 11.9993 17.5307 12.302C18.2616 12.6048 18.8864 13.1175 19.3259 13.7753C19.7654 14.4331 20 15.2064 20 15.9976C20 17.0584 19.5786 18.0758 18.8284 18.826C18.0783 19.5761 17.0609 19.9976 16 19.9976ZM22 2.99756H10C8.14409 2.99954 6.36477 3.73768 5.05245 5.05C3.74012 6.36233 3.00199 8.14165 3 9.99756V21.9976C3.00199 23.8535 3.74012 25.6328 5.05245 26.9451C6.36477 28.2574 8.14409 28.9956 10 28.9976H22C23.8559 28.9956 25.6352 28.2574 26.9476 26.9451C28.2599 25.6328 28.998 23.8535 29 21.9976V9.99756C28.998 8.14165 28.2599 6.36233 26.9476 5.05C25.6352 3.73768 23.8559 2.99954 22 2.99756ZM27 21.9976C27 23.3236 26.4732 24.5954 25.5355 25.5331C24.5979 26.4708 23.3261 26.9976 22 26.9976H10C8.67392 26.9976 7.40215 26.4708 6.46447 25.5331C5.52678 24.5954 5 23.3236 5 21.9976V9.99756C5 8.67148 5.52678 7.39971 6.46447 6.46202C7.40215 5.52434 8.67392 4.99756 10 4.99756H22C23.3261 4.99756 24.5979 5.52434 25.5355 6.46202C26.4732 7.39971 27 8.67148 27 9.99756V21.9976ZM24 9.49756C24 9.79423 23.912 10.0842 23.7472 10.3309C23.5824 10.5776 23.3481 10.7698 23.074 10.8834C22.7999 10.9969 22.4983 11.0266 22.2074 10.9687C21.9164 10.9109 21.6491 10.768 21.4393 10.5582C21.2296 10.3484 21.0867 10.0812 21.0288 9.79019C20.9709 9.49922 21.0007 9.19762 21.1142 8.92353C21.2277 8.64944 21.42 8.41518 21.6666 8.25035C21.9133 8.08553 22.2033 7.99756 22.5 7.99756C22.8978 7.99756 23.2794 8.15559 23.5607 8.4369C23.842 8.7182 24 9.09973 24 9.49756Z" fill="white"/>
<path d="M16 9.99756C14.8133 9.99756 13.6533 10.3495 12.6666 11.0087C11.6799 11.668 10.9108 12.6051 10.4567 13.7015C10.0026 14.7978 9.88378 16.0042 10.1153 17.1681C10.3468 18.332 10.9182 19.4011 11.7574 20.2402C12.5965 21.0793 13.6656 21.6508 14.8295 21.8823C15.9933 22.1138 17.1997 21.995 18.2961 21.5408C19.3925 21.0867 20.3295 20.3177 20.9888 19.331C21.6481 18.3443 22 17.1842 22 15.9976C21.9983 14.4068 21.3657 12.8816 20.2408 11.7567C19.116 10.6319 17.5908 9.99921 16 9.99756ZM16 19.9976C15.2089 19.9976 14.4355 19.763 13.7777 19.3234C13.1199 18.8839 12.6072 18.2592 12.3045 17.5283C12.0017 16.7974 11.9225 15.9931 12.0769 15.2172C12.2312 14.4413 12.6122 13.7285 13.1716 13.1691C13.731 12.6097 14.4437 12.2288 15.2196 12.0744C15.9956 11.9201 16.7998 11.9993 17.5307 12.302C18.2616 12.6048 18.8864 13.1175 19.3259 13.7753C19.7654 14.4331 20 15.2064 20 15.9976C20 17.0584 19.5786 18.0758 18.8284 18.826C18.0783 19.5761 17.0609 19.9976 16 19.9976ZM22 2.99756H10C8.14409 2.99954 6.36477 3.73768 5.05245 5.05C3.74012 6.36233 3.00199 8.14165 3 9.99756V21.9976C3.00199 23.8535 3.74012 25.6328 5.05245 26.9451C6.36477 28.2574 8.14409 28.9956 10 28.9976H22C23.8559 28.9956 25.6352 28.2574 26.9476 26.9451C28.2599 25.6328 28.998 23.8535 29 21.9976V9.99756C28.998 8.14165 28.2599 6.36233 26.9476 5.05C25.6352 3.73768 23.8559 2.99954 22 2.99756ZM27 21.9976C27 23.3236 26.4732 24.5954 25.5355 25.5331C24.5979 26.4708 23.3261 26.9976 22 26.9976H10C8.67392 26.9976 7.40215 26.4708 6.46447 25.5331C5.52678 24.5954 5 23.3236 5 21.9976V9.99756C5 8.67148 5.52678 7.39971 6.46447 6.46202C7.40215 5.52434 8.67392 4.99756 10 4.99756H22C23.3261 4.99756 24.5979 5.52434 25.5355 6.46202C26.4732 7.39971 27 8.67148 27 9.99756V21.9976ZM24 9.49756C24 9.79423 23.912 10.0842 23.7472 10.3309C23.5824 10.5776 23.3481 10.7698 23.074 10.8834C22.7999 10.9969 22.4983 11.0266 22.2074 10.9687C21.9164 10.9109 21.6491 10.768 21.4393 10.5582C21.2296 10.3484 21.0867 10.0812 21.0288 9.79019C20.9709 9.49922 21.0007 9.19762 21.1142 8.92353C21.2277 8.64944 21.42 8.41518 21.6666 8.25035C21.9133 8.08553 22.2033 7.99756 22.5 7.99756C22.8978 7.99756 23.2794 8.15559 23.5607 8.4369C23.842 8.7182 24 9.09973 24 9.49756Z" fill="#006B5E" fill-opacity="0.02"/>
</svg>
