  <svg width="16" height="16" viewBox="0 0 16 16" fill="none" xmlns="http://www.w3.org/2000/svg">
                            <path
                                d="M11.3537 8.35372L6.35372 13.3537C6.30727 13.4002 6.25212 13.437 6.19142 13.4622C6.13072 13.4873 6.06567 13.5003 5.99997 13.5003C5.93428 13.5003 5.86922 13.4873 5.80852 13.4622C5.74783 13.437 5.69268 13.4002 5.64622 13.3537C5.59977 13.3073 5.56292 13.2521 5.53778 13.1914C5.51263 13.1307 5.49969 13.0657 5.49969 13C5.49969 12.9343 5.51263 12.8692 5.53778 12.8085C5.56292 12.7478 5.59977 12.6927 5.64622 12.6462L10.2931 7.99997L5.64622 3.35372C5.5524 3.2599 5.49969 3.13265 5.49969 2.99997C5.49969 2.86729 5.5524 2.74004 5.64622 2.64622C5.74004 2.5524 5.86729 2.49969 5.99997 2.49969C6.13265 2.49969 6.2599 2.5524 6.35372 2.64622L11.3537 7.64622C11.4002 7.69266 11.4371 7.7478 11.4623 7.8085C11.4874 7.8692 11.5004 7.93427 11.5004 7.99997C11.5004 8.06568 11.4874 8.13074 11.4623 8.19144C11.4371 8.25214 11.4002 8.30729 11.3537 8.35372Z"
                                fill="#00201B" />
                        </svg>
                   