<svg width="300" height="188" viewBox="0 0 300 188" fill="none" xmlns="http://www.w3.org/2000/svg">
<rect width="300" height="188" fill="white"/>
<rect width="300" height="188" fill="#744C9D" fill-opacity="0.05"/>
<path d="M245.456 73.9179C243.768 58.5019 237.092 47.0151 224.896 38.5739C212.936 30.3019 194.452 26.963 176.376 36.0359C164.076 42.2098 155.64 54.0651 148.576 59.3479C140.844 65.1232 132.352 67.2739 122.536 68.3305C112.908 69.372 102.868 65.9918 93.3 64.5705C83.732 63.1492 72.564 63.4237 64.796 68.8644C57.236 74.1585 51.596 84.3406 53.28 93.0563C54.964 101.772 59.404 110.499 66.856 115.921C74.308 121.343 81.748 128.618 91.552 132.499C108.46 139.778 124.912 142.651 141.808 144.031C158.244 145.369 175.008 144.677 190.868 140.376C206.728 136.074 221.636 127.998 232.304 116.169C242.972 104.34 247.144 89.3451 245.456 73.9179Z" fill="white"/>
<path d="M245.456 73.9179C243.768 58.5019 237.092 47.0151 224.896 38.5739C212.936 30.3019 194.452 26.963 176.376 36.0359C164.076 42.2098 155.64 54.0651 148.576 59.3479C140.844 65.1232 132.352 67.2739 122.536 68.3305C112.908 69.372 102.868 65.9918 93.3 64.5705C83.732 63.1492 72.564 63.4237 64.796 68.8644C57.236 74.1585 51.596 84.3406 53.28 93.0563C54.964 101.772 59.404 110.499 66.856 115.921C74.308 121.343 81.748 128.618 91.552 132.499C108.46 139.778 124.912 142.651 141.808 144.031C158.244 145.369 175.008 144.677 190.868 140.376C206.728 136.074 221.636 127.998 232.304 116.169C242.972 104.34 247.144 89.3451 245.456 73.9179Z" fill="#744C9D" fill-opacity="0.1"/>
<path d="M286.972 155.856C286.972 155.912 225.624 155.954 149.968 155.954C74.312 155.954 12.952 155.912 12.952 155.856C12.952 155.799 74.284 155.758 149.968 155.758C225.652 155.758 286.972 155.803 286.972 155.856Z" fill="#263238"/>
<path d="M269.136 118.786C271.031 120.704 272.122 123.202 272.207 125.818C272.292 128.434 271.366 130.99 269.6 133.014C267.992 134.825 265.968 136.27 263.68 137.24L244.024 145.565L230.14 147.584L48.436 146.501L37.048 144.407C34.3881 143.917 31.9956 142.565 30.2879 140.587C28.5801 138.608 27.6657 136.129 27.704 133.582L27.82 126.144C27.83 125.585 28.0293 125.043 28.389 124.598C28.7486 124.152 29.2498 123.826 29.82 123.666L30.62 123.433C30.62 123.433 31.292 116.143 35.972 114.492C53.028 107.585 64.316 105.366 92.864 104.246L116.972 90.71C116.972 90.71 126.704 84.8632 135.772 84.0962C144.84 83.3291 165.372 83.3216 174.776 83.8292C185.82 84.4271 199.832 89.1496 207.648 92.7931C213.768 95.6469 228.5 102.697 228.5 102.697L236.832 104.009C238.088 104.066 261.1 105.385 263.744 105.765C264.706 105.912 265.606 106.306 266.345 106.903C267.084 107.5 267.633 108.277 267.932 109.149C268.592 111.202 269.132 118.741 269.132 118.741" fill="#744C9D"/>
<path d="M198.8 93.1766C194.872 91.3304 184.336 88.7849 178.444 87.7471C172.552 86.7094 160.576 86.5665 155.792 86.6793C151.008 86.7921 137.712 87.0102 130.704 88.8789C127.104 89.8415 121.308 92.6615 117.904 95.0227C116.704 95.8424 111.568 99.6363 110.42 100.497L101.5 108.326L211.1 105.073C211.1 105.073 211.732 101.482 209.76 99.4144C207.788 97.3464 198.8 93.1766 198.8 93.1766Z" fill="#263238"/>
<path d="M36.212 122.993L30.668 122.918C30.884 121.512 31.616 117.774 33.988 115.68L41.328 115.782C41.6327 115.786 41.9309 115.865 42.1921 116.013C42.4533 116.161 42.6683 116.371 42.815 116.622C42.9618 116.873 43.0351 117.156 43.0276 117.442C43.02 117.729 42.9318 118.008 42.772 118.252L41.436 120.294C40.8886 121.131 40.1193 121.819 39.2036 122.293C38.2878 122.766 37.2569 123.007 36.212 122.993Z" fill="#FAFAFA"/>
<path d="M36.884 122.677C37.46 120.384 38.188 117.368 40.248 115.767H41.328C41.6327 115.771 41.9309 115.85 42.1921 115.998C42.4533 116.146 42.6683 116.356 42.815 116.607C42.9618 116.858 43.0351 117.141 43.0276 117.427C43.02 117.714 42.9318 117.993 42.772 118.237L41.436 120.279C40.9419 121.036 40.2644 121.673 39.4587 122.137C38.6531 122.602 37.7421 122.881 36.8 122.952L36.884 122.677Z" fill="#E0E0E0"/>
<g opacity="0.7">
<path d="M90.68 146.817C91.2678 144.136 91.3947 141.384 91.056 138.665C89.624 127.096 81.564 118.771 69.388 118.605C58.792 118.463 50.04 124.685 48.252 136.21C47.7288 139.65 47.8534 143.15 48.62 146.55L90.68 146.817Z" fill="black"/>
</g>
<g opacity="0.7">
<path d="M244 145.614C244 145.189 243.948 144.752 243.94 144.301C243.724 129.701 233.304 119.587 220.912 119.418C215.467 119.349 210.216 121.314 206.31 124.881C202.405 128.448 200.164 133.325 200.08 138.443C200.028 141.692 199.864 144.749 200.272 147.445L230.116 147.633L244 145.614Z" fill="black"/>
</g>
<path d="M202.736 138.477C202.685 141.803 203.684 145.069 205.608 147.861C207.531 150.653 210.292 152.846 213.541 154.164C216.791 155.481 220.383 155.862 223.863 155.261C227.344 154.659 230.556 153.1 233.094 150.782C235.632 148.464 237.382 145.491 238.122 142.238C238.863 138.986 238.56 135.599 237.253 132.508C235.946 129.417 233.693 126.76 230.78 124.872C227.866 122.984 224.422 121.951 220.884 121.903C216.139 121.839 211.562 123.549 208.158 126.657C204.755 129.765 202.804 134.017 202.736 138.477Z" fill="#263238"/>
<path d="M202.736 138.436V138.477C202.702 140.686 203.131 142.879 203.999 144.932C204.867 146.984 206.157 148.856 207.794 150.441C209.431 152.025 211.385 153.29 213.543 154.165C215.7 155.04 218.02 155.506 220.37 155.538C222.72 155.57 225.053 155.166 227.237 154.351C229.42 153.535 231.412 152.323 233.097 150.783C234.782 149.244 236.129 147.408 237.059 145.38C237.99 143.351 238.486 141.171 238.52 138.962C238.52 138.962 238.52 138.936 238.52 138.921L202.736 138.436Z" fill="#263238"/>
<path d="M208.064 138.552C208.032 140.887 208.737 143.179 210.09 145.137C211.442 147.095 213.383 148.633 215.665 149.555C217.947 150.477 220.469 150.743 222.911 150.318C225.354 149.894 227.608 148.798 229.389 147.17C231.169 145.541 232.396 143.453 232.914 141.17C233.433 138.886 233.219 136.509 232.301 134.339C231.383 132.17 229.801 130.305 227.755 128.98C225.709 127.655 223.292 126.93 220.808 126.896C219.157 126.874 217.517 127.158 215.982 127.732C214.448 128.305 213.049 129.158 211.865 130.241C210.682 131.323 209.737 132.615 209.084 134.041C208.432 135.467 208.085 137 208.064 138.552Z" fill="#FAFAFA"/>
<path d="M220.8 126.911C219.149 126.889 217.509 127.174 215.975 127.748C214.441 128.322 213.042 129.174 211.858 130.257C210.675 131.339 209.73 132.63 209.077 134.056C208.425 135.482 208.078 137.015 208.056 138.567L233.18 138.906C233.206 137.354 232.906 135.812 232.298 134.369C231.689 132.926 230.785 131.61 229.635 130.496C228.485 129.382 227.113 128.492 225.597 127.877C224.081 127.262 222.451 126.934 220.8 126.911Z" fill="#E0E0E0"/>
<path d="M212.976 138.616C212.954 140.039 213.381 141.435 214.204 142.63C215.026 143.824 216.207 144.762 217.597 145.326C218.987 145.889 220.523 146.052 222.012 145.795C223.5 145.537 224.874 144.871 225.96 143.879C227.045 142.888 227.793 141.616 228.11 140.225C228.426 138.834 228.297 137.385 227.738 136.063C227.179 134.741 226.215 133.605 224.969 132.798C223.722 131.99 222.249 131.549 220.736 131.529C218.707 131.501 216.75 132.233 215.295 133.562C213.839 134.891 213.005 136.709 212.976 138.616Z" fill="#263238"/>
<path d="M70.5382 155.966C80.4119 155.55 88.0569 147.688 87.6137 138.407C87.1706 129.125 78.807 121.939 68.9333 122.356C59.0595 122.772 51.4146 130.634 51.8578 139.915C52.3009 149.197 60.6645 156.383 70.5382 155.966Z" fill="#263238"/>
<path d="M51.86 138.868C51.86 138.868 51.86 138.898 51.86 138.913C51.7915 143.374 53.611 147.677 56.918 150.877C60.225 154.076 64.7487 155.91 69.494 155.974C74.2392 156.038 78.8173 154.328 82.2211 151.22C85.6249 148.111 87.5755 143.859 87.644 139.398V139.353L51.86 138.868Z" fill="#263238"/>
<path d="M57.2 138.985C57.1639 141.32 57.8654 143.614 59.216 145.575C60.5666 147.536 62.5055 149.076 64.7875 150.001C67.0696 150.926 69.5922 151.194 72.0363 150.772C74.4804 150.349 76.7363 149.254 78.5185 147.626C80.3008 145.998 81.5294 143.91 82.049 141.626C82.5686 139.341 82.3558 136.963 81.4375 134.793C80.5192 132.622 78.9367 130.756 76.8902 129.431C74.8436 128.105 72.4249 127.38 69.94 127.347C66.6091 127.303 63.3959 128.504 61.0068 130.687C58.6177 132.869 57.2485 135.854 57.2 138.985Z" fill="#FAFAFA"/>
<path d="M69.928 127.347C66.5991 127.306 63.389 128.509 61.0025 130.691C58.6161 132.873 57.2484 135.856 57.2 138.985L82.3239 139.327C82.3477 137.775 82.0459 136.234 81.4356 134.792C80.8254 133.349 79.9187 132.034 78.7675 130.922C77.6162 129.809 76.2429 128.921 74.7262 128.308C73.2094 127.694 71.5789 127.368 69.928 127.347Z" fill="#E0E0E0"/>
<path d="M62.096 139.052C62.0716 140.475 62.4968 141.873 63.3176 143.068C64.1385 144.264 65.3183 145.204 66.7076 145.769C68.0969 146.334 69.6334 146.5 71.1226 146.244C72.6118 145.988 73.9868 145.323 75.0736 144.332C76.1605 143.342 76.9103 142.07 77.2283 140.679C77.5462 139.288 77.4181 137.839 76.8599 136.516C76.3018 135.193 75.3388 134.056 74.0927 133.248C72.8467 132.44 71.3737 131.997 69.86 131.976C67.8325 131.948 65.8761 132.677 64.4203 134.004C62.9646 135.331 62.1286 137.147 62.096 139.052Z" fill="#263238"/>
<g opacity="0.4">
<path d="M35.132 135.3C35.104 137.18 34.088 138.684 32.868 138.684C31.648 138.684 30.676 137.123 30.704 135.24C30.732 133.356 31.748 131.856 32.972 131.856C34.196 131.856 35.16 133.416 35.132 135.3Z" fill="black"/>
</g>
<path d="M269.136 118.786C269.023 118.806 268.907 118.815 268.792 118.812L267.8 118.846C266.94 118.865 265.696 118.891 264.164 118.951C262.632 119.012 260.8 119.087 258.776 119.241C256.584 119.394 254.406 119.696 252.26 120.143C251.158 120.387 250.086 120.736 249.06 121.185C248.117 121.629 247.232 122.175 246.424 122.813C244.824 123.982 243.624 125.279 242.516 126.298C241.673 127.126 240.734 127.861 239.716 128.491C239.435 128.657 239.142 128.805 238.84 128.934C238.739 128.987 238.631 129.028 238.52 129.058C238.52 129.036 238.948 128.855 239.66 128.412C240.651 127.759 241.567 127.01 242.392 126.178C243.468 125.152 244.668 123.832 246.28 122.64C247.098 121.986 247.996 121.427 248.956 120.974C249.997 120.514 251.087 120.157 252.208 119.91C254.368 119.46 256.561 119.162 258.768 119.019C260.8 118.88 262.632 118.809 264.168 118.778C265.704 118.748 266.968 118.745 267.812 118.752H268.804C268.916 118.754 269.027 118.766 269.136 118.786Z" fill="#263238"/>
<g opacity="0.5">
<path d="M243.44 145.914C243.509 145.867 243.582 145.823 243.656 145.783C243.865 145.653 244.067 145.512 244.26 145.362C244.986 144.765 245.552 144.015 245.912 143.173C246.466 141.833 246.665 140.387 246.492 138.958C246.284 137.065 245.882 135.195 245.292 133.375C244.601 131.163 243.634 129.037 242.412 127.039C241.003 124.748 239.205 122.689 237.088 120.944C234.757 119.008 232.015 117.56 229.044 116.695C225.838 115.816 222.478 115.546 219.16 115.902C215.839 116.233 212.588 117.028 209.516 118.26C206.755 119.282 204.257 120.846 202.188 122.845C200.119 124.845 198.526 127.236 197.516 129.859C196.648 132.015 196.023 134.251 195.652 136.529C195.476 137.575 195.344 138.575 195.252 139.537C195.145 140.427 195.104 141.323 195.132 142.218C195.188 143.888 195.768 145.316 196.676 146.132C197.338 146.798 198.235 147.215 199.2 147.306C199.536 147.314 199.871 147.285 200.2 147.219L199.952 147.287C199.704 147.338 199.45 147.361 199.196 147.354C198.212 147.28 197.291 146.869 196.608 146.2C195.668 145.373 195.056 143.914 195.008 142.226C194.973 141.324 195.007 140.42 195.108 139.522C195.192 138.571 195.32 137.567 195.488 136.514C195.85 134.221 196.469 131.97 197.336 129.799C197.828 128.592 198.422 127.424 199.112 126.306C199.855 125.123 200.729 124.018 201.72 123.008C203.891 120.868 206.519 119.183 209.432 118.064C212.525 116.818 215.801 116.015 219.148 115.684C222.505 115.319 225.906 115.593 229.148 116.489C232.152 117.365 234.923 118.834 237.276 120.798C239.407 122.561 241.215 124.642 242.628 126.956C244.845 130.652 246.216 134.743 246.652 138.966C246.803 140.408 246.579 141.864 246 143.207C245.625 144.057 245.038 144.809 244.288 145.399C244.03 145.605 243.745 145.778 243.44 145.914Z" fill="white"/>
</g>
<path d="M48.628 136.206C48.4215 136.003 48.2279 135.788 48.048 135.563C47.5226 134.985 46.9414 134.454 46.312 133.976C44.2055 132.425 41.7382 131.365 39.112 130.882C36.4759 130.417 33.7895 130.256 31.112 130.401C30.084 130.434 29.252 130.483 28.676 130.51C28.3784 130.54 28.0788 130.547 27.78 130.532C27.8536 130.509 27.9303 130.495 28.008 130.491L28.668 130.416C29.24 130.359 30.072 130.288 31.104 130.231C33.7943 130.038 36.5001 130.177 39.152 130.645C41.8226 131.133 44.3226 132.236 46.428 133.856C47.0556 134.351 47.6242 134.908 48.124 135.518C48.2674 135.681 48.401 135.852 48.524 136.029C48.5651 136.085 48.6 136.144 48.628 136.206Z" fill="#263238"/>
<path d="M48.516 123.704C48.516 123.772 44.244 123.768 38.976 123.704C33.708 123.64 29.44 123.52 29.44 123.452C29.44 123.384 33.712 123.392 38.98 123.452C44.248 123.512 48.52 123.617 48.516 123.704Z" fill="#263238"/>
<g opacity="0.5">
<path d="M96.936 145.08C96.9315 145.003 96.9315 144.927 96.936 144.85C96.936 144.689 96.936 144.474 96.936 144.177C96.936 143.88 96.936 143.512 96.888 143.079C96.84 142.647 96.832 142.147 96.772 141.575C96.46 138.407 95.7304 135.287 94.6 132.288C93.8274 130.213 92.8763 128.201 91.756 126.272C90.5027 124.051 88.9733 121.977 87.2 120.094C85.2264 118.02 82.7785 116.392 80.04 115.334C77.0981 114.2 73.9555 113.595 70.776 113.552C69.1693 113.538 67.5641 113.646 65.976 113.875C64.4357 114.123 62.9179 114.481 61.436 114.947C60.0093 115.409 58.6248 115.978 57.296 116.65L56.808 116.895L56.336 117.162L55.396 117.688L54.512 118.263L54.072 118.549L53.672 118.861C51.5502 120.395 49.7029 122.238 48.2 124.321C46.8862 126.134 45.8217 128.096 45.032 130.16C44.384 131.867 43.919 133.63 43.644 135.424C43.552 136.217 43.448 136.954 43.432 137.639C43.416 138.323 43.396 138.947 43.4 139.519C43.404 140.09 43.464 140.579 43.484 141.023C43.504 141.466 43.568 141.82 43.608 142.113C43.648 142.406 43.672 142.621 43.696 142.782C43.72 142.944 43.696 143.012 43.696 143.012C43.696 143.012 43.696 142.936 43.648 142.786C43.6 142.636 43.584 142.41 43.536 142.12C43.488 141.831 43.416 141.462 43.388 141.03C43.36 140.598 43.276 140.098 43.28 139.526C43.284 138.955 43.24 138.33 43.28 137.646C43.32 136.962 43.388 136.213 43.476 135.416C43.7353 133.613 44.191 131.839 44.836 130.122C45.6183 128.039 46.6802 126.058 47.996 124.227C49.5061 122.122 51.3642 120.257 53.5 118.703L53.92 118.391L54.364 118.102L55.256 117.515L56.196 116.977L56.668 116.707L57.16 116.462C58.4976 115.78 59.893 115.202 61.332 114.736C62.8279 114.264 64.3605 113.9 65.916 113.65C67.5212 113.417 69.1439 113.308 70.768 113.323C73.9761 113.369 77.1462 113.984 80.112 115.135C82.8838 116.204 85.3629 117.848 87.364 119.944C89.1372 121.854 90.6638 123.954 91.912 126.201C93.0295 128.138 93.9741 130.159 94.736 132.243C95.8563 135.258 96.5633 138.396 96.84 141.579C96.949 142.743 96.9811 143.912 96.936 145.08Z" fill="white"/>
</g>
<path d="M236.852 104.231C236.862 104.312 236.862 104.394 236.852 104.475C236.828 104.663 236.796 104.893 236.756 105.175C236.668 105.78 236.536 106.656 236.452 107.743C236.33 109.012 236.392 110.291 236.636 111.544C236.951 113.074 237.733 114.484 238.888 115.601C240.059 116.704 241.458 117.568 243 118.139C244.256 118.603 245.555 118.955 246.88 119.192C248.02 119.406 248.952 119.538 249.592 119.636L250.332 119.752C250.419 119.762 250.505 119.781 250.588 119.809C250.501 119.822 250.411 119.822 250.324 119.809L249.58 119.737C248.932 119.666 247.98 119.56 246.848 119.361C245.496 119.144 244.171 118.8 242.892 118.335C241.311 117.764 239.876 116.886 238.68 115.759C237.502 114.607 236.709 113.156 236.4 111.586C236.165 110.313 236.119 109.016 236.264 107.732C236.376 106.637 236.536 105.761 236.664 105.16C236.724 104.859 236.776 104.626 236.812 104.468C236.814 104.388 236.828 104.308 236.852 104.231Z" fill="#263238"/>
<path d="M145.944 113.435C146.016 113.419 146.09 113.413 146.164 113.417C146.376 113.407 146.59 113.417 146.8 113.447C146.974 113.466 147.141 113.521 147.291 113.607C147.441 113.692 147.569 113.807 147.668 113.943C147.802 114.125 147.883 114.337 147.901 114.558C147.919 114.778 147.875 115 147.772 115.199C147.64 115.433 147.456 115.638 147.233 115.801C147.011 115.963 146.754 116.08 146.48 116.143C145.869 116.266 145.241 116.296 144.62 116.229L140.412 116.004C140.027 115.999 139.645 115.931 139.284 115.804C139.102 115.738 138.938 115.637 138.8 115.507C138.662 115.378 138.554 115.223 138.484 115.052C138.431 114.878 138.422 114.694 138.459 114.515C138.496 114.337 138.577 114.169 138.696 114.026C138.907 113.753 139.204 113.55 139.544 113.443C140.15 113.291 140.778 113.232 141.404 113.266C141.98 113.266 142.52 113.266 143.004 113.304L145.32 113.398C145.605 113.392 145.889 113.406 146.172 113.439C146.101 113.459 146.026 113.468 145.952 113.466C145.808 113.466 145.596 113.484 145.32 113.488C144.772 113.488 143.98 113.488 143 113.488C142.512 113.488 141.976 113.488 141.4 113.488C140.8 113.464 140.199 113.527 139.62 113.676C139.327 113.767 139.072 113.944 138.892 114.18C138.796 114.294 138.73 114.428 138.7 114.57C138.671 114.713 138.677 114.86 138.72 115C138.78 115.141 138.871 115.269 138.986 115.375C139.102 115.481 139.24 115.563 139.392 115.616C139.727 115.731 140.08 115.79 140.436 115.793L144.64 116.037C145.238 116.107 145.844 116.088 146.436 115.981C146.687 115.93 146.923 115.83 147.13 115.688C147.337 115.545 147.509 115.363 147.636 115.154C147.73 114.981 147.773 114.787 147.762 114.593C147.751 114.399 147.685 114.211 147.572 114.048C147.488 113.919 147.376 113.808 147.243 113.722C147.11 113.637 146.959 113.579 146.8 113.552C146.252 113.447 145.94 113.462 145.944 113.435Z" fill="#263238"/>
<path d="M202.532 112.996C202.605 112.985 202.679 112.985 202.752 112.996C202.965 112.986 203.178 112.996 203.388 113.026C203.562 113.046 203.729 113.101 203.879 113.186C204.028 113.272 204.157 113.386 204.256 113.522C204.39 113.704 204.471 113.916 204.489 114.137C204.507 114.357 204.463 114.579 204.36 114.778C204.228 115.012 204.044 115.217 203.821 115.38C203.599 115.542 203.342 115.659 203.068 115.722C202.455 115.846 201.823 115.875 201.2 115.808L196.992 115.582C196.607 115.577 196.226 115.511 195.864 115.387C195.682 115.321 195.518 115.22 195.38 115.09C195.242 114.961 195.135 114.806 195.064 114.635C195.008 114.461 194.998 114.276 195.034 114.098C195.07 113.919 195.152 113.751 195.272 113.608C195.484 113.337 195.78 113.134 196.12 113.026C196.726 112.876 197.354 112.816 197.98 112.849C198.556 112.849 199.096 112.868 199.58 112.887L201.9 112.981C202.183 112.98 202.466 112.993 202.748 113.022C202.677 113.042 202.602 113.051 202.528 113.048C202.384 113.048 202.172 113.067 201.896 113.075C201.348 113.075 200.556 113.075 199.576 113.075C199.088 113.075 198.552 113.075 197.976 113.075C197.376 113.05 196.775 113.113 196.196 113.263C195.901 113.354 195.646 113.532 195.468 113.77C195.372 113.883 195.306 114.017 195.276 114.158C195.247 114.3 195.253 114.447 195.296 114.586C195.356 114.727 195.447 114.855 195.562 114.961C195.678 115.068 195.816 115.15 195.968 115.203C196.303 115.317 196.656 115.378 197.012 115.383L201.216 115.624C201.814 115.695 202.42 115.676 203.012 115.567C203.262 115.517 203.498 115.417 203.705 115.275C203.911 115.133 204.084 114.952 204.212 114.744C204.304 114.57 204.347 114.376 204.335 114.181C204.324 113.987 204.26 113.799 204.148 113.635C204.063 113.509 203.95 113.402 203.818 113.32C203.685 113.237 203.536 113.182 203.38 113.157C202.84 113.007 202.528 113.022 202.532 112.996Z" fill="#263238"/>
<path d="M211.06 105.073C211.06 105.073 211.06 105.145 211.004 105.284C210.948 105.423 210.904 105.637 210.824 105.912L210.108 108.341C209.472 110.473 208.544 113.605 207.36 117.553V117.575H207.336C205.327 118.458 203.471 119.622 201.832 121.027C200.904 121.815 200.047 122.672 199.268 123.591C198.44 124.579 197.691 125.623 197.028 126.716C195.603 129.12 194.527 131.692 193.828 134.364C193.023 137.302 192.606 140.323 192.588 143.358V143.448H192.496H152.368L100.608 143.429H100.532V143.361C99.2 133.405 98.3999 125.208 97.8919 119.474C97.6439 116.616 97.492 114.383 97.364 112.864C97.312 112.112 97.272 111.525 97.244 111.131C97.216 110.736 97.2 110.544 97.2 110.544C97.2 110.544 97.224 110.743 97.256 111.134C97.288 111.525 97.34 112.108 97.4 112.864C97.532 114.368 97.728 116.624 97.976 119.47C98.5 125.182 99.3439 133.382 100.66 143.361L100.58 143.294H152.34H192.468L192.376 143.384C192.399 140.339 192.821 137.308 193.632 134.36C194.346 131.675 195.438 129.091 196.88 126.678C197.548 125.58 198.304 124.53 199.14 123.539C199.926 122.617 200.79 121.757 201.724 120.967C203.378 119.56 205.248 118.396 207.272 117.515L207.24 117.549L210.04 108.352C210.364 107.295 210.612 106.472 210.784 105.927C210.868 105.656 210.932 105.449 210.98 105.306C211.028 105.163 211.06 105.073 211.06 105.073Z" fill="#263238"/>
<path d="M153.376 106.979C153.38 107.011 153.38 107.042 153.376 107.073C153.376 107.145 153.356 107.235 153.344 107.348C153.312 107.604 153.264 107.957 153.204 108.401C153.144 108.844 153.064 109.42 152.992 110.07C152.92 110.721 152.82 111.461 152.748 112.285C152.676 113.108 152.584 114.003 152.524 114.969C152.464 115.936 152.404 116.974 152.348 118.06C152.272 120.237 152.252 122.636 152.348 125.148C152.444 127.659 152.636 130.055 152.872 132.22C153 133.303 153.116 134.333 153.272 135.292C153.428 136.251 153.552 137.146 153.692 137.962C153.832 138.778 153.976 139.507 154.092 140.154C154.208 140.801 154.324 141.353 154.424 141.805C154.524 142.256 154.584 142.594 154.636 142.846L154.688 143.121C154.693 143.152 154.693 143.183 154.688 143.215C154.672 143.186 154.661 143.156 154.656 143.124C154.635 143.054 154.611 142.964 154.584 142.854C154.524 142.602 154.44 142.256 154.332 141.82C154.224 141.383 154.092 140.819 153.964 140.173C153.836 139.526 153.668 138.8 153.532 137.984C153.396 137.169 153.224 136.277 153.088 135.315C152.952 134.352 152.808 133.326 152.688 132.239C152.444 130.07 152.244 127.675 152.148 125.155C152.052 122.636 152.092 120.237 152.176 118.053C152.236 116.962 152.284 115.928 152.372 114.958C152.46 113.988 152.532 113.078 152.624 112.27C152.716 111.461 152.812 110.709 152.896 110.059C152.98 109.408 153.068 108.848 153.144 108.393C153.22 107.938 153.28 107.596 153.324 107.344L153.376 107.07C153.371 107.04 153.371 107.009 153.376 106.979Z" fill="#263238"/>
<path d="M97.684 105.908C96.404 106.81 94.484 107.036 92.924 106.731C91.364 106.427 90.124 105.746 89.324 104.442L92.844 104.295L97.684 105.908Z" fill="#263238"/>
<path d="M92.836 104.295C92.836 104.295 96.388 106.329 97.42 106.051C98.452 105.773 115.02 93.4698 125 88.7209C124.023 88.3805 123.002 88.163 121.964 88.0742C121.964 88.0742 117.316 90.2851 111.516 93.5638C107.116 96.0605 102.616 98.6774 100.516 99.8806L92.836 104.295Z" fill="#455A64"/>
<path d="M104.196 106.904L104.08 106.972L103.732 107.164L102.372 107.889L97.244 110.593C94.044 110.484 89.904 110.405 85.172 110.593C82.808 110.691 80.296 110.849 77.68 111.1C75.064 111.352 72.34 111.702 69.552 112.119C64.668 112.834 60.064 113.74 55.848 114.466C52.1122 115.105 48.3386 115.531 44.548 115.74C41.312 115.913 38.684 115.868 36.876 115.819C35.968 115.793 35.276 115.759 34.792 115.733L34.248 115.699C34.1867 115.702 34.1253 115.702 34.064 115.699C34.064 115.699 34.128 115.699 34.252 115.699H34.792C35.268 115.699 35.992 115.737 36.876 115.752C38.688 115.778 41.308 115.8 44.54 115.609C48.3094 115.382 52.0613 114.947 55.776 114.304C59.984 113.552 64.596 112.657 69.484 111.939C72.284 111.522 75 111.187 77.624 110.924C80.248 110.661 82.764 110.521 85.132 110.435C89.868 110.262 94 110.363 97.216 110.491H97.18L102.34 107.859L103.716 107.16L104.072 106.983C104.109 106.952 104.151 106.925 104.196 106.904Z" fill="#263238"/>
<path d="M107.968 107.292C133.12 106.235 183.856 105.355 209.008 104.284C209.008 104.284 209.836 101.685 207.468 100.061C206.608 99.4708 201.384 95.7559 195.284 93.5714C187.803 90.9467 179.996 89.232 172.052 88.4691C167.572 88.1269 159.376 87.8148 159.376 87.8148C159.376 87.8148 144.372 88.3788 140.176 88.7323C134.899 89.1443 129.747 90.462 124.976 92.6201C119.756 95.0791 110.632 102.272 110.632 102.272L104.232 107.303L107.968 107.292Z" fill="#455A64"/>
<path d="M154.256 87.1343L149.4 106.645L158.204 106.382L159.952 87.1343H154.256Z" fill="#263238"/>
<path d="M192.308 91.8568L191.456 105.073H192.676L193.504 92.2704L192.308 91.8568Z" fill="#263238"/>
<path d="M108.92 102.817C109.32 103.302 111.54 108.025 111.54 108.025L103.044 107.502L108.92 102.817Z" fill="#263238"/>
<path d="M116.888 107.555L110.4 107.724C109.548 107.724 108.876 106.288 108.904 104.539C108.928 102.975 109.504 101.655 110.264 101.426L116.412 99.5948L116.888 107.555Z" fill="#744C9D"/>
<path d="M157.012 86.9124C157.068 86.9124 156.38 91.3642 155.48 96.8425C154.58 102.321 153.796 106.754 153.74 106.743C153.684 106.731 154.368 102.291 155.272 96.8125C156.176 91.3341 156.952 86.9011 157.012 86.9124Z" fill="#455A64"/>
<path d="M109.172 102.528C108.954 103.241 108.619 103.919 108.18 104.535C107.8 105.186 107.313 105.777 106.736 106.284C106.688 106.246 107.336 105.472 108.004 104.434C108.672 103.396 109.116 102.505 109.172 102.528Z" fill="#455A64"/>
<path d="M145.072 90.6837C145.046 90.7395 145.014 90.7925 144.976 90.8416L144.676 91.2815C144.392 91.6876 144.008 92.229 143.544 92.8833C142.58 94.2331 141.256 96.0981 139.812 98.1736C138.368 100.249 137.084 102.137 136.156 103.505L135.048 105.122C134.928 105.299 134.824 105.442 134.74 105.558C134.708 105.611 134.669 105.661 134.624 105.705C134.624 105.705 134.644 105.645 134.704 105.539L134.98 105.084C135.224 104.69 135.58 104.126 136.028 103.434C136.928 102.043 138.196 100.14 139.628 98.0645C141.06 95.989 142.428 94.1353 143.408 92.8005C143.904 92.1388 144.312 91.6011 144.608 91.2364C144.744 91.0709 144.852 90.9318 144.944 90.8153C145.036 90.6987 145.064 90.6799 145.072 90.6837Z" fill="#EBEBEB"/>
<path d="M141.38 93.624C140.778 94.5843 140.117 95.5108 139.4 96.3989C138.742 97.3261 138.024 98.2151 137.252 99.061C137.855 98.101 138.516 97.1745 139.232 96.2861C139.891 95.3595 140.608 94.4706 141.38 93.624Z" fill="#EBEBEB"/>
<path d="M269.06 117.744C269.06 117.744 266.972 117.868 265.396 117.233C264.798 116.996 264.257 116.649 263.805 116.211C263.353 115.773 263 115.255 262.766 114.686C262.532 114.117 262.422 113.51 262.443 112.9C262.464 112.291 262.615 111.691 262.888 111.138L262.912 111.093C263.273 110.388 263.834 109.79 264.534 109.365C265.233 108.941 266.044 108.706 266.876 108.687H267.748C268.071 109.297 268.264 109.961 268.316 110.642C268.552 112.424 268.908 115.157 269.06 117.744Z" fill="#F5F5F5"/>
<path d="M176.664 91.3154C176.712 91.3455 174.792 94.267 172.376 97.8428C169.96 101.419 167.976 104.291 167.912 104.261C167.848 104.231 169.78 101.313 172.2 97.7375C174.62 94.1617 176.616 91.2853 176.664 91.3154Z" fill="#EBEBEB"/>
<path d="M176 95.0039C175.583 95.7883 175.104 96.5424 174.568 97.2599C174.093 98.0171 173.558 98.7398 172.968 99.4219C173.387 98.6379 173.867 97.8839 174.404 97.1659C174.878 96.409 175.412 95.6864 176 95.0039Z" fill="#EBEBEB"/>
<path d="M115.404 100.727C113.824 101.43 112.135 101.893 110.4 102.099C110.4 102.043 111.52 101.791 112.896 101.411C114.272 101.031 115.384 100.674 115.404 100.727Z" fill="#EBEBEB"/>
<path d="M150.224 108.987C150.224 109.044 139.668 109.085 126.652 109.085C113.636 109.085 103.076 109.044 103.076 108.987C103.076 108.931 113.628 108.89 126.652 108.89C139.676 108.89 150.224 108.935 150.224 108.987Z" fill="#EBEBEB"/>
<path d="M146.76 112.928C145.622 113.027 144.478 113.06 143.336 113.026C142.192 113.06 141.047 113.027 139.908 112.928C141.048 112.831 142.192 112.798 143.336 112.83C144.478 112.799 145.622 112.831 146.76 112.928Z" fill="#EBEBEB"/>
<path d="M70.1119 117.395C70.0242 117.403 69.9357 117.403 69.8479 117.395C69.6759 117.395 69.424 117.395 69.1 117.395C68.1854 117.395 67.2717 117.448 66.364 117.553C63.3595 117.889 60.4676 118.83 57.8852 120.312C55.3028 121.794 53.0908 123.782 51.4 126.141C50.8856 126.851 50.418 127.591 50 128.355C49.844 128.626 49.744 128.84 49.664 128.983C49.6312 129.059 49.5882 129.131 49.5359 129.197C49.5597 129.119 49.5905 129.042 49.628 128.968C49.696 128.821 49.784 128.592 49.928 128.321C50.3192 127.54 50.7697 126.786 51.276 126.065C52.9483 123.663 55.1684 121.641 57.7753 120.145C60.3822 118.649 63.3105 117.717 66.3479 117.417C67.2628 117.321 68.184 117.289 69.1039 117.32C69.4279 117.32 69.68 117.353 69.852 117.365C69.9396 117.365 70.0269 117.375 70.1119 117.395Z" fill="#EBEBEB"/>
<path d="M190.68 107.946C190.68 107.999 183.692 108.044 175.08 108.044C166.468 108.044 159.48 107.999 159.48 107.946C159.48 107.893 166.464 107.848 175.08 107.848C183.696 107.848 190.68 107.89 190.68 107.946Z" fill="#EBEBEB"/>
<path d="M204.368 112.353C203.993 112.383 203.615 112.383 203.24 112.353C202.544 112.353 201.584 112.319 200.524 112.311C199.464 112.304 198.504 112.311 197.808 112.311C197.432 112.336 197.055 112.33 196.68 112.292C197.049 112.218 197.426 112.177 197.804 112.172C198.5 112.131 199.46 112.097 200.524 112.101C201.588 112.104 202.552 112.15 203.248 112.202C203.626 112.215 204.001 112.266 204.368 112.353Z" fill="#EBEBEB"/>
</svg>
