<svg width="300" height="216" viewBox="0 0 300 216" fill="none" xmlns="http://www.w3.org/2000/svg">
<rect width="300" height="216" transform="matrix(-1 0 0 1 300 0)" fill="white"/>
<rect width="300" height="216" transform="matrix(-1 0 0 1 300 0)" fill="#744C9D" fill-opacity="0.05"/>
<path d="M156.8 175.53C138.58 175.129 117.056 174.874 103.6 172.571C90.144 170.269 76.8 165.002 66.288 155.14C55.776 145.277 48.664 130.382 48.536 114.817C48.4 93.5713 59.6 79.4319 73.516 70.0445C85.5695 61.9108 99.9 58.648 113.968 60.8343C121.132 61.9834 128.272 64.5581 135.452 63.5732C147.796 61.8754 156.996 50.3713 166.912 41.8004C181.156 29.4841 199.08 22.3604 216.912 23.6823C234.744 25.0042 252.204 35.1389 262.516 51.84C275.548 72.9476 275.648 102.781 264.516 125.28C253.384 147.779 233.124 167.067 210.8 170.83C210.8 170.83 198.66 176.45 156.8 175.53Z" fill="white"/>
<path d="M156.8 175.53C138.58 175.129 117.056 174.874 103.6 172.571C90.144 170.269 76.8 165.002 66.288 155.14C55.776 145.277 48.664 130.382 48.536 114.817C48.4 93.5713 59.6 79.4319 73.516 70.0445C85.5695 61.9108 99.9 58.648 113.968 60.8343C121.132 61.9834 128.272 64.5581 135.452 63.5732C147.796 61.8754 156.996 50.3713 166.912 41.8004C181.156 29.4841 199.08 22.3604 216.912 23.6823C234.744 25.0042 252.204 35.1389 262.516 51.84C275.548 72.9476 275.648 102.781 264.516 125.28C253.384 147.779 233.124 167.067 210.8 170.83C210.8 170.83 198.66 176.45 156.8 175.53Z" fill="#744C9D" fill-opacity="0.1"/>
<path d="M18.1841 186.831C18.1841 186.892 77.204 186.944 149.992 186.944C222.78 186.944 281.816 186.892 281.816 186.831C281.816 186.771 222.8 186.719 150 186.719C77.2 186.719 18.1841 186.767 18.1841 186.831Z" fill="#263238"/>
<path d="M36.692 127.025H263.472V160.134H36.692V127.025Z" fill="#744C9D"/>
<g opacity="0.4">
<path d="M36.692 127.025H263.472V160.134H36.692V127.025Z" fill="black"/>
</g>
<path d="M27.144 124.235C28.34 120.709 30.4177 117.611 33.1462 115.284C35.8748 112.957 39.1472 111.493 42.6 111.054L93.512 104.574L112.096 90.2491C125.017 80.2962 140.493 74.9483 156.364 74.952H277.2C277.676 74.9614 278.135 75.1463 278.5 75.4759C278.866 75.8056 279.116 76.2602 279.209 76.7644C279.303 77.2687 279.234 77.7922 279.014 78.2483C278.794 78.7044 278.436 79.0656 278 79.272L269.288 83.2939C269.614 83.8908 269.907 84.5082 270.164 85.1429L275.084 97.4549C276.283 100.456 276.901 103.69 276.9 106.959C278.221 106.959 279.488 107.525 280.423 108.534C281.357 109.542 281.883 110.91 281.884 112.337V133.786L287.044 136.274C288.258 136.862 289.29 137.816 290.013 139.021C290.737 140.227 291.123 141.633 291.124 143.07V148.634C291.128 150.736 290.456 152.774 289.223 154.4C287.99 156.027 286.273 157.14 284.364 157.55L257.048 163.452V160.786C257.048 153.233 254.27 145.99 249.325 140.65C244.38 135.309 237.673 132.309 230.68 132.309C227.217 132.309 223.789 133.045 220.589 134.476C217.39 135.908 214.484 138.005 212.035 140.65C209.587 143.294 207.644 146.433 206.319 149.888C204.994 153.343 204.312 157.046 204.312 160.786V163.452H94.568V160.786C94.568 153.233 91.79 145.99 86.845 140.65C81.9001 135.309 75.1932 132.309 68.2 132.309C61.2068 132.309 54.5 135.309 49.555 140.65C44.6101 145.99 41.832 153.233 41.832 160.786V163.452H28.356C27.4911 163.452 26.6346 163.267 25.8355 162.91C25.0364 162.552 24.3105 162.028 23.699 161.367C23.0876 160.707 22.6027 159.922 22.272 159.059C21.9414 158.196 21.7715 157.271 21.772 156.337V140.072L27.144 124.235Z" fill="#744C9D"/>
<path d="M270.168 85.1516L275.088 97.4636C276.287 100.465 276.905 103.699 276.904 106.968H270.104L263.464 85.994L269.284 83.3026C269.613 83.8992 269.908 84.5167 270.168 85.1516Z" fill="#455A64"/>
<path d="M27.144 124.235C27.5557 123.032 28.0727 121.875 28.688 120.779H35.8879L29.356 137.151L21.756 141.903V140.089L27.144 124.235Z" fill="#744C9D"/>
<g opacity="0.2">
<path d="M27.144 124.235C27.5557 123.032 28.0727 121.875 28.688 120.779H35.8879L29.356 137.151L21.756 141.903V140.089L27.144 124.235Z" fill="black"/>
</g>
<path d="M281.364 126.55H277.624C275.48 126.554 273.386 125.848 271.624 124.528L265.4 119.863C264.859 119.459 264.417 118.919 264.112 118.29C263.807 117.661 263.647 116.961 263.648 116.251C263.648 115.674 263.753 115.102 263.958 114.568C264.163 114.035 264.463 113.55 264.841 113.142C265.219 112.733 265.668 112.409 266.162 112.188C266.656 111.967 267.185 111.854 267.72 111.854H281.32C281.398 111.854 281.476 111.87 281.548 111.903C281.62 111.935 281.686 111.982 281.741 112.042C281.797 112.102 281.841 112.173 281.871 112.251C281.901 112.329 281.916 112.413 281.916 112.497V125.889C281.921 126.055 281.866 126.216 281.763 126.339C281.66 126.462 281.517 126.538 281.364 126.55Z" fill="#EBEBEB"/>
<path d="M21.38 141.147L23.548 139.795H22.224C22.0409 139.758 21.8757 139.652 21.7568 139.497C21.638 139.342 21.573 139.148 21.573 138.946C21.573 138.745 21.638 138.55 21.7568 138.395C21.8757 138.24 22.0409 138.135 22.224 138.097H26.276L27.6399 137.233H23.0159C22.8305 137.198 22.6625 137.094 22.5415 136.938C22.4204 136.782 22.354 136.586 22.354 136.382C22.354 136.179 22.4204 135.982 22.5415 135.827C22.6625 135.671 22.8305 135.566 23.0159 135.531H29.156L29.4959 134.667H23.936C23.8203 134.691 23.7013 134.687 23.5873 134.655C23.4734 134.623 23.3673 134.565 23.2767 134.484C23.186 134.403 23.1131 134.301 23.063 134.186C23.0129 134.071 22.9869 133.946 22.9869 133.818C22.9869 133.691 23.0129 133.566 23.063 133.451C23.1131 133.336 23.186 133.234 23.2767 133.153C23.3673 133.072 23.4734 133.014 23.5873 132.982C23.7013 132.95 23.8203 132.946 23.936 132.97H30.1719L30.512 132.106H24.708C24.5923 132.129 24.4733 132.125 24.3593 132.093C24.2454 132.062 24.1393 132.003 24.0487 131.922C23.958 131.841 23.8851 131.739 23.835 131.624C23.7849 131.509 23.7589 131.384 23.7589 131.257C23.7589 131.13 23.7849 131.004 23.835 130.889C23.8851 130.774 23.958 130.672 24.0487 130.591C24.1393 130.51 24.2454 130.452 24.3593 130.42C24.4733 130.388 24.5923 130.384 24.708 130.408H31.2L31.5399 129.544H25.6C25.4169 129.506 25.2517 129.401 25.1328 129.246C25.014 129.091 24.949 128.896 24.949 128.695C24.949 128.494 25.014 128.299 25.1328 128.144C25.2517 127.989 25.4169 127.884 25.6 127.846H32.208L32.5439 126.982H26.5159C26.4003 127.006 26.2813 127.002 26.1673 126.97C26.0534 126.938 25.9473 126.88 25.8566 126.799C25.766 126.718 25.6931 126.616 25.643 126.501C25.5929 126.386 25.5669 126.26 25.5669 126.133C25.5669 126.006 25.5929 125.881 25.643 125.766C25.6931 125.651 25.766 125.549 25.8566 125.468C25.9473 125.387 26.0534 125.328 26.1673 125.297C26.2813 125.265 26.4003 125.261 26.5159 125.284H33.2239L33.5639 124.42H27.352C27.1665 124.385 26.9985 124.281 26.8774 124.125C26.7564 123.969 26.69 123.773 26.69 123.569C26.69 123.366 26.7564 123.169 26.8774 123.014C26.9985 122.858 27.1665 122.753 27.352 122.718H34.2399L34.712 121.543H28.6879C28.5723 121.567 28.4533 121.563 28.3393 121.531C28.2254 121.499 28.1193 121.441 28.0287 121.36C27.938 121.279 27.8651 121.177 27.815 121.062C27.7649 120.947 27.7389 120.821 27.7389 120.694C27.7389 120.567 27.7649 120.442 27.815 120.327C27.8651 120.212 27.938 120.11 28.0287 120.029C28.1193 119.948 28.2254 119.889 28.3393 119.858C28.4533 119.826 28.5723 119.822 28.6879 119.845H35.8879C36.0169 119.849 36.1433 119.886 36.2562 119.953C36.3691 120.021 36.4652 120.117 36.5363 120.233C36.6074 120.349 36.6515 120.482 36.6646 120.621C36.6778 120.76 36.6597 120.9 36.612 121.029L34.4479 126.451L33.432 129L32.4159 131.548L31.4 134.097L30.384 136.642L30.084 137.393C30.0154 137.56 29.9009 137.701 29.756 137.795L22.156 142.547C21.9784 142.623 21.7814 142.628 21.6008 142.561C21.4202 142.494 21.2677 142.359 21.1711 142.181C21.0745 142.003 21.04 141.794 21.0739 141.59C21.1078 141.387 21.2078 141.204 21.356 141.074L21.38 141.147Z" fill="#744C9D"/>
<g opacity="0.2">
<path d="M21.38 141.147L23.548 139.795H22.224C22.0409 139.758 21.8757 139.652 21.7568 139.497C21.638 139.342 21.573 139.148 21.573 138.946C21.573 138.745 21.638 138.55 21.7568 138.395C21.8757 138.24 22.0409 138.135 22.224 138.097H26.276L27.6399 137.233H23.0159C22.8305 137.198 22.6625 137.094 22.5415 136.938C22.4204 136.782 22.354 136.586 22.354 136.382C22.354 136.179 22.4204 135.982 22.5415 135.827C22.6625 135.671 22.8305 135.566 23.0159 135.531H29.156L29.4959 134.667H23.936C23.8203 134.691 23.7013 134.687 23.5873 134.655C23.4734 134.623 23.3673 134.565 23.2767 134.484C23.186 134.403 23.1131 134.301 23.063 134.186C23.0129 134.071 22.9869 133.946 22.9869 133.818C22.9869 133.691 23.0129 133.566 23.063 133.451C23.1131 133.336 23.186 133.234 23.2767 133.153C23.3673 133.072 23.4734 133.014 23.5873 132.982C23.7013 132.95 23.8203 132.946 23.936 132.97H30.1719L30.512 132.106H24.708C24.5923 132.129 24.4733 132.125 24.3593 132.093C24.2454 132.062 24.1393 132.003 24.0487 131.922C23.958 131.841 23.8851 131.739 23.835 131.624C23.7849 131.509 23.7589 131.384 23.7589 131.257C23.7589 131.13 23.7849 131.004 23.835 130.889C23.8851 130.774 23.958 130.672 24.0487 130.591C24.1393 130.51 24.2454 130.452 24.3593 130.42C24.4733 130.388 24.5923 130.384 24.708 130.408H31.2L31.5399 129.544H25.6C25.4169 129.506 25.2517 129.401 25.1328 129.246C25.014 129.091 24.949 128.896 24.949 128.695C24.949 128.494 25.014 128.299 25.1328 128.144C25.2517 127.989 25.4169 127.884 25.6 127.846H32.208L32.5439 126.982H26.5159C26.4003 127.006 26.2813 127.002 26.1673 126.97C26.0534 126.938 25.9473 126.88 25.8566 126.799C25.766 126.718 25.6931 126.616 25.643 126.501C25.5929 126.386 25.5669 126.26 25.5669 126.133C25.5669 126.006 25.5929 125.881 25.643 125.766C25.6931 125.651 25.766 125.549 25.8566 125.468C25.9473 125.387 26.0534 125.328 26.1673 125.297C26.2813 125.265 26.4003 125.261 26.5159 125.284H33.2239L33.5639 124.42H27.352C27.1665 124.385 26.9985 124.281 26.8774 124.125C26.7564 123.969 26.69 123.773 26.69 123.569C26.69 123.366 26.7564 123.169 26.8774 123.014C26.9985 122.858 27.1665 122.753 27.352 122.718H34.2399L34.712 121.543H28.6879C28.5723 121.567 28.4533 121.563 28.3393 121.531C28.2254 121.499 28.1193 121.441 28.0287 121.36C27.938 121.279 27.8651 121.177 27.815 121.062C27.7649 120.947 27.7389 120.821 27.7389 120.694C27.7389 120.567 27.7649 120.442 27.815 120.327C27.8651 120.212 27.938 120.11 28.0287 120.029C28.1193 119.948 28.2254 119.889 28.3393 119.858C28.4533 119.826 28.5723 119.822 28.6879 119.845H35.8879C36.0169 119.849 36.1433 119.886 36.2562 119.953C36.3691 120.021 36.4652 120.117 36.5363 120.233C36.6074 120.349 36.6515 120.482 36.6646 120.621C36.6778 120.76 36.6597 120.9 36.612 121.029L34.4479 126.451L33.432 129L32.4159 131.548L31.4 134.097L30.384 136.642L30.084 137.393C30.0154 137.56 29.9009 137.701 29.756 137.795L22.156 142.547C21.9784 142.623 21.7814 142.628 21.6008 142.561C21.4202 142.494 21.2677 142.359 21.1711 142.181C21.0745 142.003 21.04 141.794 21.0739 141.59C21.1078 141.387 21.2078 141.204 21.356 141.074L21.38 141.147Z" fill="white"/>
</g>
<path d="M229.732 186.774C217.042 186.569 206.909 175.292 207.1 161.586C207.29 147.881 217.732 136.937 230.422 137.143C243.112 137.349 253.245 148.626 253.054 162.331C252.864 176.037 242.422 186.98 229.732 186.774Z" fill="#263238"/>
<path d="M253.06 161.542C253.062 161.564 253.062 161.585 253.06 161.607C253.14 164.89 252.616 168.157 251.518 171.219C250.42 174.282 248.77 177.078 246.665 179.447C244.559 181.816 242.038 183.71 239.25 185.019C236.462 186.328 233.46 187.027 230.42 187.074C227.38 187.122 224.361 186.517 221.538 185.295C218.716 184.074 216.146 182.259 213.978 179.957C211.81 177.655 210.086 174.911 208.907 171.884C207.727 168.857 207.116 165.608 207.108 162.324C207.106 162.302 207.106 162.281 207.108 162.259L253.06 161.542Z" fill="#263238"/>
<path d="M246.22 161.715C246.266 165.16 245.364 168.543 243.63 171.435C241.895 174.327 239.406 176.599 236.476 177.963C233.546 179.327 230.308 179.722 227.17 179.098C224.032 178.475 221.136 176.86 218.848 174.459C216.56 172.058 214.982 168.978 214.315 165.608C213.647 162.239 213.92 158.731 215.098 155.529C216.276 152.327 218.307 149.574 220.934 147.619C223.561 145.663 226.666 144.593 229.856 144.543C231.975 144.51 234.078 144.928 236.047 145.773C238.016 146.618 239.812 147.873 241.332 149.468C242.851 151.063 244.065 152.965 244.904 155.066C245.743 157.168 246.19 159.427 246.22 161.715Z" fill="#FAFAFA"/>
<path d="M229.856 144.543C231.975 144.51 234.078 144.928 236.047 145.773C238.016 146.618 239.812 147.873 241.331 149.468C242.851 151.063 244.065 152.965 244.904 155.066C245.742 157.168 246.19 159.427 246.22 161.715L213.956 162.216C213.925 159.928 214.312 157.656 215.095 155.529C215.877 153.403 217.04 151.464 218.516 149.822C219.993 148.181 221.754 146.87 223.7 145.964C225.646 145.059 227.737 144.576 229.856 144.543Z" fill="#E0E0E0"/>
<path d="M239.916 161.81C239.944 163.909 239.395 165.97 238.339 167.732C237.283 169.495 235.766 170.879 233.981 171.711C232.196 172.542 230.223 172.783 228.311 172.404C226.4 172.024 224.635 171.04 223.241 169.577C221.846 168.115 220.885 166.238 220.478 164.185C220.072 162.132 220.238 159.995 220.956 158.044C221.674 156.093 222.911 154.416 224.512 153.225C226.113 152.033 228.004 151.381 229.948 151.351C232.554 151.311 235.068 152.39 236.937 154.351C238.807 156.313 239.878 158.995 239.916 161.81Z" fill="#263238"/>
<path d="M66.0814 186.694C53.4388 185.492 44.092 173.449 45.2048 159.795C46.3175 146.141 57.4684 136.047 70.1111 137.248C82.7537 138.45 92.1005 150.493 90.9877 164.147C89.875 177.801 78.724 187.896 66.0814 186.694Z" fill="#263238"/>
<path d="M91.064 161.542C91.064 161.564 91.064 161.585 91.064 161.607C91.1076 164.866 90.5564 168.102 89.442 171.131C88.3275 174.16 86.6715 176.922 84.5687 179.26C82.4658 181.597 79.9572 183.465 77.1861 184.755C74.4149 186.046 71.4355 186.735 68.418 186.782C62.3239 186.877 56.4443 184.353 52.0729 179.767C47.7014 175.18 45.1961 168.906 45.108 162.324C45.108 162.302 45.108 162.281 45.108 162.259L91.064 161.542Z" fill="#263238"/>
<path d="M84.2239 161.715C84.2695 165.16 83.3681 168.543 81.6337 171.435C79.8993 174.327 77.4098 176.599 74.4799 177.963C71.5501 179.327 68.3116 179.722 65.1738 179.098C62.036 178.475 59.14 176.86 56.8517 174.459C54.5635 172.058 52.986 168.978 52.3185 165.608C51.6511 162.239 51.9237 158.731 53.102 155.529C54.2803 152.327 56.3113 149.574 58.9381 147.619C61.565 145.663 64.6698 144.593 67.8599 144.543C72.1382 144.477 76.2656 146.249 79.3343 149.469C82.403 152.69 84.1618 157.094 84.2239 161.715Z" fill="#FAFAFA"/>
<path d="M67.86 144.543C69.9785 144.51 72.0824 144.928 74.0514 145.773C76.0203 146.618 77.8159 147.873 79.3355 149.468C80.8551 151.063 82.0689 152.965 82.9077 155.066C83.7465 157.168 84.1938 159.427 84.224 161.715L51.96 162.216C51.9293 159.928 52.3163 157.656 53.0987 155.529C53.8812 153.403 55.0439 151.464 56.5204 149.822C57.9969 148.181 59.7583 146.87 61.704 145.964C63.6496 145.059 65.7415 144.576 67.86 144.543Z" fill="#E0E0E0"/>
<path d="M77.916 161.81C77.9442 163.909 77.3955 165.97 76.3391 167.733C75.2827 169.495 73.7662 170.879 71.9813 171.711C70.1963 172.542 68.2232 172.783 66.3114 172.404C64.3996 172.024 62.6349 171.04 61.2407 169.577C59.8465 168.115 58.8852 166.238 58.4785 164.185C58.0718 162.132 58.2379 159.995 58.9559 158.044C59.6738 156.093 60.9114 154.416 62.5119 153.225C64.1125 152.033 66.0043 151.381 67.948 151.351C69.2384 151.331 70.52 151.585 71.7195 152.099C72.9189 152.614 74.0128 153.379 74.9385 154.35C75.8642 155.321 76.6036 156.48 77.1145 157.76C77.6254 159.04 77.8977 160.416 77.916 161.81Z" fill="#263238"/>
<path d="M93.512 104.587L112.096 90.2622C117.447 86.1432 123.268 82.789 129.416 80.283H135.544L98.368 106.968L93.512 104.587Z" fill="#455A64"/>
<path d="M38.6759 119.202H29.644C30.9585 117.32 32.525 115.661 34.2919 114.277C36.3559 113.56 38.8759 116.355 38.6759 119.202Z" fill="#FAFAFA"/>
<path d="M222.76 107.732H103.2L137.344 82.2961C139.846 80.314 142.869 79.2455 145.972 79.2462H220.08C220.08 79.2462 246.704 78.542 252.548 87.2166L222.76 107.732Z" fill="#263238"/>
<path d="M231.392 107.793C231.832 107.793 232.264 107.793 232.696 107.75C235.615 107.561 238.465 106.714 241.062 105.263C243.66 103.812 245.947 101.79 247.776 99.3255L252.664 92.7764C253.054 92.2496 253.324 91.6315 253.453 90.9716C253.582 90.3117 253.566 89.6283 253.407 88.9762C253.248 88.3241 252.949 87.7214 252.535 87.2163C252.121 86.7112 251.604 86.3177 251.024 86.0674L246.824 84.0673C241.835 81.9995 236.544 80.9096 231.2 80.8489H217.292L221.748 107.793H231.392ZM212.012 107.793L207.568 80.8489H166.608V107.793H212.012ZM154.156 107.793L158.956 80.8489H144.8C142.628 80.8482 140.513 81.6059 138.772 83.0089L108.068 107.788L154.156 107.793Z" fill="#455A64"/>
<path d="M159.052 156.816C159.058 156.775 159.058 156.732 159.052 156.691C159.052 156.591 159.052 156.47 159.052 156.315V154.876C159.052 153.611 159.032 151.805 159.016 149.584C158.968 145.1 158.9 138.936 158.828 132.123C158.78 128.714 158.736 125.466 158.696 122.511C158.696 121.033 158.652 119.629 158.632 118.316C158.583 117.102 158.622 115.886 158.748 114.679C158.953 112.931 159.326 111.211 159.86 109.547C160.048 108.959 160.208 108.505 160.32 108.199L160.452 107.853C160.47 107.815 160.483 107.774 160.492 107.732C160.469 107.767 160.448 107.805 160.432 107.844C160.396 107.918 160.348 108.035 160.284 108.181C160.156 108.484 159.984 108.933 159.78 109.516C159.218 111.179 158.824 112.903 158.604 114.657C158.466 115.871 158.418 117.094 158.46 118.316C158.46 119.634 158.488 121.038 158.504 122.511C158.54 125.47 158.58 128.714 158.62 132.127C158.716 138.936 158.804 145.087 158.872 149.584C158.912 151.805 158.948 153.611 158.972 154.876C158.988 155.49 159 155.969 159.008 156.315C159.008 156.47 159.008 156.591 159.008 156.691C159.017 156.735 159.032 156.777 159.052 156.816Z" fill="#263238"/>
<path d="M107.168 109.672C107.134 109.69 107.103 109.713 107.076 109.741C107.004 109.797 106.916 109.871 106.808 109.966L106.612 110.134L106.408 110.372C106.232 110.563 106.07 110.77 105.924 110.989C105.014 112.407 104.315 113.97 103.852 115.621C103.528 116.649 103.228 117.781 102.96 119.046C102.824 119.668 102.704 120.316 102.592 120.99C102.471 121.684 102.422 122.389 102.444 123.094C102.444 125.967 102.528 129.142 102.604 132.438C102.764 139.065 102.948 145.061 103.096 149.403C103.172 151.563 103.236 153.313 103.28 154.544C103.308 155.136 103.328 155.606 103.344 155.939L103.364 156.302C103.36 156.344 103.36 156.386 103.364 156.427C103.367 156.386 103.367 156.344 103.364 156.302C103.364 156.207 103.364 156.09 103.364 155.939C103.364 155.602 103.364 155.136 103.364 154.539C103.332 153.308 103.292 151.559 103.244 149.399C103.132 145.044 102.98 139.052 102.812 132.43C102.736 129.121 102.652 125.95 102.636 123.094C102.612 122.4 102.658 121.704 102.772 121.021C102.88 120.355 102.996 119.725 103.128 119.085C103.388 117.845 103.68 116.701 103.988 115.668C104.439 114.02 105.117 112.454 106 111.024C106.34 110.527 106.732 110.073 107.168 109.672Z" fill="#263238"/>
<path d="M103.224 108.795C103.22 108.004 103.413 107.226 103.781 106.542C104.15 105.859 104.681 105.294 105.32 104.907L110.7 101.641C112.236 100.712 113.967 100.224 115.728 100.224C116.815 100.223 117.895 100.408 118.928 100.773C120.049 101.193 121.025 101.972 121.726 103.006C122.427 104.04 122.82 105.28 122.852 106.561C122.882 107.423 122.751 108.281 122.467 109.086C122.182 109.892 121.751 110.627 121.197 111.247C120.644 111.868 119.98 112.362 119.246 112.699C118.512 113.036 117.722 113.21 116.924 113.21H107.324C106.239 113.208 105.199 112.742 104.431 111.915C103.663 111.088 103.229 109.966 103.224 108.795Z" fill="#744C9D"/>
<path d="M103.224 108.795C103.224 108.795 103.224 108.994 103.288 109.356C103.358 109.89 103.518 110.405 103.76 110.877C104.146 111.617 104.717 112.225 105.408 112.631C105.839 112.876 106.308 113.036 106.792 113.102C107.3 113.167 107.864 113.128 108.448 113.136L116.66 113.106C117.438 113.125 118.213 112.987 118.944 112.7C120.13 112.226 121.139 111.345 121.818 110.193C122.497 109.041 122.808 107.681 122.704 106.32C122.639 105.402 122.389 104.51 121.97 103.708C121.551 102.907 120.974 102.214 120.28 101.68C119.608 101.186 118.852 100.841 118.056 100.665C117.294 100.471 116.515 100.371 115.732 100.367C114.28 100.364 112.843 100.697 111.52 101.343C110.9 101.641 110.32 102.021 109.772 102.349L108.172 103.308L105.412 104.963C104.72 105.362 104.147 105.966 103.76 106.704C103.519 107.175 103.358 107.688 103.284 108.22C103.232 108.588 103.24 108.782 103.224 108.782C103.206 108.594 103.206 108.404 103.224 108.216C103.279 107.67 103.43 107.141 103.668 106.656C104.044 105.881 104.623 105.241 105.332 104.816L108.072 103.131L109.672 102.155C110.232 101.822 110.792 101.438 111.428 101.127C113.518 100.091 115.868 99.8359 118.108 100.401C118.933 100.583 119.717 100.939 120.416 101.447C121.142 102.002 121.745 102.724 122.183 103.56C122.62 104.397 122.882 105.327 122.948 106.285C123.018 107.256 122.889 108.233 122.572 109.145C122.261 110.01 121.784 110.795 121.173 111.447C120.561 112.099 119.829 112.604 119.024 112.929C118.266 113.227 117.462 113.366 116.656 113.34L108.444 113.314C107.885 113.326 107.325 113.307 106.768 113.257C106.267 113.184 105.783 113.012 105.34 112.748C104.633 112.319 104.053 111.683 103.668 110.912C103.431 110.427 103.283 109.897 103.232 109.352C103.214 109.167 103.211 108.981 103.224 108.795Z" fill="#263238"/>
<path d="M118.088 102.691C118.068 102.691 117.944 102.488 117.624 102.207C117.16 101.821 116.606 101.582 116.024 101.516C115.161 101.442 114.293 101.543 113.464 101.814C112.432 102.097 111.422 102.468 110.444 102.924C108.664 103.759 107.008 104.873 105.528 106.229C104.384 107.261 103.784 108.026 103.748 107.991C103.862 107.791 103.996 107.606 104.148 107.438C104.543 106.96 104.964 106.507 105.408 106.082C106.872 104.668 108.537 103.518 110.34 102.678C111.33 102.214 112.355 101.844 113.404 101.572C114.261 101.306 115.158 101.223 116.044 101.326C116.646 101.417 117.211 101.696 117.668 102.129C117.789 102.247 117.897 102.381 117.988 102.527C118.03 102.575 118.063 102.63 118.088 102.691Z" fill="white"/>
<path d="M196.616 162.726C196.616 162.726 196.616 162.622 196.616 162.419C196.616 162.216 196.592 161.909 196.572 161.52C196.552 161.132 196.512 160.656 196.508 160.065C196.504 159.473 196.528 158.82 196.54 158.073C196.552 157.326 196.668 156.496 196.736 155.589C196.776 155.135 196.872 154.669 196.94 154.181C197.008 153.693 197.076 153.183 197.192 152.664C197.677 150.313 198.366 148.016 199.252 145.804C200.35 143.135 201.738 140.616 203.388 138.3C205.273 135.639 207.499 133.281 210 131.298C212.77 129.108 215.855 127.428 219.132 126.325C222.65 125.142 226.315 124.543 230 124.55C233.685 124.588 237.344 125.213 240.86 126.403C244.137 127.515 247.238 129.157 250.06 131.272C252.612 133.181 254.933 135.427 256.968 137.959C258.744 140.163 260.311 142.554 261.644 145.096C262.714 147.207 263.635 149.402 264.4 151.662C264.576 152.159 264.704 152.656 264.852 153.122C265 153.589 265.14 154.043 265.252 154.483C265.456 155.347 265.652 156.168 265.82 156.902L266.18 158.855C266.276 159.421 266.324 159.909 266.38 160.298L266.5 161.188C266.528 161.387 266.548 161.49 266.548 161.49C266.548 161.49 266.548 161.387 266.52 161.183L266.42 160.294C266.372 159.9 266.328 159.43 266.24 158.842C266.152 158.255 266.028 157.619 265.896 156.881C265.764 156.142 265.548 155.343 265.348 154.457C265.248 154.025 265.096 153.563 264.948 153.088C264.8 152.613 264.676 152.12 264.504 151.619C263.743 149.345 262.82 147.138 261.744 145.018C260.414 142.46 258.848 140.053 257.072 137.834C255.03 135.286 252.701 133.023 250.14 131.099C247.308 128.969 244.194 127.314 240.904 126.191C237.368 124.995 233.689 124.366 229.984 124.325C226.278 124.319 222.594 124.922 219.056 126.114C215.761 127.229 212.66 128.923 209.876 131.129C207.362 133.128 205.125 135.503 203.232 138.184C201.582 140.516 200.195 143.053 199.1 145.739C198.219 147.968 197.538 150.283 197.064 152.651C196.948 153.17 196.9 153.688 196.816 154.172C196.732 154.656 196.656 155.131 196.62 155.589C196.56 156.501 196.464 157.317 196.444 158.082C196.424 158.846 196.444 159.499 196.444 160.078C196.444 160.656 196.508 161.14 196.528 161.538C196.548 161.935 196.576 162.225 196.592 162.432C196.608 162.639 196.616 162.726 196.616 162.726Z" fill="#263238"/>
<path d="M220.128 125.872C220.128 125.872 220.176 125.816 220.248 125.703C220.32 125.591 220.424 125.392 220.544 125.189C220.796 124.757 221.156 124.092 221.58 123.271C222.085 122.315 222.545 121.332 222.956 120.325C223.076 120.027 223.17 119.718 223.236 119.4C223.263 119.225 223.253 119.045 223.208 118.873C223.172 118.709 223.124 118.549 223.08 118.385C222.88 117.742 222.652 117.089 222.404 116.424C221.416 113.767 220.428 111.408 219.712 109.702C219.348 108.838 219.052 108.164 218.84 107.693C218.744 107.477 218.66 107.296 218.592 107.149C218.568 107.083 218.534 107.022 218.492 106.968C218.506 107.038 218.527 107.106 218.556 107.171L218.768 107.728L219.568 109.767C220.252 111.495 221.216 113.858 222.204 116.506C222.448 117.167 222.68 117.802 222.876 118.454C222.991 118.743 223.043 119.056 223.028 119.37C222.968 119.667 222.881 119.956 222.768 120.234C222.328 121.37 221.844 122.355 221.44 123.185L220.464 125.133L220.2 125.664C220.17 125.731 220.146 125.8 220.128 125.872Z" fill="#263238"/>
<path d="M253.38 134.184C253.38 134.248 259.812 134.266 267.744 134.227C275.676 134.188 282.112 134.106 282.112 134.045C282.112 133.985 275.68 133.963 267.744 134.002C259.808 134.041 253.38 134.123 253.38 134.184Z" fill="#263238"/>
<path d="M103.38 156.427C103.38 156.488 124.248 156.54 149.984 156.54C175.72 156.54 196.588 156.483 196.588 156.423C196.588 156.362 175.728 156.311 149.984 156.311C124.24 156.311 103.38 156.384 103.38 156.427Z" fill="#263238"/>
<path d="M21.78 156.695C21.78 156.76 24.98 156.807 28.916 156.807C32.852 156.807 36.056 156.76 36.056 156.695C36.056 156.63 32.856 156.583 28.916 156.583C24.976 156.583 21.78 156.635 21.78 156.695Z" fill="#263238"/>
<path d="M39.428 116.014H39.6L40.044 115.979L41.764 115.828C43.26 115.698 45.416 115.482 48.084 115.197C53.416 114.623 60.772 113.724 68.884 112.501C76.996 111.279 84.284 109.966 89.556 108.933C92.192 108.419 94.324 107.987 95.792 107.672L97.484 107.304L97.924 107.205L98.072 107.162C98.0215 107.157 97.9706 107.157 97.92 107.162L97.476 107.24L95.776 107.564L89.532 108.756C84.256 109.745 76.948 111.033 68.852 112.255C60.756 113.478 53.412 114.415 48.084 115.016L41.776 115.72L40.06 115.914L39.612 115.966L39.428 116.014Z" fill="#263238"/>
<path d="M143.3 118.727C143.3 118.727 143.184 118.727 142.976 118.675C142.672 118.617 142.382 118.492 142.124 118.308C141.716 118.019 141.41 117.589 141.256 117.089C141.163 116.779 141.125 116.452 141.144 116.126C141.153 115.761 141.239 115.404 141.396 115.081C141.576 114.714 141.845 114.406 142.174 114.19C142.503 113.974 142.879 113.858 143.264 113.854H146H152.272C152.793 113.855 153.296 114.063 153.684 114.438C154.073 114.813 154.32 115.329 154.38 115.888C154.444 116.421 154.353 116.961 154.12 117.435C153.885 117.883 153.519 118.233 153.08 118.433C152.647 118.591 152.188 118.651 151.732 118.61H150.4H148L144.544 118.649H143.608C143.498 118.647 143.389 118.654 143.28 118.67C143.388 118.69 143.498 118.697 143.608 118.692L144.544 118.714L148 118.8H150.4H151.728C151.96 118.8 152.18 118.8 152.428 118.8C152.676 118.782 152.921 118.722 153.152 118.623C153.633 118.408 154.033 118.026 154.292 117.539C154.549 117.025 154.65 116.437 154.58 115.858C154.517 115.243 154.246 114.675 153.82 114.262C153.393 113.849 152.841 113.621 152.268 113.62H145.996H143.26C142.846 113.629 142.441 113.759 142.089 113.995C141.737 114.232 141.451 114.566 141.26 114.964C141.097 115.309 141.009 115.691 141.004 116.078C140.991 116.422 141.037 116.764 141.14 117.089C141.311 117.61 141.641 118.052 142.076 118.342C142.347 118.524 142.651 118.639 142.968 118.679C143.076 118.71 143.188 118.726 143.3 118.727Z" fill="#263238"/>
<path d="M144.068 113.102C145.25 113.219 146.437 113.258 147.624 113.219C148.81 113.258 149.998 113.219 151.18 113.102C149.998 112.991 148.81 112.953 147.624 112.99C146.438 112.953 145.25 112.991 144.068 113.102Z" fill="white"/>
<path d="M202.4 119.12C202.4 119.12 202.284 119.12 202.076 119.068C201.771 119.012 201.481 118.887 201.224 118.701C200.815 118.413 200.509 117.983 200.356 117.482C200.262 117.172 200.224 116.845 200.244 116.519C200.253 116.154 200.339 115.797 200.496 115.474C200.678 115.108 200.947 114.801 201.275 114.586C201.604 114.37 201.98 114.253 202.364 114.247H205.1H211.372C211.893 114.248 212.396 114.456 212.784 114.831C213.173 115.206 213.42 115.722 213.48 116.282C213.544 116.814 213.453 117.354 213.22 117.828C212.985 118.276 212.619 118.627 212.18 118.826C211.747 118.986 211.288 119.047 210.832 119.003H209.504H207.104L203.648 119.038L202.712 119.059C202.602 119.057 202.493 119.064 202.384 119.081C202.492 119.101 202.602 119.109 202.712 119.107L203.648 119.128L207.104 119.163H209.504H210.832C211.064 119.163 211.284 119.163 211.532 119.163C211.781 119.147 212.025 119.087 212.256 118.986C212.737 118.772 213.139 118.39 213.396 117.902C213.653 117.389 213.753 116.803 213.684 116.225C213.623 115.609 213.353 115.04 212.926 114.626C212.499 114.212 211.946 113.983 211.372 113.983H205.1H202.36C201.945 113.992 201.541 114.121 201.189 114.358C200.837 114.594 200.55 114.929 200.36 115.327C200.197 115.672 200.109 116.054 200.104 116.441C200.091 116.785 200.137 117.127 200.24 117.452C200.411 117.973 200.741 118.415 201.176 118.705C201.446 118.886 201.749 119.001 202.064 119.042C202.172 119.084 202.285 119.11 202.4 119.12Z" fill="#263238"/>
<path d="M203.16 113.495C204.342 113.612 205.53 113.651 206.716 113.612C207.902 113.651 209.09 113.612 210.272 113.495C209.09 113.384 207.902 113.346 206.716 113.383C205.53 113.346 204.342 113.384 203.16 113.495Z" fill="white"/>
<path d="M35.7 163.529C35.7 163.529 35.7 163.426 35.7 163.223C35.7 163.02 35.7 162.713 35.7 162.324C35.7 161.935 35.7 161.46 35.7 160.868C35.7 160.276 35.78 159.628 35.828 158.885C35.876 158.142 36.02 157.317 36.128 156.414C36.184 155.982 36.296 155.503 36.38 155.019C36.464 154.535 36.556 154.03 36.684 153.52C37.2397 151.189 37.9839 148.915 38.908 146.725C40.0539 144.083 41.4708 141.59 43.132 139.29C45.0337 136.647 47.2625 134.3 49.756 132.313C52.5122 130.114 55.5817 128.414 58.844 127.28C65.8868 124.809 73.4731 124.809 80.516 127.28C83.7786 128.414 86.8492 130.112 89.608 132.309C92.1006 134.297 94.3293 136.644 96.232 139.285C97.8932 141.587 99.3101 144.082 100.456 146.725C101.38 148.914 102.124 151.186 102.68 153.516C102.808 154.03 102.884 154.535 102.984 155.019C103.084 155.503 103.18 155.965 103.236 156.414C103.344 157.317 103.476 158.142 103.536 158.881C103.596 159.62 103.624 160.289 103.664 160.864C103.704 161.438 103.664 161.931 103.664 162.324V163.218C103.664 163.421 103.664 163.525 103.664 163.525C103.664 163.525 103.664 163.421 103.664 163.223C103.664 163.024 103.664 162.713 103.664 162.324C103.664 161.935 103.688 161.438 103.664 160.864C103.64 160.289 103.596 159.62 103.556 158.872C103.516 158.125 103.376 157.304 103.276 156.397C103.224 155.965 103.112 155.481 103.028 154.993C102.944 154.505 102.86 153.999 102.732 153.485C102.184 151.144 101.448 148.858 100.532 146.655C99.4166 144.003 98.0307 141.494 96.4 139.173C94.4933 136.511 92.2563 134.144 89.752 132.14C86.9797 129.926 83.8929 128.213 80.612 127.069C73.5284 124.577 65.8956 124.577 58.812 127.069C55.5309 128.21 52.4448 129.923 49.676 132.14C47.1709 134.141 44.9338 136.507 43.028 139.169C41.3628 141.485 39.9446 143.996 38.8 146.655C37.8806 148.859 37.1431 151.146 36.596 153.49C36.468 154.004 36.396 154.513 36.3 154.997C36.204 155.481 36.108 155.948 36.056 156.397C35.952 157.304 35.828 158.125 35.772 158.877C35.716 159.628 35.696 160.289 35.664 160.868C35.632 161.447 35.664 161.931 35.664 162.324C35.664 162.717 35.664 163.015 35.664 163.223C35.664 163.43 35.7 163.529 35.7 163.529Z" fill="#263238"/>
<path d="M210.152 79.2461C210.212 79.2528 210.272 79.2528 210.332 79.2461H210.856H212.88H220.328L244.9 79.1597L258.432 79.0863C262.588 79.0517 266.336 79.0863 269.48 78.8876C271.963 78.7633 274.436 78.4559 276.88 77.9674C277.744 77.7903 278.412 77.6261 278.86 77.5008L279.368 77.3583C279.427 77.3442 279.484 77.3255 279.54 77.3021L279.364 77.3367L278.848 77.4576C278.4 77.57 277.728 77.7168 276.848 77.8896C274.403 78.3407 271.934 78.622 269.456 78.732C266.316 78.9092 262.572 78.8617 258.416 78.8833L244.884 78.9394L220.312 79.0906L212.864 79.164L210.84 79.1943H210.316C210.212 79.2375 210.152 79.2461 210.152 79.2461Z" fill="#263238"/>
<path d="M181.796 90.6855C181.768 90.7374 186.124 93.2775 191.52 96.3015C196.916 99.3255 201.316 101.784 201.34 101.727C201.364 101.671 197.016 99.1354 191.616 96.1114C186.216 93.0874 181.82 90.6294 181.796 90.6855Z" fill="#FAFAFA"/>
<path d="M172.68 88.7112C172.746 88.7655 172.817 88.8119 172.892 88.8494L173.512 89.2123L175.804 90.5083C177.74 91.6056 180.408 93.1262 183.336 94.8283C186.264 96.5304 188.896 98.1461 190.796 99.3081L193.048 100.682L193.664 101.049C193.734 101.097 193.809 101.135 193.888 101.161C193.826 101.104 193.759 101.054 193.688 101.01L193.092 100.608C192.568 100.259 191.812 99.7704 190.868 99.1699C188.988 97.9733 186.364 96.3533 183.432 94.6296C180.5 92.9059 177.832 91.4069 175.868 90.3485C174.892 89.8214 174.1 89.3981 173.548 89.1173L172.908 88.7933C172.836 88.7545 172.759 88.7269 172.68 88.7112Z" fill="#FAFAFA"/>
<path d="M133.14 92.2925C133.192 92.3358 133.25 92.3707 133.312 92.3962L133.812 92.6467L135.668 93.541C137.236 94.297 139.392 95.3597 141.752 96.5909C144.112 97.8221 146.22 98.9842 147.752 99.8395L149.556 100.855L150.052 101.123C150.107 101.158 150.166 101.185 150.228 101.205C150.228 101.205 150.18 101.157 150.072 101.084L149.596 100.777C149.196 100.513 148.576 100.146 147.824 99.7013C146.316 98.8114 144.224 97.619 141.852 96.3878C139.48 95.1566 137.32 94.1155 135.736 93.3941C134.936 93.0355 134.3 92.7504 133.852 92.5646L133.336 92.353C133.273 92.3235 133.208 92.3032 133.14 92.2925Z" fill="#FAFAFA"/>
<path d="M138.832 91.692C139.198 91.9297 139.579 92.1404 139.972 92.3227C140.68 92.6986 141.656 93.2299 142.708 93.865C143.76 94.5 144.708 95.1178 145.36 95.5714C145.712 95.8364 146.079 96.0759 146.46 96.2885C146.149 95.965 145.808 95.6756 145.444 95.4245C144.792 94.932 143.868 94.2883 142.812 93.6533C141.909 93.1064 140.981 92.6089 140.032 92.1629C139.648 91.9626 139.246 91.8049 138.832 91.692Z" fill="#FAFAFA"/>
<path d="M228.104 91.4458C228.08 91.5063 230.964 92.7418 234.54 94.2408C238.116 95.7399 241.032 96.8804 241.052 96.8328C241.072 96.7853 238.192 95.5368 234.616 94.0421C231.04 92.5474 228.124 91.3896 228.104 91.4458Z" fill="#FAFAFA"/>
<path d="M231.812 90.1541C231.792 90.2103 234.28 91.2471 237.364 92.461C240.448 93.6749 242.964 94.621 242.992 94.5605C243.02 94.5001 240.524 93.4676 237.436 92.2493C234.348 91.0311 231.832 90.0937 231.812 90.1541Z" fill="#FAFAFA"/>
<path d="M63.2 124.127C63.3097 124.13 63.4195 124.123 63.528 124.105L64.46 124.006L65.132 123.928C65.38 123.906 65.648 123.893 65.932 123.876C66.512 123.846 67.168 123.777 67.892 123.79H69.036C69.436 123.79 69.836 123.82 70.272 123.837C71.124 123.837 72.032 123.967 72.992 124.062C77.14 124.562 81.1895 125.763 84.992 127.621C85.86 128.053 86.692 128.485 87.436 128.917C87.812 129.142 88.18 129.349 88.524 129.561L89.5 130.196C90.128 130.589 90.66 131.008 91.144 131.35C91.384 131.527 91.608 131.687 91.808 131.842C92.008 131.998 92.188 132.144 92.352 132.274L93.104 132.875C93.1884 132.95 93.2795 133.017 93.376 133.073C93.3015 132.988 93.2198 132.909 93.132 132.84L92.4 132.205L91.868 131.751C91.668 131.587 91.468 131.427 91.212 131.246C90.732 130.887 90.204 130.46 89.576 130.058L88.604 129.406C88.264 129.181 87.892 128.974 87.52 128.749C86.776 128.287 85.92 127.885 85.072 127.418C81.2565 125.528 77.1822 124.318 73.008 123.837C72.044 123.746 71.132 123.643 70.272 123.634C69.844 123.634 69.432 123.591 69.032 123.6L67.888 123.621C67.156 123.621 66.5 123.699 65.92 123.742C65.632 123.768 65.364 123.781 65.12 123.811L64.448 123.911L63.516 124.053C63.4088 124.067 63.303 124.092 63.2 124.127Z" fill="#FAFAFA"/>
<path d="M228.972 122.969C229.058 122.985 229.145 122.993 229.232 122.99H229.972C230.292 122.99 230.684 122.99 231.14 123.025C231.596 123.059 232.116 123.064 232.684 123.133L233.584 123.219C233.892 123.254 234.216 123.31 234.552 123.353C235.22 123.44 235.928 123.591 236.676 123.729C238.288 124.081 239.881 124.53 241.448 125.073C243.011 125.63 244.546 126.273 246.048 126.999C247.428 127.678 248.648 128.343 249.648 128.952C250.156 129.241 250.596 129.535 250.992 129.781C251.388 130.028 251.724 130.244 251.996 130.429L252.628 130.861C252.7 130.913 252.776 130.958 252.856 130.995C252.795 130.929 252.726 130.871 252.652 130.823C252.492 130.71 252.292 130.559 252.04 130.391C251.788 130.222 251.444 129.959 251.052 129.708C250.66 129.457 250.224 129.146 249.72 128.844C248.724 128.218 247.504 127.548 246.12 126.839C244.618 126.087 243.08 125.422 241.512 124.848C239.938 124.302 238.335 123.858 236.712 123.517C235.96 123.383 235.248 123.237 234.572 123.163C234.236 123.12 233.912 123.068 233.6 123.038L232.696 122.964C232.124 122.904 231.6 122.904 231.144 122.891C230.688 122.878 230.292 122.891 229.972 122.891L229.228 122.921C229.141 122.926 229.055 122.942 228.972 122.969Z" fill="#FAFAFA"/>
<path d="M170.81 81.537L206.636 83.1383L205.718 107.089L169.893 105.488L170.81 81.537Z" fill="#E0E0E0"/>
<path d="M205.92 107.322L206.852 82.9441L170.628 81.3284L169.696 105.71L205.92 107.322ZM206.436 83.3761L205.536 106.894L170.112 105.313L171.012 81.7949L206.436 83.3761Z" fill="#263238"/>
<path d="M202.4 90.3528L200.8 90.288L200.748 91.5538L202.372 91.6272L202.232 95.2819L203.488 95.3381L203.828 86.4864L200.504 86.3352L200.456 87.601L202.524 87.6917L202.4 90.3528Z" fill="#744C9D"/>
<path d="M199.908 88.4304C199.96 87.0134 199.316 86.1753 198.084 86.1192C196.852 86.063 196.144 86.8406 196.084 88.2792L195.908 92.8843C195.856 94.3012 196.5 95.1393 197.732 95.1955C198.964 95.2516 199.672 94.4697 199.732 93.0355L199.908 88.4304ZM198.472 93.0657C198.444 93.6964 198.184 93.9297 197.784 93.9081C197.384 93.8865 197.144 93.6403 197.168 93.0052L197.352 88.2273C197.376 87.5923 197.636 87.3633 198.036 87.3849C198.436 87.4065 198.676 87.6528 198.652 88.2835L198.472 93.0657Z" fill="#744C9D"/>
<path d="M192.4 94.8326C192.517 94.4856 192.57 94.1173 192.556 93.7483L192.608 92.3572C192.64 91.5364 192.904 91.247 193.476 91.2686H193.908L193.772 94.8715L195.028 94.9277L195.368 86.076L193.468 85.9939C192.168 85.9334 191.58 86.5771 191.528 87.9465L191.504 88.642C191.468 89.5492 191.708 90.1584 192.256 90.4737C191.616 90.7372 191.384 91.3982 191.352 92.3184L191.3 93.6835C191.308 94.0501 191.246 94.4145 191.12 94.7548L192.4 94.8326ZM194.06 87.3072L193.956 90.0244H193.464C192.996 90.0028 192.72 89.7652 192.748 89.0568L192.78 88.1928C192.804 87.5577 193.012 87.2899 193.456 87.3288L194.06 87.3072Z" fill="#744C9D"/>
<path d="M187.304 85.6397C186.084 85.5835 185.424 86.3654 185.368 87.7997V88.0762L186.568 88.128V87.7608C186.592 87.1301 186.832 86.8968 187.232 86.8968C187.632 86.8968 187.852 87.1646 187.828 87.7953C187.756 89.6184 185.288 89.8473 185.188 92.3789C185.136 93.7958 185.744 94.6339 186.98 94.6857C188.216 94.7376 188.884 93.9643 188.94 92.5473L188.96 92.003L187.76 91.9469L187.736 92.5819C187.712 93.2126 187.448 93.4459 187.048 93.4113C186.648 93.3768 186.408 93.1565 186.432 92.5214C186.5 90.7027 188.972 90.4694 189.068 87.9422C189.124 86.5296 188.528 85.6915 187.304 85.6397Z" fill="#744C9D"/>
<path d="M180.312 94.2927L181.58 94.3489L181.86 92.7548L183.4 92.8239L183.556 94.4396L184.712 94.4914L183.772 85.5793L181.932 85.4972L180.312 94.2927ZM183.288 91.6143L182.088 91.5581L182.864 87.1129L183.288 91.6143Z" fill="#744C9D"/>
<path d="M180.068 85.415L178.812 85.3589L178.52 92.9491L176.452 92.8541L176.404 94.1198L179.728 94.2667L180.068 85.415Z" fill="#744C9D"/>
<path d="M174.8 88.9186L173.076 88.8408L173.028 90.1066L174.752 90.18L174.652 92.772L172.484 92.677L172.432 93.9427L175.864 94.0939L176.2 85.2423L172.772 85.0911L172.724 86.3525L174.896 86.4519L174.8 88.9186Z" fill="#744C9D"/>
<path d="M174.675 96.6599L201.592 97.8631C202.828 97.9183 203.788 99.0453 203.737 100.38L203.71 101.084C203.659 102.419 202.616 103.456 201.38 103.401L174.463 102.198C173.227 102.143 172.266 101.016 172.317 99.6806L172.344 98.977C172.395 97.6421 173.439 96.6047 174.675 96.6599Z" fill="#FAFAFA"/>
<path d="M197.632 102.168C197.618 102.121 197.596 102.077 197.568 102.038C197.495 101.923 197.411 101.817 197.316 101.723C196.963 101.368 196.515 101.143 196.036 101.079C195.702 101.032 195.363 101.073 195.048 101.2C194.857 101.271 194.687 101.394 194.553 101.557C194.419 101.719 194.327 101.916 194.284 102.129C194.247 102.366 194.267 102.609 194.34 102.835C194.413 103.062 194.539 103.265 194.704 103.425C194.887 103.585 195.101 103.699 195.33 103.757C195.56 103.816 195.798 103.817 196.028 103.762C196.484 103.653 196.89 103.375 197.176 102.976C197.438 102.615 197.62 102.194 197.708 101.745C197.87 100.988 197.778 100.193 197.448 99.5026C197.226 99.045 196.907 98.651 196.516 98.3534C196.411 98.2736 196.3 98.2028 196.184 98.1418C196.143 98.1199 196.1 98.1039 196.056 98.0942C196.056 98.0942 196.212 98.2022 196.456 98.4226C196.814 98.7334 197.103 99.1258 197.304 99.5717C197.595 100.234 197.669 100.984 197.512 101.697C197.422 102.113 197.248 102.502 197.004 102.838C196.748 103.195 196.384 103.444 195.976 103.542C195.777 103.591 195.571 103.59 195.372 103.541C195.173 103.491 194.987 103.394 194.828 103.257C194.687 103.122 194.58 102.952 194.516 102.761C194.452 102.57 194.434 102.364 194.464 102.164C194.499 101.984 194.576 101.818 194.687 101.679C194.798 101.541 194.94 101.435 195.1 101.373C195.388 101.25 195.7 101.205 196.008 101.239C196.464 101.285 196.897 101.476 197.252 101.788C197.516 102.012 197.6 102.181 197.632 102.168Z" fill="#263238"/>
<path d="M193.088 102.989C193.088 102.989 192.936 103.049 192.66 103.084C192.268 103.123 191.875 103.015 191.548 102.777C191.331 102.613 191.158 102.389 191.048 102.129C190.928 101.831 190.906 101.497 190.984 101.183C191.031 101.015 191.114 100.862 191.227 100.736C191.34 100.61 191.478 100.514 191.632 100.457C191.974 100.336 192.342 100.336 192.684 100.457C193.01 100.566 193.325 100.711 193.624 100.889L193.732 100.703C193.496 100.524 193.306 100.283 193.179 100.003C193.051 99.7225 192.991 99.4124 193.004 99.1008C193.001 98.9755 193.026 98.8513 193.078 98.739C193.129 98.6268 193.206 98.53 193.3 98.4571C193.395 98.4177 193.497 98.4004 193.599 98.4063C193.701 98.4123 193.801 98.4414 193.892 98.4917C194.293 98.6672 194.653 98.9356 194.948 99.2779C194.901 99.1608 194.833 99.0551 194.748 98.9669C194.526 98.7027 194.253 98.4947 193.948 98.3577C193.839 98.2948 193.719 98.2573 193.596 98.2476C193.472 98.238 193.348 98.2563 193.232 98.3016C193.11 98.3861 193.009 98.5023 192.939 98.6397C192.869 98.777 192.833 98.9311 192.832 99.0878C192.812 99.4363 192.875 99.7845 193.015 100.099C193.155 100.414 193.367 100.684 193.632 100.885L193.74 100.695C193.429 100.502 193.101 100.346 192.76 100.228C192.368 100.095 191.947 100.103 191.56 100.25C191.379 100.318 191.215 100.432 191.083 100.582C190.95 100.732 190.853 100.915 190.8 101.114C190.712 101.474 190.743 101.856 190.888 102.194C191.018 102.481 191.219 102.723 191.468 102.894C191.825 103.136 192.252 103.23 192.668 103.157C192.778 103.137 192.884 103.099 192.984 103.045C193.056 103.019 193.092 102.997 193.088 102.989Z" fill="#263238"/>
<path d="M189.12 102.613C189.177 102.216 189.201 101.814 189.192 101.412C189.192 100.669 189.22 99.6409 189.216 98.5047V97.8438H189.008C189.067 98.6775 189.288 99.4884 189.656 100.224C189.786 100.528 189.968 100.802 190.192 101.032C190.22 101.032 190.016 100.708 189.792 100.168C189.473 99.4376 189.283 98.6494 189.232 97.8438H189.024V98.4961C189.024 99.6322 189.024 100.656 189.06 101.403C189.042 101.808 189.062 102.213 189.12 102.613Z" fill="#263238"/>
<path d="M187.916 100.574C188.017 100.067 188.017 99.5429 187.916 99.036C187.879 98.5203 187.743 98.0186 187.516 97.5629C187.547 98.0705 187.615 98.5746 187.72 99.0705C187.749 99.5765 187.814 100.079 187.916 100.574Z" fill="#263238"/>
<path d="M186.18 100.345C186.811 100.523 187.47 100.553 188.112 100.431C187.481 100.253 186.822 100.224 186.18 100.345Z" fill="#263238"/>
<path d="M186.036 103.473C186.125 103.194 186.177 102.903 186.192 102.609C186.27 101.899 186.31 101.185 186.312 100.47C186.317 99.7487 186.283 99.0274 186.208 98.3103C186.198 98.016 186.148 97.725 186.06 97.4463C186 97.4463 186.112 98.7984 186.104 100.47C186.096 102.142 185.976 103.468 186.036 103.473Z" fill="#263238"/>
<path d="M184.496 102.073C184.363 102.055 184.229 102.055 184.096 102.073C183.744 102.106 183.389 102.057 183.056 101.93C182.84 101.83 182.657 101.661 182.532 101.447C182.46 101.333 182.419 101.2 182.411 101.062C182.403 100.925 182.43 100.787 182.488 100.665C182.563 100.532 182.665 100.419 182.785 100.333C182.905 100.247 183.041 100.191 183.184 100.168C183.508 100.122 183.837 100.153 184.148 100.259L184.296 100.302L185.256 100.578L184.368 100.09C184.083 99.9307 183.814 99.7381 183.568 99.5156C183.448 99.4076 183.336 99.2953 183.228 99.1786C183.127 99.0778 183.042 98.9595 182.976 98.8287C182.958 98.773 182.955 98.7127 182.968 98.6552C182.98 98.5977 183.008 98.5455 183.048 98.5047C183.133 98.421 183.241 98.3695 183.356 98.3578C183.587 98.3377 183.819 98.3656 184.04 98.4399C184.367 98.5488 184.666 98.7398 184.912 98.9972C185.088 99.1786 185.16 99.3039 185.176 99.2953C185.133 99.1603 185.062 99.0376 184.968 98.9367C184.731 98.6416 184.426 98.4195 184.084 98.293C183.846 98.1993 183.593 98.1582 183.34 98.1721C183.184 98.1856 183.037 98.2539 182.92 98.3665C182.854 98.4326 182.808 98.5183 182.786 98.6127C182.765 98.7072 182.77 98.8063 182.8 98.8978C182.868 99.0612 182.966 99.2082 183.088 99.3298C183.198 99.4558 183.314 99.5755 183.436 99.6884C183.697 99.9252 183.981 100.13 184.284 100.298L184.36 100.086L184.208 100.043C183.867 99.9308 183.509 99.8999 183.156 99.9519C182.985 99.984 182.822 100.056 182.679 100.163C182.536 100.269 182.416 100.408 182.328 100.57C182.256 100.725 182.224 100.899 182.236 101.072C182.248 101.246 182.303 101.412 182.396 101.555C182.545 101.796 182.761 101.98 183.012 102.082C183.367 102.206 183.745 102.235 184.112 102.164C184.243 102.153 184.373 102.123 184.496 102.073Z" fill="#263238"/>
<path d="M180.352 104.211C180.339 103.776 180.292 103.342 180.212 102.915C180.1 102.108 179.928 100.993 179.728 99.7661C179.628 99.157 179.528 98.5738 179.44 98.0381C179.408 97.8999 179.408 97.7919 179.44 97.7703C179.472 97.7487 179.608 97.7487 179.716 97.7703L180.332 97.8307C180.738 97.89 181.147 97.9117 181.556 97.8955C181.163 97.7799 180.762 97.7047 180.356 97.6709L179.744 97.5845C179.611 97.5481 179.47 97.5603 179.344 97.6191C179.308 97.6474 179.279 97.6845 179.259 97.7273C179.239 97.77 179.228 97.8173 179.228 97.8653C179.228 97.9393 179.235 98.0131 179.248 98.0856C179.336 98.6256 179.428 99.2088 179.524 99.8136C179.724 101.041 179.924 102.151 180.068 102.95C180.129 103.378 180.224 103.8 180.352 104.211Z" fill="#263238"/>
<path d="M177.824 100.63C178.385 100.789 178.961 100.876 179.54 100.889C180.114 100.972 180.695 100.984 181.272 100.924C180.712 100.76 180.136 100.673 179.556 100.665C178.982 100.576 178.4 100.565 177.824 100.63Z" fill="#263238"/>
<path d="M174.08 101.239C174.402 101.394 174.735 101.521 175.076 101.619C175.708 101.835 176.6 102.129 177.636 102.457L177.888 102.54L177.748 102.298C177.508 101.866 177.256 101.434 176.988 100.98L176.436 100.03C176.256 99.7453 176.094 99.448 175.952 99.1397C175.885 99.0158 175.848 98.8759 175.844 98.7326C175.84 98.5893 175.869 98.4471 175.928 98.3189C175.994 98.2178 176.082 98.1363 176.185 98.0819C176.288 98.0276 176.402 98.0021 176.516 98.0079C176.691 98.0228 176.861 98.0765 177.016 98.1657C177.171 98.2549 177.307 98.3777 177.416 98.5263C177.498 98.6434 177.589 98.7532 177.688 98.8546C177.64 98.7144 177.569 98.5844 177.48 98.4701C177.381 98.329 177.265 98.2026 177.136 98.0943C176.957 97.946 176.741 97.8601 176.516 97.848C176.374 97.8373 176.232 97.8658 176.103 97.9308C175.975 97.9958 175.863 98.0952 175.78 98.2196C175.704 98.3739 175.664 98.5459 175.664 98.7207C175.664 98.8954 175.704 99.0675 175.78 99.2218C175.919 99.5413 176.081 99.8489 176.264 100.142L176.8 101.088C177.068 101.546 177.328 101.987 177.568 102.384L177.68 102.22C176.64 101.905 175.74 101.641 175.1 101.46C174.766 101.355 174.425 101.281 174.08 101.239Z" fill="#263238"/>
<path d="M201.328 99.0619C201.497 99.0601 201.661 99.1216 201.792 99.2358C201.923 99.3501 202.014 99.51 202.048 99.6883C202.184 100.319 201.648 102.069 200.724 102.561C200.603 102.591 200.476 102.583 200.359 102.539C200.241 102.494 200.138 102.415 200.06 102.311V102.267L200.372 101.485L200.8 101.65C200.8 101.65 201.564 100.786 201.384 100.233C201.384 100.233 201.072 99.9389 201.044 99.9648C201.016 99.9907 201.328 99.0619 201.328 99.0619Z" fill="#263238"/>
<path d="M199.908 101.339C199.876 101.02 199.905 100.699 199.992 100.393C200.188 99.913 200.612 99.7575 200.588 99.697C200.564 99.6365 200.464 99.6668 200.296 99.7489C200.077 99.8658 199.901 100.061 199.8 100.302C199.701 100.544 199.684 100.816 199.752 101.071C199.804 101.261 199.888 101.352 199.908 101.339Z" fill="#263238"/>
<path d="M199.352 101.801C199.384 101.801 199.3 101.611 199.248 101.321C199.183 100.946 199.227 100.558 199.376 100.211C199.536 99.8716 199.791 99.595 200.104 99.4205C200.344 99.2823 200.504 99.2477 200.504 99.2088C200.504 99.1699 200.312 99.1613 200.032 99.2736C199.658 99.425 199.352 99.7262 199.177 100.115C199.003 100.503 198.974 100.949 199.096 101.36C199.2 101.667 199.336 101.814 199.352 101.801Z" fill="#263238"/>
<path d="M203.036 80.8489H205.448V84.6721H203.036V80.8489Z" fill="#FAFAFA"/>
<path d="M171.476 80.7235H173.888V82.5466H171.476V80.7235Z" fill="#FAFAFA"/>
</svg>
