<svg width="16" height="16" viewBox="0 0 16 16" fill="none" xmlns="http://www.w3.org/2000/svg">
<g clip-path="url(#clip0_19_741)">
<path d="M15.5 6.5C15.3674 6.5 15.2402 6.55268 15.1464 6.64645C15.0527 6.74021 15 6.86739 15 7V8.5H14V7.5C14 7.23478 13.8946 6.98043 13.7071 6.79289C13.5196 6.60536 13.2652 6.5 13 6.5H12.2069L10 4.29313C9.90748 4.19986 9.79734 4.12592 9.67599 4.0756C9.55464 4.02528 9.4245 3.99958 9.29313 4H8V3H9.5C9.63261 3 9.75979 2.94732 9.85355 2.85355C9.94732 2.75979 10 2.63261 10 2.5C10 2.36739 9.94732 2.24021 9.85355 2.14645C9.75979 2.05268 9.63261 2 9.5 2H5.5C5.36739 2 5.24021 2.05268 5.14645 2.14645C5.05268 2.24021 5 2.36739 5 2.5C5 2.63261 5.05268 2.75979 5.14645 2.85355C5.24021 2.94732 5.36739 3 5.5 3H7V4H3C2.73478 4 2.48043 4.10536 2.29289 4.29289C2.10536 4.48043 2 4.73478 2 5V8.5H1V7C1 6.86739 0.947322 6.74021 0.853553 6.64645C0.759785 6.55268 0.632608 6.5 0.5 6.5C0.367392 6.5 0.240215 6.55268 0.146447 6.64645C0.0526784 6.74021 0 6.86739 0 7L0 11C0 11.1326 0.0526784 11.2598 0.146447 11.3536C0.240215 11.4473 0.367392 11.5 0.5 11.5C0.632608 11.5 0.759785 11.4473 0.853553 11.3536C0.947322 11.2598 1 11.1326 1 11V9.5H2V10.7931C1.99958 10.9245 2.02528 11.0546 2.0756 11.176C2.12592 11.2973 2.19986 11.4075 2.29312 11.5L4.5 13.7069C4.59252 13.8001 4.70266 13.8741 4.82401 13.9244C4.94536 13.9747 5.0755 14.0004 5.20687 14H9.29313C9.4245 14.0004 9.55464 13.9747 9.67599 13.9244C9.79734 13.8741 9.90748 13.8001 10 13.7069L12.2069 11.5H13C13.2652 11.5 13.5196 11.3946 13.7071 11.2071C13.8946 11.0196 14 10.7652 14 10.5V9.5H15V11C15 11.1326 15.0527 11.2598 15.1464 11.3536C15.2402 11.4473 15.3674 11.5 15.5 11.5C15.6326 11.5 15.7598 11.4473 15.8536 11.3536C15.9473 11.2598 16 11.1326 16 11V7C16 6.86739 15.9473 6.74021 15.8536 6.64645C15.7598 6.55268 15.6326 6.5 15.5 6.5ZM13 10.5H12.2069C12.0755 10.4996 11.9454 10.5253 11.824 10.5756C11.7027 10.6259 11.5925 10.6999 11.5 10.7931L9.29313 13H5.20687L3 10.7931V5H9.29313L11.5 7.20687C11.5925 7.30014 11.7027 7.37408 11.824 7.4244C11.9454 7.47472 12.0755 7.50042 12.2069 7.5H13V10.5Z" fill="#9A9A9A"/>
<path d="M15.5 6.5C15.3674 6.5 15.2402 6.55268 15.1464 6.64645C15.0527 6.74021 15 6.86739 15 7V8.5H14V7.5C14 7.23478 13.8946 6.98043 13.7071 6.79289C13.5196 6.60536 13.2652 6.5 13 6.5H12.2069L10 4.29313C9.90748 4.19986 9.79734 4.12592 9.67599 4.0756C9.55464 4.02528 9.4245 3.99958 9.29313 4H8V3H9.5C9.63261 3 9.75979 2.94732 9.85355 2.85355C9.94732 2.75979 10 2.63261 10 2.5C10 2.36739 9.94732 2.24021 9.85355 2.14645C9.75979 2.05268 9.63261 2 9.5 2H5.5C5.36739 2 5.24021 2.05268 5.14645 2.14645C5.05268 2.24021 5 2.36739 5 2.5C5 2.63261 5.05268 2.75979 5.14645 2.85355C5.24021 2.94732 5.36739 3 5.5 3H7V4H3C2.73478 4 2.48043 4.10536 2.29289 4.29289C2.10536 4.48043 2 4.73478 2 5V8.5H1V7C1 6.86739 0.947322 6.74021 0.853553 6.64645C0.759785 6.55268 0.632608 6.5 0.5 6.5C0.367392 6.5 0.240215 6.55268 0.146447 6.64645C0.0526784 6.74021 0 6.86739 0 7L0 11C0 11.1326 0.0526784 11.2598 0.146447 11.3536C0.240215 11.4473 0.367392 11.5 0.5 11.5C0.632608 11.5 0.759785 11.4473 0.853553 11.3536C0.947322 11.2598 1 11.1326 1 11V9.5H2V10.7931C1.99958 10.9245 2.02528 11.0546 2.0756 11.176C2.12592 11.2973 2.19986 11.4075 2.29312 11.5L4.5 13.7069C4.59252 13.8001 4.70266 13.8741 4.82401 13.9244C4.94536 13.9747 5.0755 14.0004 5.20687 14H9.29313C9.4245 14.0004 9.55464 13.9747 9.67599 13.9244C9.79734 13.8741 9.90748 13.8001 10 13.7069L12.2069 11.5H13C13.2652 11.5 13.5196 11.3946 13.7071 11.2071C13.8946 11.0196 14 10.7652 14 10.5V9.5H15V11C15 11.1326 15.0527 11.2598 15.1464 11.3536C15.2402 11.4473 15.3674 11.5 15.5 11.5C15.6326 11.5 15.7598 11.4473 15.8536 11.3536C15.9473 11.2598 16 11.1326 16 11V7C16 6.86739 15.9473 6.74021 15.8536 6.64645C15.7598 6.55268 15.6326 6.5 15.5 6.5ZM13 10.5H12.2069C12.0755 10.4996 11.9454 10.5253 11.824 10.5756C11.7027 10.6259 11.5925 10.6999 11.5 10.7931L9.29313 13H5.20687L3 10.7931V5H9.29313L11.5 7.20687C11.5925 7.30014 11.7027 7.37408 11.824 7.4244C11.9454 7.47472 12.0755 7.50042 12.2069 7.5H13V10.5Z" fill="#744C9D" fill-opacity="0.15"/>
</g>
<defs>
<clipPath id="clip0_19_741">
<rect width="16" height="16" fill="white"/>
</clipPath>
</defs>
</svg>
