<svg width="300" height="216" viewBox="0 0 300 216" fill="none" xmlns="http://www.w3.org/2000/svg">
<rect width="300" height="216" fill="white"/>
<rect width="300" height="216" fill="#744C9D" fill-opacity="0.05"/>
<path d="M292.712 199.804C292.712 199.869 231.632 199.917 156.312 199.917C80.992 199.917 19.912 199.869 19.912 199.804C19.912 199.74 80.98 199.692 156.332 199.692C231.684 199.692 292.712 199.744 292.712 199.804Z" fill="#263238"/>
<path d="M224.224 142.789H46.5961V161.961H224.224V142.789Z" fill="#744C9D"/>
<g opacity="0.4">
<path d="M224.224 142.789H46.5961V161.961H224.224V142.789Z" fill="black"/>
</g>
<path d="M185.74 164.38H133.308V182.136H185.74V164.38Z" fill="#455A64"/>
<path d="M96.6681 156.349V179.82H114.572L121.748 168.588H252.472V156.349H96.6681Z" fill="#263238"/>
<path d="M95.5521 82.0282C95.5324 81.6508 95.3764 81.2968 95.1176 81.0423C94.8587 80.7878 94.5178 80.6532 94.168 80.6674C87.092 80.9828 53.5001 82.646 46.5921 86.2316C41.3041 88.9791 35.5121 99.2348 31.4281 106.142C28.5001 111.093 22.0321 122.083 20.7241 127.704C19.6161 132.456 18.9481 142.34 19.0241 147.243L20.8721 173.189H51.316L54.3641 164.618C55.3367 161.888 57.0526 159.54 59.2855 157.884C61.5184 156.229 64.1635 155.343 66.872 155.343H97.124V112.285L95.5521 82.0282Z" fill="#744C9D"/>
<path d="M42.984 89.1044C38.792 93.4244 34.584 100.768 31.428 106.142C28.716 110.726 22.972 120.485 21.096 126.369C21.06 126.477 21.032 126.58 21 126.688C21.928 126.412 23.356 125.846 23.8 124.896C24.468 123.457 25.324 118.528 35.908 99.9217C39.124 94.2495 42.26 90.9317 42.984 89.1044Z" fill="#455A64"/>
<path d="M79.9121 87.1819C72.1281 87.6615 55.2521 88.9099 49.8601 90.8885C42.8361 93.4805 34.9521 113.564 34.5801 114.445L29.2681 129.133C29.2383 129.229 29.2301 129.332 29.2441 129.432C29.258 129.532 29.2938 129.627 29.3485 129.709C29.4032 129.792 29.4752 129.859 29.5586 129.905C29.6419 129.951 29.7343 129.976 29.8281 129.976H43.5601C44.0802 129.976 44.5961 129.877 45.0841 129.682L81.2001 115.141C81.9975 114.82 82.685 114.243 83.1704 113.488C83.6558 112.733 83.916 111.835 83.9161 110.916V91.273C83.9163 90.7157 83.8113 90.1643 83.6074 89.6524C83.4034 89.1405 83.1049 88.6789 82.7301 88.2959C82.3553 87.9129 81.912 87.6166 81.4275 87.4251C80.9429 87.2335 80.4272 87.1508 79.9121 87.1819Z" fill="#263238"/>
<path d="M30.8 128.533C30.8 128.533 35.888 116.208 37.6 112.169C40.184 106.069 46.22 93.5928 50.296 92.2493C54.044 91.0354 64.82 89.5579 79.988 88.6205H80.132C80.7835 88.6228 81.4075 88.9036 81.8678 89.4014C82.328 89.8993 82.587 90.5738 82.588 91.2773V111.365C82.5866 111.86 82.4458 112.343 82.1843 112.75C81.9228 113.156 81.5531 113.468 81.124 113.642L54.44 117.197C53.3704 117.34 52.3423 117.732 51.4271 118.347C50.5119 118.961 49.7315 119.784 49.14 120.757L44.516 128.373C44.2446 128.482 43.9575 128.537 43.668 128.537L30.8 128.533Z" fill="#455A64"/>
<path d="M53.472 117.418L44.4 128.33L49.42 92.0982L50.676 91.6316L48.204 118.472C48.1924 118.607 48.2129 118.742 48.2638 118.866C48.3146 118.99 48.394 119.097 48.4944 119.178C48.5948 119.259 48.7127 119.311 48.837 119.329C48.9612 119.347 49.0876 119.33 49.204 119.28L53.472 117.418Z" fill="#263238"/>
<path d="M18.428 149.761C18.396 149.291 18.544 148.897 18.768 148.897L23.6321 148.414C24.0321 148.37 24.404 149.187 24.452 150.142L24.672 154.172C24.708 154.82 24.528 155.369 24.272 155.416L19.312 156.341C19.088 156.384 18.872 156.025 18.84 155.55L18.428 149.761Z" fill="#EBEBEB"/>
<path d="M53.4721 168.592H18.4241V183.768H53.4721V168.592Z" fill="#263238"/>
<path d="M76.8676 199.62C87.4504 199.18 95.6999 189.559 95.2934 178.13C94.8868 166.7 85.9782 157.791 75.3954 158.23C64.8126 158.669 56.5631 168.29 56.9696 179.72C57.3762 191.149 66.2848 200.059 76.8676 199.62Z" fill="#263238"/>
<path d="M56.972 178.567C56.9741 178.586 56.9741 178.605 56.972 178.623C56.9049 184.111 58.8576 189.404 62.4011 193.338C65.9446 197.272 70.789 199.526 75.8703 199.605C80.9516 199.684 85.8542 197.581 89.501 193.759C93.1479 189.937 95.2408 184.707 95.32 179.22C95.32 179.22 95.32 179.185 95.32 179.168L56.972 178.567Z" fill="#263238"/>
<path d="M62.6801 178.71C62.6408 181.586 63.3921 184.41 64.8389 186.824C66.2858 189.239 68.3632 191.136 70.8084 192.276C73.2536 193.415 75.9568 193.746 78.5761 193.226C81.1954 192.706 83.6131 191.359 85.5235 189.355C87.4338 187.351 88.751 184.78 89.3084 181.968C89.8658 179.155 89.6384 176.227 88.6549 173.555C87.6715 170.882 85.9762 168.584 83.7834 166.952C81.5906 165.319 78.9989 164.426 76.3361 164.385C72.7664 164.329 69.3226 165.807 66.7617 168.494C64.2009 171.18 62.7327 174.855 62.6801 178.71Z" fill="#FAFAFA"/>
<path d="M76.3361 164.385C72.7664 164.329 69.3226 165.807 66.7617 168.494C64.2009 171.18 62.7327 174.855 62.6801 178.71L89.604 179.142C89.6564 175.285 88.288 171.563 85.7998 168.796C83.3116 166.028 79.9074 164.442 76.3361 164.385Z" fill="#E0E0E0"/>
<path d="M67.9441 178.792C67.9205 180.543 68.3784 182.263 69.2599 183.733C70.1413 185.204 71.4067 186.359 72.896 187.053C74.3853 187.746 76.0316 187.947 77.6268 187.63C79.2219 187.314 80.6942 186.493 81.8575 185.272C83.0207 184.052 83.8227 182.486 84.1619 180.773C84.5011 179.06 84.3624 177.277 83.7632 175.649C83.1641 174.021 82.1314 172.622 80.7959 171.628C79.4603 170.634 77.8818 170.09 76.2601 170.065C74.0859 170.032 71.9885 170.933 70.429 172.569C68.8695 174.205 67.9757 176.444 67.9441 178.792Z" fill="#263238"/>
<path d="M38.948 100.336H37.384C35.6211 100.336 34.192 101.88 34.192 103.784V117.491C34.192 119.395 35.6211 120.938 37.384 120.938H38.948C40.7109 120.938 42.14 119.395 42.14 117.491V103.784C42.14 101.88 40.7109 100.336 38.948 100.336Z" fill="#263238"/>
<path d="M30.904 133.674H30.504V111.888C30.5051 110.849 30.8877 109.853 31.5678 109.119C32.248 108.384 33.1701 107.971 34.132 107.97H35.092V108.402H34.132C33.2762 108.403 32.4558 108.771 31.8507 109.424C31.2455 110.078 30.9051 110.964 30.904 111.888V133.674Z" fill="#263238"/>
<path d="M33.628 133.7L32.516 113.331C32.5004 112.983 32.55 112.635 32.6618 112.308C32.7736 111.98 32.9454 111.681 33.1669 111.427C33.3883 111.174 33.6549 110.971 33.9506 110.831C34.2464 110.691 34.5652 110.617 34.888 110.614V111.046C34.6188 111.046 34.3524 111.105 34.1053 111.22C33.8581 111.336 33.6354 111.504 33.4507 111.716C33.2661 111.927 33.1234 112.178 33.0314 112.451C32.9395 112.724 32.9002 113.015 32.916 113.305L34.028 133.678L33.628 133.7Z" fill="#263238"/>
<path d="M34.8881 131.713H29.4961V138.456H34.8881V131.713Z" fill="#263238"/>
<path d="M32.8961 118.912H30.7041V119.344H32.8961V118.912Z" fill="#263238"/>
<path d="M51.2001 87.7651L51.6761 87.696L53.0801 87.5188L58.5201 86.8406L78.8001 84.348C79.8801 84.2227 80.9801 84.0672 82.1201 83.9592C82.7025 83.9112 83.2882 83.9519 83.8601 84.0801C84.4416 84.227 85.0025 84.4565 85.5281 84.7627C86.6123 85.4143 87.4913 86.4012 88.0521 87.5966C88.3422 88.2077 88.5381 88.8657 88.6321 89.5449C88.6824 89.888 88.7105 90.2344 88.7161 90.5817V91.6228C88.7161 97.2 88.7161 103.187 88.7161 109.534C88.7161 122.226 88.7161 136.343 88.7161 151.438V151.55H67.6481C66.4454 151.507 65.2415 151.569 64.0481 151.736C61.5863 152.118 59.2637 153.204 57.3201 154.88C55.3765 156.556 53.8824 158.762 52.9921 161.27C52.8193 161.73 52.6737 162.202 52.5561 162.683C52.4261 163.158 52.3232 163.641 52.2481 164.13L52.1441 164.864L52.0961 165.231L52.0761 165.599L52.0441 166.337V166.709V166.752C52.1321 166.657 51.9201 166.899 51.9361 166.873H25.2201V166.752C25.2201 160.242 25.2201 153.965 25.2201 147.969C25.2201 144.971 25.2201 142.043 25.2201 139.186V134.961C25.2201 134.266 25.2201 133.579 25.2201 132.892C25.2331 132.209 25.2785 131.527 25.3561 130.848C25.6611 128.235 26.4298 125.709 27.6201 123.409C28.7214 121.172 29.7881 119.012 30.8201 116.929L36.4921 105.451L41.0961 96.1329C41.4321 95.4561 41.7548 94.8009 42.0641 94.1673C42.2241 93.8563 42.3641 93.5409 42.5321 93.2472C42.6977 92.9601 42.878 92.6832 43.0721 92.4177C43.7658 91.4835 44.5824 90.6641 45.4961 89.9856C46.7544 89.063 48.1612 88.4022 49.6441 88.0372C50.1532 87.9054 50.6706 87.8144 51.1921 87.7651L50.7921 87.8299C50.5321 87.8731 50.1481 87.9465 49.6441 88.0718C48.17 88.4482 46.7731 89.1161 45.5241 90.0417C44.6181 90.7212 43.8095 91.5406 43.1241 92.4739C42.9304 92.7347 42.7527 93.0089 42.5921 93.2947C42.4281 93.5798 42.2881 93.8995 42.1281 94.2148L41.1641 96.1848L36.6001 105.512C34.8881 108.994 33.0001 112.834 30.9601 116.999L27.7601 123.479C26.5808 125.761 25.8216 128.268 25.5241 130.861C25.4479 131.534 25.4038 132.21 25.3921 132.887C25.3921 133.566 25.3921 134.261 25.3921 134.952V139.177C25.3921 142.031 25.3921 144.959 25.3921 147.96C25.3921 153.956 25.3921 160.233 25.3921 166.743L25.2921 166.64H51.9041C51.9321 166.618 51.7121 166.847 51.8041 166.743V166.696V166.324L51.8401 165.573V165.201L51.8921 164.83L51.9961 164.082C52.0721 163.586 52.1763 163.096 52.3081 162.613C52.4277 162.126 52.576 161.647 52.7521 161.179C53.6566 158.634 55.1731 156.396 57.1454 154.695C59.1176 152.994 61.4741 151.892 63.9721 151.502C65.1657 151.338 66.3694 151.276 67.5721 151.317H88.5441L88.4401 151.425C88.4401 136.348 88.4401 122.23 88.4401 109.521C88.4401 103.175 88.4401 97.187 88.4401 91.6099C88.4661 90.9247 88.4394 90.2383 88.3601 89.5579C88.2691 88.894 88.0786 88.2505 87.7961 87.6528C87.2531 86.4842 86.3956 85.5204 85.3361 84.888C84.8255 84.586 84.2791 84.3608 83.7121 84.2184C83.1536 84.0911 82.5814 84.0489 82.0121 84.0931C80.8801 84.1968 79.7721 84.3523 78.6961 84.4776L58.4201 86.9011L52.9761 87.5448L51.5721 87.7046L51.2001 87.7651Z" fill="#263238"/>
<path d="M82.3321 135.51C82.3321 135.51 82.4441 135.51 82.6441 135.458C82.9382 135.401 83.2185 135.281 83.4681 135.104C83.8616 134.825 84.1562 134.411 84.3041 133.929C84.3945 133.628 84.4311 133.311 84.4121 132.995C84.4035 132.646 84.3199 132.303 84.1681 131.993C83.994 131.639 83.7352 131.342 83.4185 131.133C83.1019 130.924 82.7391 130.811 82.3681 130.805H79.7281H73.6801C73.1765 130.806 72.6908 131.007 72.3154 131.369C71.9399 131.732 71.701 132.23 71.6441 132.771C71.5812 133.284 71.6694 133.805 71.8961 134.261C72.1209 134.693 72.4729 135.03 72.8961 135.22C73.3145 135.377 73.759 135.436 74.2001 135.393H75.4801H77.7801L81.1121 135.428H82.0201C82.1246 135.425 82.2291 135.434 82.3321 135.454C82.2285 135.467 82.1244 135.474 82.0201 135.475H81.1121L77.7801 135.51H75.4801H74.2001C73.9761 135.51 73.7601 135.51 73.5241 135.51C73.284 135.49 73.0481 135.432 72.8241 135.337C72.3614 135.13 71.9758 134.762 71.7281 134.291C71.4797 133.797 71.3817 133.23 71.4481 132.671C71.5099 132.078 71.7715 131.531 72.1831 131.132C72.5946 130.734 73.1274 130.513 73.6801 130.511H79.7281H82.3681C82.9451 130.524 83.4949 130.778 83.9011 131.221C84.3073 131.664 84.538 132.26 84.5441 132.883C84.5568 133.213 84.512 133.543 84.4121 133.855C84.2475 134.357 83.9302 134.783 83.5121 135.065C83.2512 135.24 82.9574 135.351 82.6521 135.389C82.5504 135.443 82.4429 135.484 82.3321 135.51Z" fill="#263238"/>
<path d="M81.6001 130.084C80.4604 130.192 79.3157 130.228 78.1721 130.192C77.0271 130.228 75.8812 130.192 74.7401 130.084C75.881 129.973 77.0271 129.935 78.1721 129.971C79.3158 129.935 80.4605 129.973 81.6001 130.084Z" fill="white"/>
<path d="M55.068 183.894L51.868 183.643C52.704 171.266 53.928 163.862 55.612 161.006C58.844 155.52 62.056 154.526 65.612 153.874C68.924 153.265 72.264 153.408 75.496 153.55L76.296 153.585C82.968 153.865 96.944 153.615 97.096 153.615L97.148 157.071C97.008 157.071 82.944 157.326 76.184 157.041L75.384 157.006C72.316 156.876 69.148 156.734 66.164 157.287C62.984 157.87 60.868 158.54 58.316 162.868C57.544 164.16 56.096 168.648 55.068 183.894Z" fill="#263238"/>
<path d="M256.392 42.9062H98.8V156.229H256.392V42.9062Z" fill="#744C9D"/>
<path d="M254.504 153.986C254.504 153.256 254.472 111.694 254.42 45.468L254.504 45.5544L100.504 45.5803L100.608 45.468C100.608 84.0413 100.608 120.757 100.608 153.986L100.512 153.883L254.512 153.986L100.512 154.09H100.4V153.986C100.4 120.757 100.4 84.0413 100.4 45.468V45.36H100.516L254.516 45.3816H254.6V45.4723C254.536 111.694 254.504 153.261 254.504 153.986Z" fill="#263238"/>
<path d="M144.444 73.7078V102.017L211.052 86.197L211.028 58.2163L144.444 73.7078Z" fill="#744C9D"/>
<path d="M218.688 73.7078L242.276 67.7419L241.344 65.0289L218.688 73.7078Z" fill="#FAFAFA"/>
<path d="M113.068 92.7721L129.468 88.6249L128.82 86.7413L113.068 92.7721Z" fill="#FAFAFA"/>
<path d="M169.216 135.449L192.804 129.479L191.876 126.77L169.216 135.449Z" fill="#FAFAFA"/>
<path d="M200.484 60.1388C200.484 60.1993 187.892 63.4522 172.336 67.4007C156.78 71.3492 144.152 74.5071 144.136 74.4466C144.12 74.3861 156.724 71.1332 172.288 67.1847C187.852 63.2362 200.472 60.0783 200.484 60.1388Z" fill="#FAFAFA"/>
<path d="M144.268 99.1743C144.268 99.2348 138.868 100.47 132.18 101.922C125.492 103.373 120.064 104.514 120.052 104.453C120.04 104.393 125.452 103.157 132.14 101.702C138.828 100.246 144.256 99.1138 144.268 99.1743Z" fill="#FAFAFA"/>
<path d="M144.48 96.6124C144.462 96.5378 144.454 96.4607 144.456 96.3835C144.456 96.2064 144.456 95.9904 144.436 95.7312C144.436 95.1307 144.436 94.3185 144.404 93.3292C144.404 91.2686 144.372 88.4822 144.356 85.4021C144.34 82.3219 144.3 79.5312 144.28 77.4748C144.28 76.4856 144.256 75.6734 144.248 75.0729V74.4163C144.238 74.3418 144.238 74.2661 144.248 74.1917C144.267 74.2649 144.276 74.3404 144.276 74.4163C144.276 74.5934 144.3 74.8051 144.316 75.0686C144.348 75.6345 144.38 76.4553 144.412 77.4705C144.48 79.4966 144.532 82.3003 144.552 85.3977C144.572 88.4952 144.552 91.2988 144.552 93.3249C144.552 94.3185 144.528 95.1307 144.52 95.7312C144.52 95.9904 144.52 96.2064 144.5 96.3835C144.499 96.4603 144.493 96.5369 144.48 96.6124Z" fill="#FAFAFA"/>
<path d="M76.4001 96.5693C76.4001 96.5693 76.3521 96.6212 76.2521 96.7033L75.8121 97.0445C75.4121 97.3426 74.8641 97.7573 74.1681 98.2714C72.7721 99.2909 70.8281 100.682 68.6601 102.181C66.4921 103.68 64.5121 105.006 63.0601 105.952C62.3401 106.423 61.7521 106.816 61.3441 107.058L60.8721 107.343C60.8183 107.381 60.7606 107.411 60.7001 107.434C60.7001 107.434 60.7481 107.382 60.8481 107.309L61.3001 106.981L62.9841 105.818L68.5401 101.991L74.0761 98.1375L75.7601 96.9754L76.2241 96.6644C76.2794 96.6259 76.3384 96.5941 76.4001 96.5693Z" fill="#FAFAFA"/>
<path d="M69.564 98.522C69.564 98.522 69.516 98.5738 69.416 98.6559L68.976 98.9972C68.576 99.2909 68.028 99.71 67.328 100.22C65.932 101.244 63.988 102.63 61.824 104.108C59.66 105.585 57.676 106.937 56.224 107.883C55.504 108.354 54.916 108.747 54.508 108.985L54.036 109.274C53.9832 109.313 53.9251 109.342 53.864 109.361C53.9088 109.313 53.9585 109.271 54.012 109.236L54.464 108.912L56.144 107.745L61.704 103.922L67.24 100.069L68.924 98.9021L69.384 98.5954C69.4408 98.5625 69.5013 98.5378 69.564 98.522Z" fill="#FAFAFA"/>
<path d="M35.888 111.098C35.8267 110.979 35.7848 110.851 35.764 110.717C35.7 110.471 35.612 110.108 35.512 109.659C35.2491 108.485 35.1148 107.281 35.112 106.073C35.1064 104.853 35.3667 103.648 35.872 102.557C36.0301 102.23 36.2205 101.923 36.44 101.641C36.514 101.533 36.6031 101.439 36.704 101.36C36.4487 101.77 36.2137 102.194 36 102.63C35.5442 103.716 35.3109 104.895 35.316 106.086C35.3282 107.28 35.4474 108.469 35.672 109.637C35.7721 110.119 35.8442 110.606 35.888 111.098Z" fill="#FAFAFA"/>
<path d="M19.6001 141.726C19.5856 141.573 19.5856 141.418 19.6001 141.264C19.6001 140.953 19.6001 140.504 19.6241 139.968C19.6561 138.858 19.7321 137.324 19.8561 135.648C19.9801 133.972 20.1281 132.434 20.2561 131.328C20.3201 130.775 20.3761 130.33 20.4201 130.032C20.4351 129.872 20.466 129.714 20.5121 129.561C20.5322 129.722 20.5322 129.884 20.5121 130.045L20.4081 131.341C20.3201 132.499 20.2001 133.998 20.0681 135.661C19.9361 137.324 19.8561 138.819 19.7801 139.981C19.7441 140.499 19.7121 140.936 19.6881 141.277C19.6759 141.43 19.6464 141.581 19.6001 141.726Z" fill="#FAFAFA"/>
<path d="M63.436 150.111C63.436 150.159 62.664 150.275 61.468 150.695C60.768 150.94 60.0849 151.239 59.424 151.589C57.8047 152.457 56.3396 153.627 55.096 155.045C54.5882 155.62 54.119 156.233 53.692 156.881C52.968 157.991 52.628 158.756 52.592 158.734C52.6515 158.546 52.7265 158.364 52.816 158.19C52.9055 157.979 53.0071 157.774 53.12 157.576C53.248 157.343 53.388 157.071 53.572 156.79C53.9862 156.122 54.449 155.491 54.956 154.902C55.5845 154.183 56.2683 153.523 57 152.928C57.7385 152.349 58.5229 151.842 59.344 151.412C60.0148 151.064 60.7104 150.775 61.424 150.548C61.724 150.44 62.008 150.379 62.252 150.314C62.4618 150.259 62.6741 150.216 62.888 150.185C63.0681 150.141 63.2516 150.117 63.436 150.111Z" fill="#FAFAFA"/>
<path d="M102.828 124.031C102.823 123.97 102.823 123.908 102.828 123.846C102.828 123.713 102.828 123.532 102.828 123.301C102.828 122.809 102.828 122.105 102.8 121.206C102.776 119.375 102.744 116.744 102.7 113.499C102.592 106.98 102.444 97.9992 102.28 88.0761C102.116 78.1531 101.976 69.1545 101.92 62.6486C101.892 59.3957 101.884 56.7605 101.888 54.9417C101.888 54.0389 101.888 53.3347 101.888 52.8465V52.3022C101.888 52.1769 101.888 52.1165 101.888 52.1165C101.893 52.1782 101.893 52.2404 101.888 52.3022C101.888 52.4318 101.888 52.6133 101.888 52.8465C101.888 53.3347 101.888 54.0389 101.916 54.9417C101.94 56.7734 101.972 59.4 102.016 62.6443C102.124 69.1632 102.272 78.1445 102.436 88.0718C102.6 97.9992 102.744 106.989 102.796 113.495C102.824 116.752 102.836 119.383 102.832 121.202C102.832 122.105 102.832 122.809 102.832 123.301C102.832 123.53 102.832 123.712 102.832 123.846C102.834 123.908 102.833 123.97 102.828 124.031Z" fill="#FAFAFA"/>
<path d="M218.56 199.595C229.142 199.138 237.378 189.503 236.955 178.074C236.531 166.646 227.61 157.751 217.028 158.208C206.445 158.665 198.21 168.301 198.633 179.729C199.056 191.158 207.978 200.052 218.56 199.595Z" fill="#263238"/>
<path d="M198.612 178.567C198.612 178.567 198.612 178.606 198.612 178.623C198.539 184.115 200.489 189.413 204.032 193.352C207.576 197.291 212.423 199.548 217.508 199.627C222.593 199.706 227.498 197.601 231.146 193.773C234.793 189.946 236.883 184.711 236.956 179.22V179.168L198.612 178.567Z" fill="#263238"/>
<path d="M204.32 178.71C204.282 181.584 205.033 184.407 206.48 186.82C207.927 189.234 210.003 191.129 212.448 192.268C214.892 193.407 217.594 193.737 220.212 193.217C222.831 192.697 225.247 191.351 227.157 189.348C229.066 187.344 230.383 184.775 230.94 181.964C231.498 179.152 231.271 176.226 230.288 173.554C229.305 170.882 227.611 168.585 225.42 166.953C223.228 165.32 220.638 164.427 217.976 164.385C214.406 164.329 210.963 165.807 208.402 168.494C205.841 171.18 204.373 174.855 204.32 178.71Z" fill="#FAFAFA"/>
<path d="M217.976 164.385C216.208 164.357 214.453 164.705 212.81 165.41C211.167 166.115 209.669 167.162 208.401 168.492C207.132 169.822 206.119 171.409 205.419 173.163C204.719 174.916 204.346 176.801 204.32 178.71L231.24 179.142C231.267 177.232 230.945 175.335 230.293 173.56C229.641 171.784 228.671 170.165 227.44 168.795C226.208 167.424 224.738 166.329 223.114 165.573C221.49 164.816 219.744 164.412 217.976 164.385Z" fill="#E0E0E0"/>
<path d="M209.6 178.792C209.577 180.543 210.034 182.263 210.916 183.733C211.797 185.204 213.063 186.359 214.552 187.053C216.041 187.746 217.688 187.947 219.283 187.63C220.878 187.314 222.35 186.493 223.513 185.272C224.677 184.052 225.479 182.486 225.818 180.773C226.157 179.06 226.018 177.277 225.419 175.649C224.82 174.021 223.787 172.622 222.452 171.628C221.116 170.634 219.538 170.09 217.916 170.065C215.742 170.032 213.645 170.933 212.085 172.569C210.526 174.205 209.632 176.444 209.6 178.792Z" fill="#263238"/>
<path d="M192.576 184.594C192.576 184.594 189.656 155.218 217.84 155.218C243.84 155.218 243.264 180.481 243.016 184.391H238.94C238.94 184.391 241.016 159.49 217.84 159.49C194.664 159.49 196.68 184.896 196.68 184.896C196.68 184.896 194.968 184.805 192.576 184.594Z" fill="#455A64"/>
<path d="M207.672 158.259C207.602 158.298 207.529 158.327 207.452 158.345C207.304 158.401 207.084 158.458 206.812 158.561C206.03 158.83 205.265 159.152 204.52 159.525C202.056 160.745 199.873 162.541 198.129 164.782C196.385 167.023 195.122 169.653 194.432 172.485C194.221 173.337 194.059 174.203 193.948 175.077C193.904 175.388 193.888 175.63 193.864 175.794C193.857 175.878 193.844 175.962 193.824 176.044C193.814 175.961 193.814 175.877 193.824 175.794C193.824 175.625 193.824 175.362 193.872 175.068C193.951 174.179 194.093 173.298 194.296 172.433C194.952 169.558 196.209 166.885 197.972 164.618C199.735 162.351 201.956 160.551 204.464 159.356C205.218 158.993 205.997 158.689 206.792 158.449C207.072 158.363 207.296 158.315 207.444 158.276C207.519 158.261 207.596 158.255 207.672 158.259Z" fill="#FAFAFA"/>
</svg>
