<svg width="32" height="32" viewBox="0 0 32 32" fill="none" xmlns="http://www.w3.org/2000/svg">
<path d="M31.9228 7.618C31.8471 7.43526 31.719 7.27906 31.5546 7.16915C31.3901 7.05923 31.1968 7.00055 30.999 7.0005H27.1953C26.6635 6.09573 25.9066 5.34395 24.9982 4.81826C24.0899 4.29257 23.061 4.01086 22.0115 4.0005C21.2297 3.99025 20.4537 4.13647 19.7291 4.43057C19.0046 4.72466 18.3463 5.16069 17.7928 5.713C17.2231 6.27203 16.771 6.93931 16.4629 7.67561C16.1549 8.41191 15.9972 9.20237 15.999 10.0005V10.7618C10.9665 9.43425 6.85027 5.3405 6.80652 5.29675C6.67236 5.16141 6.50232 5.06721 6.31642 5.02526C6.13052 4.98332 5.9365 4.99536 5.75722 5.05998C5.57794 5.1246 5.42085 5.23911 5.30446 5.39001C5.18807 5.54092 5.11723 5.72194 5.10027 5.91175C4.56152 11.8855 6.29652 15.883 7.85027 18.1843C8.60787 19.3219 9.5295 20.3412 10.5853 21.2093C8.68152 23.4005 5.68402 24.5518 5.65152 24.5643C5.51042 24.6171 5.38308 24.7012 5.27902 24.8101C5.17496 24.9191 5.09688 25.0502 5.0506 25.1936C5.00432 25.337 4.99105 25.489 5.01177 25.6383C5.0325 25.7875 5.08668 25.9301 5.17027 26.0555C5.26402 26.1955 5.63902 26.6868 6.55527 27.1455C7.68777 27.713 9.18402 28.0005 10.999 28.0005C19.8328 28.0005 27.214 21.198 27.9678 12.4455L31.7065 8.708C31.8463 8.56808 31.9415 8.38983 31.98 8.19581C32.0185 8.00179 31.9986 7.80071 31.9228 7.618ZM26.2978 11.2943C26.1263 11.4661 26.0232 11.6945 26.0078 11.9368C25.499 19.823 18.909 26.0005 10.999 26.0005C9.67902 26.0005 8.74902 25.8255 8.09652 25.6155C9.53527 24.8343 11.5415 23.4905 12.8315 21.5555C12.9072 21.4417 12.9588 21.3136 12.9831 21.1791C13.0074 21.0446 13.0038 20.9066 12.9727 20.7735C12.9415 20.6405 12.8834 20.5152 12.8019 20.4055C12.7205 20.2957 12.6174 20.2038 12.499 20.1355C12.4403 20.1018 7.01027 16.843 6.99902 8.1355C8.99902 9.7605 12.6553 12.2818 16.8328 12.9843C16.9759 13.0084 17.1227 13.0011 17.2627 12.9628C17.4028 12.9245 17.5328 12.8562 17.6438 12.7626C17.7548 12.6689 17.844 12.5523 17.9054 12.4207C17.9667 12.2891 17.9987 12.1457 17.999 12.0005V10.0005C17.9979 9.46707 18.1035 8.93879 18.3096 8.44677C18.5157 7.95474 18.8181 7.50891 19.199 7.1355C19.5642 6.76963 19.9991 6.48067 20.4778 6.28573C20.9566 6.09078 21.4696 5.99379 21.9865 6.0005C23.569 6.0205 25.0478 6.9855 25.6665 8.40175C25.7445 8.57981 25.8727 8.73128 26.0355 8.83762C26.1982 8.94395 26.3884 9.00056 26.5828 9.0005H28.5828L26.2978 11.2943Z" fill="white"/>
<path d="M31.9228 7.618C31.8471 7.43526 31.719 7.27906 31.5546 7.16915C31.3901 7.05923 31.1968 7.00055 30.999 7.0005H27.1953C26.6635 6.09573 25.9066 5.34395 24.9982 4.81826C24.0899 4.29257 23.061 4.01086 22.0115 4.0005C21.2297 3.99025 20.4537 4.13647 19.7291 4.43057C19.0046 4.72466 18.3463 5.16069 17.7928 5.713C17.2231 6.27203 16.771 6.93931 16.4629 7.67561C16.1549 8.41191 15.9972 9.20237 15.999 10.0005V10.7618C10.9665 9.43425 6.85027 5.3405 6.80652 5.29675C6.67236 5.16141 6.50232 5.06721 6.31642 5.02526C6.13052 4.98332 5.9365 4.99536 5.75722 5.05998C5.57794 5.1246 5.42085 5.23911 5.30446 5.39001C5.18807 5.54092 5.11723 5.72194 5.10027 5.91175C4.56152 11.8855 6.29652 15.883 7.85027 18.1843C8.60787 19.3219 9.5295 20.3412 10.5853 21.2093C8.68152 23.4005 5.68402 24.5518 5.65152 24.5643C5.51042 24.6171 5.38308 24.7012 5.27902 24.8101C5.17496 24.9191 5.09688 25.0502 5.0506 25.1936C5.00432 25.337 4.99105 25.489 5.01177 25.6383C5.0325 25.7875 5.08668 25.9301 5.17027 26.0555C5.26402 26.1955 5.63902 26.6868 6.55527 27.1455C7.68777 27.713 9.18402 28.0005 10.999 28.0005C19.8328 28.0005 27.214 21.198 27.9678 12.4455L31.7065 8.708C31.8463 8.56808 31.9415 8.38983 31.98 8.19581C32.0185 8.00179 31.9986 7.80071 31.9228 7.618ZM26.2978 11.2943C26.1263 11.4661 26.0232 11.6945 26.0078 11.9368C25.499 19.823 18.909 26.0005 10.999 26.0005C9.67902 26.0005 8.74902 25.8255 8.09652 25.6155C9.53527 24.8343 11.5415 23.4905 12.8315 21.5555C12.9072 21.4417 12.9588 21.3136 12.9831 21.1791C13.0074 21.0446 13.0038 20.9066 12.9727 20.7735C12.9415 20.6405 12.8834 20.5152 12.8019 20.4055C12.7205 20.2957 12.6174 20.2038 12.499 20.1355C12.4403 20.1018 7.01027 16.843 6.99902 8.1355C8.99902 9.7605 12.6553 12.2818 16.8328 12.9843C16.9759 13.0084 17.1227 13.0011 17.2627 12.9628C17.4028 12.9245 17.5328 12.8562 17.6438 12.7626C17.7548 12.6689 17.844 12.5523 17.9054 12.4207C17.9667 12.2891 17.9987 12.1457 17.999 12.0005V10.0005C17.9979 9.46707 18.1035 8.93879 18.3096 8.44677C18.5157 7.95474 18.8181 7.50891 19.199 7.1355C19.5642 6.76963 19.9991 6.48067 20.4778 6.28573C20.9566 6.09078 21.4696 5.99379 21.9865 6.0005C23.569 6.0205 25.0478 6.9855 25.6665 8.40175C25.7445 8.57981 25.8727 8.73128 26.0355 8.83762C26.1982 8.94395 26.3884 9.00056 26.5828 9.0005H28.5828L26.2978 11.2943Z" fill="#006B5E" fill-opacity="0.02"/>
</svg>
