<svg width="300" height="216" viewBox="0 0 300 216" fill="none" xmlns="http://www.w3.org/2000/svg">
<rect width="300" height="216" fill="white"/>
<rect width="300" height="216" fill="#744C9D" fill-opacity="0.05"/>
<path d="M207.892 46.656L207.092 45.2348C200.36 33.264 188.192 26.0367 175.36 26.9136C173.708 27.0267 172.066 27.2722 170.448 27.648C158.78 30.3437 148.632 39.8736 144.424 52.0733C141.948 59.2532 141.256 67.513 136.56 73.2111C130.448 80.6242 120.072 80.8575 110.96 80.5551C101.848 80.2527 91.452 80.5075 85.36 87.9509C81.552 92.6122 80.34 99.2434 80.648 105.486C81.448 122.01 92.124 136.789 105.684 144.133C119.244 151.477 135.2 152.129 150.06 148.897C170.86 144.37 190.624 131.941 202.508 112.739C214.392 93.5367 217.4 67.392 207.892 46.656Z" fill="white"/>
<path d="M207.892 46.656L207.092 45.2348C200.36 33.264 188.192 26.0367 175.36 26.9136C173.708 27.0267 172.066 27.2722 170.448 27.648C158.78 30.3437 148.632 39.8736 144.424 52.0733C141.948 59.2532 141.256 67.513 136.56 73.2111C130.448 80.6242 120.072 80.8575 110.96 80.5551C101.848 80.2527 91.452 80.5075 85.36 87.9509C81.552 92.6122 80.34 99.2434 80.648 105.486C81.448 122.01 92.124 136.789 105.684 144.133C119.244 151.477 135.2 152.129 150.06 148.897C170.86 144.37 190.624 131.941 202.508 112.739C214.392 93.5367 217.4 67.392 207.892 46.656Z" fill="#744C9D" fill-opacity="0.1"/>
<path d="M106.029 56.6629C110.572 51.7569 110.572 43.8027 106.029 38.8967C101.487 33.9907 94.1219 33.9907 89.5793 38.8967C85.0367 43.8027 85.0367 51.7569 89.5793 56.6629C94.1219 61.5688 101.487 61.5688 106.029 56.6629Z" fill="white"/>
<path d="M106.029 56.6629C110.572 51.7569 110.572 43.8027 106.029 38.8967C101.487 33.9907 94.1219 33.9907 89.5793 38.8967C85.0367 43.8027 85.0367 51.7569 89.5793 56.6629C94.1219 61.5688 101.487 61.5688 106.029 56.6629Z" fill="#744C9D" fill-opacity="0.1"/>
<path d="M281.408 198.962C281.408 199.027 223.464 199.074 152.008 199.074C80.552 199.074 22.592 199.027 22.592 198.962C22.592 198.897 80.52 198.85 152 198.85C223.48 198.85 281.408 198.901 281.408 198.962Z" fill="#263238"/>
<path d="M222 161.762H31.9561V183.203H222V161.762Z" fill="#744C9D"/>
<g opacity="0.3">
<path d="M222 161.762H31.9561V183.203H222V161.762Z" fill="black"/>
</g>
<path d="M27.564 182.87C27.564 182.87 23.808 181.293 23.6 178.813C23.392 176.334 23.6 169.798 23.6 169.798C23.6 169.798 28.024 153.287 28.652 151.261C29.28 149.234 32.8 145.899 37.168 143.856C41.536 141.813 53.012 136.624 53.012 136.624H56.8C56.8 136.624 84.132 111.396 93.316 110.272C93.316 110.272 125.812 108.026 156.076 108.929C186.34 109.832 218.132 108.467 219.596 110.272C219.596 110.272 223.768 126.049 225.856 139.126C227.944 152.202 227.108 172.489 227.108 172.489C227.108 172.489 229.196 172.489 228.988 177.241C228.78 181.993 228.152 182.2 225.648 182.857C223.144 183.514 207.904 182.857 207.904 182.857C207.904 182.857 208.532 162.121 191.416 161.892C174.3 161.663 172.424 179.712 172.84 184.464L77.452 185.803C77.452 185.803 75.408 162.117 58.088 162.117C38.296 162.117 41.288 185.946 41.34 185.803C41.34 185.803 29.86 187.155 27.564 182.87Z" fill="#744C9D"/>
<path d="M76.496 129.406C76.496 129.406 66.22 138.823 66.896 140.365C67.208 141.087 77.86 140.763 77.86 140.763L76.496 129.406Z" fill="#263238"/>
<path d="M96.516 114.186C94.516 114.782 91.136 114.705 84.736 121.176C82.564 123.371 79.536 126.382 76.496 129.406L77.856 140.763L113.54 140.417L115.108 113.011C115.108 113.011 97.748 113.823 96.516 114.186Z" fill="#455A64"/>
<path d="M96.516 114.186L96.84 114.117C97.056 114.078 97.38 114.044 97.8 113.996C98.648 113.91 99.9 113.81 101.508 113.698C104.708 113.478 109.376 113.214 115.108 112.929H115.2V113.02C114.772 120.619 114.244 130.006 113.656 140.43V140.53H113.56L100.004 140.668L77.876 140.871H77.792V140.776L76.4 129.419V129.371L76.432 129.341L83.964 121.824C85.076 120.71 86.136 119.664 87.164 118.8C88.1039 117.989 89.0942 117.248 90.128 116.584C91.5741 115.646 93.1522 114.969 94.8 114.579C95.368 114.446 95.804 114.359 96.092 114.29L96.424 114.212L96.536 114.186C96.536 114.186 96.388 114.238 96.1 114.32L94.812 114.631C93.1825 115.052 91.6247 115.747 90.196 116.692C89.1724 117.362 88.1915 118.105 87.26 118.917C86.236 119.802 85.188 120.83 84.08 121.941L76.572 129.462L76.6 129.384C77.024 132.909 77.484 136.728 77.972 140.737L77.876 140.646L100 140.422L113.56 140.296L113.46 140.396C114.064 129.976 114.608 120.589 115.06 112.994L115.14 113.08C109.408 113.344 104.74 113.586 101.54 113.78C99.94 113.875 98.68 113.962 97.832 114.031C97.432 114.07 97.088 114.1 96.872 114.13C96.656 114.16 96.516 114.186 96.516 114.186Z" fill="#263238"/>
<path d="M28.652 151.26C28.652 151.26 39.132 149.342 41.708 149.468C44.284 149.593 44.692 149.848 44.692 149.848C44.692 149.848 39.192 157.429 37.492 157.935C35.792 158.44 26.796 157.935 26.796 157.935L28.652 151.26Z" fill="white"/>
<path d="M61.072 136.642C61.0556 136.725 61.0272 136.805 60.988 136.879C60.932 137.035 60.832 137.255 60.7 137.536C60.3281 138.338 59.8541 139.079 59.292 139.739C58.4264 140.689 57.4121 141.465 56.296 142.033C55.064 142.724 53.648 143.329 52.168 143.96C49.6383 145.02 47.1686 146.24 44.772 147.614C43.848 148.141 43.116 148.591 42.608 148.91L42.02 149.265C41.9552 149.314 41.8837 149.352 41.808 149.377C41.869 149.322 41.9331 149.272 42 149.226C42.128 149.135 42.316 149.001 42.564 148.837C43.06 148.504 43.764 148.033 44.7 147.489C47.0837 146.069 49.5533 144.823 52.092 143.761C53.572 143.135 54.984 142.534 56.208 141.86C57.31 141.311 58.3166 140.561 59.184 139.644C59.7493 138.994 60.2347 138.268 60.628 137.484L60.952 136.849C60.9858 136.776 61.026 136.706 61.072 136.642Z" fill="#263238"/>
<path d="M87.2881 112.704H88.6881L61.088 136.642H56.8C56.8 136.642 62.892 130.952 69.6321 125.41C76.8401 119.444 84.6121 113.672 87.2881 112.704Z" fill="white"/>
<path d="M78 130.52C78 130.52 80.344 134.101 80.08 137.907C80.0345 138.576 79.7563 139.201 79.3014 139.657C78.8465 140.113 78.2487 140.366 77.628 140.365H70.68C70.68 140.365 69.352 139.117 69.988 137.748C70.624 136.378 71.144 136.642 71.144 136.642C71.144 136.642 74.028 130.33 78 130.52Z" fill="#744C9D"/>
<path d="M225.556 147.532C225.556 147.593 185.068 148.163 135.128 148.802C85.188 149.442 44.692 149.904 44.692 149.848C44.692 149.792 85.172 149.217 135.128 148.578C185.084 147.938 225.556 147.468 225.556 147.532Z" fill="#263238"/>
<path d="M172.32 175.211C172.32 175.271 151.388 175.565 125.568 175.863C99.7481 176.161 78.8 176.355 78.8 176.295C78.8 176.234 99.7241 175.936 125.552 175.638C151.38 175.34 172.316 175.146 172.32 175.211Z" fill="#263238"/>
<path d="M119.4 176.295C119.395 176.239 119.395 176.183 119.4 176.126C119.4 176.006 119.4 175.846 119.4 175.638C119.4 175.206 119.4 174.563 119.38 173.755C119.38 172.109 119.34 169.75 119.312 166.843C119.252 161.002 119.124 152.932 118.956 144.02C118.788 135.108 118.684 127.034 118.66 121.189C118.66 118.269 118.66 115.901 118.66 114.277C118.66 113.474 118.66 112.838 118.66 112.398C118.66 112.19 118.66 112.031 118.66 111.91C118.66 111.789 118.66 111.741 118.66 111.741C118.665 111.797 118.665 111.854 118.66 111.91C118.66 112.031 118.66 112.19 118.66 112.398C118.66 112.83 118.66 113.474 118.684 114.277C118.684 115.923 118.72 118.286 118.748 121.189C118.808 127.03 118.94 135.099 119.104 144.016C119.268 152.932 119.38 160.998 119.4 166.843C119.4 169.763 119.4 172.126 119.4 173.755C119.4 174.563 119.4 175.193 119.4 175.638C119.4 175.846 119.4 176.006 119.4 176.126C119.406 176.182 119.406 176.239 119.4 176.295Z" fill="#263238"/>
<path d="M208.4 138.43L121.632 140.089L121.7 113.007L206.204 113.819C206.604 113.525 207.656 114.463 207.876 115.754L211.136 134.879C211.207 135.312 211.19 135.757 211.085 136.182C210.981 136.607 210.792 137.002 210.531 137.34C210.271 137.679 209.945 137.951 209.577 138.139C209.209 138.328 208.807 138.427 208.4 138.43Z" fill="#455A64"/>
<path d="M208.4 138.43C208.4 138.43 208.548 138.43 208.836 138.378C209.257 138.305 209.656 138.124 210 137.851C210.574 137.404 210.966 136.736 211.096 135.985C211.17 135.507 211.151 135.017 211.04 134.546C210.952 134.037 210.856 133.488 210.756 132.905C210.356 130.581 209.86 127.721 209.284 124.373C208.996 122.7 208.688 120.905 208.36 118.99C208.196 118.031 208.024 117.046 207.852 116.031C207.793 115.52 207.618 115.032 207.344 114.61C207.208 114.396 207.041 114.207 206.848 114.052C206.755 113.975 206.651 113.913 206.54 113.871C206.492 113.845 206.439 113.832 206.386 113.832C206.333 113.832 206.28 113.845 206.232 113.871L121.728 113.102L121.832 112.99C121.832 113.292 121.832 113.616 121.832 113.94C121.812 122.943 121.788 131.713 121.768 140.072L121.664 139.964L183.664 138.815L201.848 138.499L206.728 138.426H207.988H208.4H207.972L206.712 138.46L201.832 138.573L183.652 138.953L121.652 140.18H121.548V140.067C121.568 131.708 121.588 122.939 121.608 113.936C121.608 113.612 121.608 113.288 121.608 112.985V112.873H121.712L206.216 113.737H206.18C206.244 113.699 206.315 113.677 206.388 113.673C206.46 113.669 206.533 113.684 206.6 113.715C206.725 113.761 206.843 113.828 206.948 113.914C207.148 114.083 207.325 114.282 207.472 114.506C207.755 114.947 207.933 115.455 207.992 115.988C208.165 117.002 208.333 117.986 208.496 118.943L209.408 124.334C209.972 127.682 210.452 130.542 210.848 132.87C210.944 133.446 211.036 133.995 211.124 134.516C211.234 134.994 211.249 135.492 211.168 135.976C211.033 136.739 210.628 137.414 210.04 137.86C209.685 138.136 209.273 138.314 208.84 138.378C208.733 138.396 208.624 138.406 208.516 138.409L208.4 138.43Z" fill="#263238"/>
<path d="M220.4 147.895L220.72 161.762H226.72C226.72 161.762 226.416 152.414 226.292 149.286C226.281 149.023 226.18 148.774 226.01 148.586C225.84 148.398 225.611 148.285 225.368 148.267L220.4 147.895Z" fill="white"/>
<path d="M80.1321 175.863C80.108 175.815 80.088 175.764 80.0721 175.712C80.0361 175.599 79.9841 175.453 79.9241 175.28L79.6801 174.545C79.5761 174.26 79.4521 173.932 79.3161 173.565C79.0361 172.826 78.6561 171.94 78.1721 170.934C77.6079 169.807 76.9828 168.716 76.3001 167.668C74.509 164.947 72.2705 162.604 69.6961 160.756C66.5256 158.505 62.8699 157.177 59.0841 156.902C55.2979 156.584 51.5061 157.437 48.1521 159.361C45.4371 160.97 43.1201 163.261 41.3961 166.039C40.2232 167.901 39.3296 169.951 38.7481 172.113C38.6561 172.498 38.5721 172.839 38.5001 173.137C38.4281 173.435 38.3961 173.694 38.3561 173.897C38.3161 174.1 38.2881 174.252 38.2641 174.368C38.2571 174.421 38.245 174.473 38.2281 174.524C38.2244 174.471 38.2244 174.417 38.2281 174.364L38.2961 173.889C38.3321 173.681 38.3601 173.422 38.4241 173.124C38.4881 172.826 38.5681 172.476 38.6521 172.087C39.349 169.372 40.538 166.832 42.1502 164.617C43.7624 162.401 45.7657 160.553 48.0441 159.179C51.427 157.223 55.2583 156.355 59.0841 156.678C62.9028 156.949 66.5904 158.289 69.7841 160.566C72.3733 162.437 74.618 164.812 76.4041 167.569C77.0842 168.627 77.704 169.729 78.2601 170.869C78.7361 171.884 79.1041 172.778 79.3761 173.522C79.5081 173.893 79.6241 174.226 79.7241 174.515C79.8241 174.805 79.8881 175.055 79.9481 175.258C80.0081 175.461 80.0441 175.599 80.0761 175.712C80.0982 175.761 80.1169 175.811 80.1321 175.863Z" fill="#263238"/>
<path d="M209.244 173.232C209.222 173.189 209.207 173.142 209.2 173.094C209.172 172.99 209.14 172.856 209.096 172.683C209.052 172.511 208.992 172.277 208.928 172.018C208.896 171.884 208.864 171.742 208.824 171.586C208.784 171.431 208.728 171.279 208.672 171.115C208.564 170.778 208.448 170.407 208.316 170.001L207.792 168.705C207.596 168.247 207.332 167.789 207.084 167.288C206.836 166.787 206.488 166.311 206.16 165.789C204.485 163.428 202.264 161.584 199.72 160.445C199.365 160.267 199 160.113 198.628 159.983C198.252 159.849 197.872 159.706 197.488 159.576C196.691 159.34 195.883 159.149 195.068 159.002C194.24 158.825 193.384 158.751 192.52 158.661C192.084 158.613 191.644 158.622 191.204 158.6C190.764 158.579 190.32 158.557 189.876 158.6C188.137 158.67 186.417 159.017 184.772 159.628C183.235 160.191 181.76 160.933 180.372 161.84C179.118 162.662 177.94 163.611 176.852 164.674C175.908 165.604 175.047 166.628 174.28 167.733C173.16 169.328 172.315 171.128 171.784 173.046C171.688 173.387 171.62 173.69 171.568 173.958C171.516 174.226 171.468 174.45 171.444 174.636C171.42 174.822 171.392 174.947 171.376 175.068C171.371 175.117 171.36 175.165 171.344 175.211C171.397 174.479 171.519 173.755 171.708 173.051C172.211 171.106 173.043 169.279 174.164 167.663C174.927 166.543 175.789 165.504 176.736 164.562C177.827 163.485 179.011 162.523 180.272 161.689C181.667 160.767 183.152 160.014 184.7 159.443C186.363 158.824 188.102 158.473 189.86 158.401C190.312 158.375 190.76 158.401 191.204 158.401C191.648 158.401 192.088 158.401 192.524 158.466C193.4 158.557 194.26 158.63 195.096 158.807C195.932 158.985 196.74 159.192 197.536 159.395C197.936 159.529 198.308 159.676 198.684 159.827C199.061 159.958 199.43 160.115 199.788 160.298C202.357 161.456 204.594 163.334 206.268 165.737C206.596 166.268 206.924 166.761 207.192 167.257C207.46 167.754 207.696 168.234 207.888 168.696C208.08 169.158 208.244 169.59 208.4 169.992L208.744 171.115C208.792 171.288 208.84 171.443 208.888 171.595C208.936 171.746 208.952 171.893 208.98 172.027C209.04 172.29 209.088 172.515 209.128 172.701C209.168 172.886 209.192 173.012 209.212 173.133C209.225 173.165 209.236 173.198 209.244 173.232Z" fill="#263238"/>
<path d="M226.264 173.595C226.063 173.618 225.861 173.618 225.66 173.595L224.024 173.543C222.644 173.496 220.736 173.431 218.624 173.388C216.512 173.344 214.624 173.331 213.224 173.327H211.588C211.387 173.336 211.187 173.324 210.988 173.293C211.19 173.253 211.395 173.233 211.6 173.232C212 173.232 212.548 173.193 213.24 173.176C214.624 173.141 216.536 173.128 218.644 173.176C220.752 173.223 222.668 173.31 224.048 173.396C224.736 173.444 225.296 173.487 225.68 173.521C225.876 173.531 226.071 173.556 226.264 173.595Z" fill="#263238"/>
<path d="M206.888 181.828C207.023 172.221 199.921 164.315 191.026 164.169C182.131 164.023 174.81 171.693 174.675 181.3C174.54 190.906 181.642 198.813 190.537 198.958C199.432 199.104 206.752 191.435 206.888 181.828Z" fill="#263238"/>
<path d="M174.68 181.267C174.68 181.267 174.68 181.297 174.68 181.315C174.618 185.929 176.257 190.38 179.234 193.689C182.211 196.999 186.284 198.895 190.556 198.962C194.828 199.028 198.95 197.259 202.014 194.044C205.078 190.828 206.834 186.43 206.896 181.816V181.773L174.68 181.267Z" fill="#263238"/>
<path d="M179.476 181.388C179.445 183.804 180.077 186.176 181.294 188.204C182.51 190.231 184.256 191.824 186.311 192.78C188.366 193.736 190.637 194.012 192.837 193.574C195.037 193.137 197.068 192.004 198.672 190.32C200.276 188.636 201.382 186.476 201.849 184.113C202.317 181.75 202.125 179.29 201.298 177.045C200.471 174.8 199.047 172.87 197.205 171.499C195.362 170.129 193.185 169.378 190.948 169.344C189.462 169.321 187.987 169.614 186.606 170.206C185.225 170.799 183.966 171.68 182.901 172.799C181.835 173.917 180.985 175.251 180.397 176.725C179.809 178.199 179.496 179.784 179.476 181.388Z" fill="#FAFAFA"/>
<path d="M190.948 169.344C187.949 169.298 185.056 170.54 182.905 172.797C180.754 175.054 179.52 178.141 179.476 181.38L202.096 181.734C202.118 180.13 201.847 178.537 201.298 177.046C200.749 175.555 199.934 174.195 198.899 173.044C197.864 171.894 196.629 170.975 195.264 170.34C193.9 169.705 192.433 169.367 190.948 169.344Z" fill="#E0E0E0"/>
<path d="M183.896 181.44C183.878 182.912 184.264 184.356 185.006 185.591C185.748 186.826 186.813 187.795 188.065 188.376C189.317 188.958 190.7 189.126 192.04 188.858C193.38 188.59 194.617 187.9 195.594 186.873C196.571 185.847 197.244 184.53 197.528 183.091C197.812 181.651 197.695 180.153 197.191 178.786C196.687 177.418 195.818 176.243 194.696 175.408C193.573 174.573 192.247 174.117 190.884 174.096C189.978 174.082 189.079 174.26 188.238 174.622C187.396 174.983 186.629 175.521 185.98 176.203C185.331 176.885 184.813 177.699 184.455 178.597C184.097 179.496 183.907 180.462 183.896 181.44Z" fill="#263238"/>
<path d="M74.1961 181.838C74.3343 172.231 67.2354 164.323 58.3402 164.173C49.4451 164.024 42.1222 171.691 41.984 181.298C41.8458 190.904 48.9447 198.813 57.8398 198.962C66.735 199.112 74.0579 191.445 74.1961 181.838Z" fill="#263238"/>
<path d="M42 181.267C42 181.267 42 181.297 42 181.315C41.9695 183.599 42.356 185.868 43.1373 187.991C43.9187 190.114 45.0796 192.051 46.5538 193.689C48.0281 195.328 49.7867 196.637 51.7294 197.542C53.672 198.446 55.7606 198.929 57.876 198.962C59.9913 198.995 62.0919 198.577 64.0579 197.734C66.0239 196.89 67.8167 195.636 69.334 194.044C70.8513 192.452 72.0634 190.552 72.901 188.454C73.7387 186.356 74.1855 184.1 74.216 181.816V181.773L42 181.267Z" fill="#263238"/>
<path d="M46.8001 181.388C46.7686 183.805 47.4016 186.178 48.6191 188.206C49.8366 190.234 51.5838 191.827 53.6396 192.782C55.6954 193.737 57.9674 194.013 60.1682 193.573C62.3689 193.134 64.3995 191.999 66.0029 190.313C67.6063 188.626 68.7105 186.464 69.1758 184.1C69.6411 181.736 69.4465 179.275 68.6167 177.03C67.787 174.786 66.3592 172.857 64.5143 171.489C62.6693 170.121 60.49 169.374 58.2521 169.344C55.255 169.302 52.3652 170.548 50.2179 172.806C48.0705 175.065 46.8412 178.151 46.8001 181.388Z" fill="#FAFAFA"/>
<path d="M58.2521 169.344C55.2553 169.304 52.3661 170.549 50.219 172.807C48.0719 175.066 46.8422 178.152 46.8 181.388L69.4201 181.742C69.4428 180.136 69.1717 178.54 68.6224 177.047C68.073 175.553 67.2562 174.192 66.2187 173.04C65.1812 171.888 63.9435 170.969 62.5764 170.334C61.2093 169.7 59.7398 169.364 58.2521 169.344Z" fill="#E0E0E0"/>
<path d="M51.2001 181.44C51.182 182.912 51.5684 184.356 52.3104 185.591C53.0524 186.826 54.1166 187.795 55.3687 188.377C56.6207 188.958 58.0042 189.126 59.3444 188.858C60.6846 188.59 61.9212 187.9 62.8979 186.873C63.8747 185.847 64.5477 184.53 64.8319 183.091C65.1162 181.651 64.9988 180.153 64.4947 178.786C63.9906 177.418 63.1224 176.243 61.9999 175.408C60.8773 174.573 59.5508 174.117 58.1881 174.096C57.2826 174.082 56.3836 174.261 55.5423 174.623C54.701 174.985 53.9339 175.522 53.285 176.204C52.636 176.886 52.1179 177.7 51.7601 178.598C51.4024 179.496 51.2121 180.462 51.2001 181.44Z" fill="#263238"/>
<path d="M72.656 140.366C72.4534 140.323 72.2654 140.221 72.112 140.072C71.6942 139.76 71.389 139.302 71.248 138.776C71.1402 138.26 71.1024 137.731 71.136 137.203C71.1205 136.987 71.1394 136.769 71.192 136.56C71.2549 136.766 71.2846 136.982 71.28 137.199C71.2935 137.709 71.3498 138.216 71.448 138.715C71.5855 139.193 71.8481 139.618 72.204 139.938C72.472 140.21 72.668 140.331 72.656 140.366Z" fill="#263238"/>
<path d="M107.736 120.986C107.772 121.034 104.084 124.321 99.5 128.33C94.916 132.339 91.168 135.544 91.132 135.497C91.096 135.449 94.78 132.162 99.368 128.153C103.956 124.144 107.7 120.96 107.736 120.986Z" fill="#263238"/>
<path d="M102.924 122.299C102.96 122.351 101.132 123.876 98.848 125.703C96.564 127.531 94.676 128.978 94.644 128.926C94.612 128.874 96.436 127.354 98.724 125.522C101.012 123.69 102.892 122.256 102.924 122.299Z" fill="#263238"/>
<path d="M156.076 117.599C156.116 117.647 152.976 120.774 149.068 124.585C145.16 128.395 141.956 131.445 141.916 131.401C141.876 131.358 145.016 128.226 148.928 124.416C152.84 120.606 156.036 117.556 156.076 117.599Z" fill="#263238"/>
<path d="M148.26 121.72C147.259 122.818 146.207 123.861 145.108 124.844C143.328 126.52 141.856 127.842 141.816 127.794C141.776 127.747 143.192 126.351 144.972 124.675C146.752 122.999 148.224 121.673 148.26 121.72Z" fill="#263238"/>
<path d="M190.228 119.884C190.152 120.04 190.059 120.185 189.952 120.316L189.152 121.435C188.452 122.373 187.48 123.656 186.396 125.068C185.312 126.481 184.324 127.747 183.596 128.658L182.728 129.73C182.628 129.868 182.514 129.994 182.388 130.106C182.463 129.95 182.556 129.805 182.664 129.674L183.464 128.559C184.16 127.622 185.132 126.334 186.216 124.926C187.3 123.518 188.292 122.243 189.016 121.332L189.884 120.26C189.984 120.121 190.1 119.994 190.228 119.884Z" fill="#263238"/>
<path d="M194.916 116.346C194.894 116.417 194.865 116.486 194.828 116.549L194.544 117.111C194.292 117.603 193.916 118.299 193.436 119.15C192.476 120.856 191.084 123.172 189.436 125.63C187.788 128.088 186.148 130.222 184.932 131.725C184.324 132.477 183.824 133.078 183.468 133.484L183.068 133.946C183.023 134.002 182.972 134.053 182.916 134.097C182.916 134.097 182.952 134.032 183.036 133.916L183.436 133.423L184.848 131.622C186.048 130.097 187.648 127.95 189.296 125.496C190.944 123.042 192.364 120.744 193.356 119.068C193.832 118.243 194.228 117.569 194.516 117.068L194.836 116.528C194.868 116.402 194.908 116.342 194.916 116.346Z" fill="#263238"/>
<path d="M69.704 136.573C69.704 136.633 65.9561 136.698 61.3321 136.719C56.7081 136.741 52.9561 136.719 52.9561 136.642C52.9561 136.564 56.7041 136.512 61.3321 136.495C65.9601 136.478 69.704 136.512 69.704 136.573Z" fill="#263238"/>
<path d="M23.712 175.319C23.712 175.254 26.948 175.206 30.936 175.206C34.924 175.206 38.16 175.254 38.16 175.319C38.16 175.383 34.928 175.431 30.936 175.431C26.944 175.431 23.712 175.392 23.712 175.319Z" fill="#263238"/>
<path d="M170.824 175.211C170.824 175.211 170.824 175.029 170.824 174.675C170.824 174.321 170.824 173.811 170.8 173.111C170.8 171.733 170.756 169.707 170.724 167.098C170.664 161.87 170.572 154.31 170.464 144.975C170.408 140.305 170.348 135.19 170.28 129.699C170.248 126.952 170.217 124.115 170.188 121.189C170.188 119.725 170.16 118.243 170.144 116.739C170.128 115.236 170.1 113.715 170.144 112.173C170.145 112.001 170.091 111.833 169.992 111.698C169.873 111.573 169.73 111.48 169.572 111.426C169.243 111.295 168.895 111.23 168.544 111.236C167.824 111.201 167.096 111.193 166.364 111.184C164.904 111.184 163.424 111.184 161.928 111.184C158.936 111.21 155.883 111.253 152.768 111.314L133.508 111.603L112.888 111.931L103.14 112.104C101.54 112.143 99.988 112.152 98.44 112.26C96.9177 112.331 95.4085 112.596 93.944 113.05C93.2186 113.266 92.5066 113.505 91.808 113.767C91.456 113.893 91.108 114.035 90.764 114.165C90.42 114.294 90.096 114.48 89.764 114.636C88.5081 115.372 87.3047 116.208 86.164 117.137C83.88 118.934 81.788 120.839 79.8 122.688C77.812 124.537 75.944 126.364 74.168 128.105C73.28 128.969 72.424 129.833 71.552 130.637C71.1228 131.019 70.747 131.465 70.436 131.963C70.1294 132.435 69.9445 132.987 69.9 133.562C69.624 141.865 69.408 148.496 69.256 153.058C69.176 155.33 69.116 157.088 69.072 158.281C69.072 158.872 69.032 159.326 69.02 159.633C69.008 159.939 68.996 160.091 68.996 160.091C68.996 160.091 68.996 159.935 68.996 159.633C68.996 159.33 69.016 158.872 69.032 158.281C69.064 157.088 69.112 155.33 69.176 153.053C69.312 148.491 69.508 141.86 69.756 133.557C69.7985 132.949 69.9904 132.365 70.312 131.864C70.6315 131.354 71.0167 130.896 71.456 130.503C72.32 129.708 73.172 128.84 74.064 127.971C75.836 126.243 77.7 124.399 79.688 122.537C81.676 120.675 83.764 118.774 86.052 116.964C87.2072 116.028 88.4252 115.186 89.696 114.446C90.036 114.286 90.368 114.109 90.716 113.966C91.064 113.823 91.408 113.69 91.764 113.564C92.4653 113.299 93.18 113.057 93.908 112.838C95.3722 112.391 96.8797 112.128 98.4 112.057C99.944 111.944 101.524 111.936 103.108 111.897L112.856 111.715L133.48 111.383L152.736 111.098C155.848 111.043 158.901 111.002 161.896 110.977C163.392 110.977 164.876 110.977 166.34 110.977C167.072 110.977 167.8 110.977 168.528 111.033C168.899 111.027 169.268 111.096 169.616 111.236C169.801 111.304 169.969 111.416 170.108 111.564C170.236 111.734 170.306 111.946 170.308 112.165C170.256 113.72 170.308 115.232 170.308 116.739C170.308 118.247 170.332 119.729 170.348 121.189C170.377 124.118 170.404 126.955 170.428 129.699C170.484 135.19 170.54 140.309 170.588 144.979C170.668 154.315 170.736 161.87 170.78 167.102C170.78 169.694 170.808 171.737 170.816 173.115C170.816 173.802 170.816 174.325 170.816 174.679C170.816 175.034 170.824 175.211 170.824 175.211Z" fill="#263238"/>
<path d="M111.848 145.83C111.928 145.809 112.01 145.791 112.092 145.778C112.32 145.719 112.528 145.592 112.692 145.411C112.839 145.249 112.944 145.049 112.997 144.83C113.05 144.61 113.048 144.38 112.993 144.161C112.937 143.943 112.83 143.744 112.681 143.584C112.532 143.424 112.347 143.31 112.144 143.251C111.863 143.208 111.579 143.197 111.296 143.217H110.352H108.268H103.492C103.211 143.22 102.942 143.334 102.734 143.538C102.526 143.741 102.395 144.02 102.366 144.322C102.336 144.623 102.41 144.925 102.573 145.172C102.737 145.418 102.978 145.591 103.252 145.657C103.433 145.687 103.617 145.698 103.8 145.688H104.36L108.256 145.709L110.884 145.744L111.6 145.765C111.683 145.763 111.767 145.772 111.848 145.791C111.766 145.805 111.683 145.812 111.6 145.813L110.884 145.835L108.256 145.869L104.36 145.895H103.8C103.604 145.906 103.407 145.896 103.212 145.865C102.889 145.787 102.603 145.584 102.41 145.294C102.216 145.004 102.129 144.647 102.163 144.291C102.198 143.936 102.352 143.606 102.597 143.366C102.843 143.125 103.161 142.991 103.492 142.988H108.268H110.352H111.296C111.592 142.974 111.888 142.993 112.18 143.044C112.436 143.118 112.665 143.274 112.837 143.492C113.009 143.709 113.116 143.978 113.144 144.262C113.163 144.474 113.138 144.688 113.068 144.887C112.999 145.086 112.888 145.266 112.744 145.411C112.565 145.594 112.339 145.716 112.096 145.761C112.017 145.796 111.933 145.82 111.848 145.83Z" fill="#263238"/>
<path d="M111.476 142.798C110.212 142.912 108.944 142.949 107.676 142.91C106.41 142.949 105.142 142.911 103.88 142.798C105.143 142.686 106.41 142.649 107.676 142.685C108.944 142.649 110.212 142.686 111.476 142.798Z" fill="white"/>
<path d="M72.2321 135.795C72.3017 135.496 72.4166 135.211 72.5721 134.952C73.2593 133.661 74.2645 132.601 75.4761 131.89C75.7227 131.725 75.9931 131.607 76.2761 131.54C75.4593 132.064 74.6929 132.675 73.9881 133.363C73.3298 134.109 72.7415 134.923 72.2321 135.795Z" fill="white"/>
<path d="M103.008 120.926C101.999 121.812 100.948 122.641 99.8599 123.41C98.8108 124.24 97.7213 125.008 96.5959 125.712C97.603 124.822 98.6539 123.991 99.7439 123.224C100.792 122.394 101.882 121.627 103.008 120.926Z" fill="white"/>
<path d="M148.076 110.912C148.076 110.972 142.412 111.024 135.42 111.024C128.428 111.024 122.764 110.972 122.764 110.912C122.764 110.851 128.428 110.799 135.42 110.799C142.412 110.799 148.076 110.847 148.076 110.912Z" fill="white"/>
<path d="M52 137.951C51.859 138.054 51.7089 138.142 51.552 138.214C51.256 138.374 50.828 138.59 50.296 138.858C49.228 139.385 47.744 140.089 46.092 140.823C44.44 141.558 42.924 142.188 41.82 142.625C41.272 142.845 40.824 143.014 40.512 143.126C40.3543 143.198 40.1891 143.249 40.02 143.277C40.1675 143.184 40.3229 143.106 40.484 143.044L41.768 142.478L46.012 140.616L50.236 138.711L51.516 138.136C51.6706 138.056 51.8329 137.993 52 137.951Z" fill="white"/>
<path d="M60.2641 157.274H60.0241C59.8681 157.274 59.6241 157.248 59.3401 157.248C58.5034 157.22 57.6659 157.246 56.8321 157.326C54.0709 157.571 51.3866 158.43 48.9477 159.849C46.5088 161.268 44.3681 163.217 42.6601 165.573C42.1418 166.283 41.661 167.024 41.2201 167.793C41.0601 168.061 40.9521 168.281 40.8681 168.424C40.8316 168.502 40.7858 168.575 40.7321 168.64C40.7585 168.558 40.792 168.478 40.8321 168.402C40.9041 168.255 41.0001 168.026 41.1521 167.75C41.566 166.957 42.0311 166.196 42.5441 165.473C44.237 163.069 46.3869 161.083 48.8492 159.65C51.3116 158.217 54.0294 157.37 56.8201 157.166C57.6604 157.103 58.5037 157.103 59.3441 157.166C59.6441 157.166 59.8721 157.222 60.0281 157.239C60.1079 157.238 60.1874 157.25 60.2641 157.274Z" fill="white"/>
<path d="M39.104 177.12C39.0141 176.34 39.0235 175.551 39.132 174.774C39.173 173.991 39.3185 173.219 39.564 172.48C39.62 172.48 39.464 173.521 39.34 174.8C39.3004 175.578 39.2216 176.352 39.104 177.12Z" fill="white"/>
<path d="M26.964 161.412C26.992 161.412 26.728 162.065 26.356 163.14C25.8699 164.517 25.469 165.927 25.156 167.361C24.8539 168.797 24.6414 170.253 24.52 171.72C24.428 172.843 24.408 173.547 24.376 173.547C24.347 173.384 24.3362 173.217 24.344 173.051C24.344 172.735 24.344 172.273 24.376 171.707C24.4532 170.226 24.6472 168.755 24.956 167.309C25.2627 165.865 25.6815 164.452 26.208 163.084C26.412 162.557 26.608 162.138 26.724 161.857C26.7876 161.699 26.8682 161.55 26.964 161.412Z" fill="white"/>
<path d="M93 149.006C93 149.066 87.96 149.118 81.744 149.118C75.528 149.118 70.484 149.066 70.484 149.006C70.484 148.945 75.524 148.893 81.744 148.893C87.964 148.893 93 148.945 93 149.006Z" fill="white"/>
<path d="M156.256 148.284C156.256 148.345 148.996 148.396 140.04 148.396C131.084 148.396 123.82 148.345 123.82 148.284C123.82 148.224 131.08 148.176 140.04 148.176C149 148.176 156.256 148.224 156.256 148.284Z" fill="white"/>
<path d="M199.516 158.237C199.438 158.238 199.361 158.231 199.284 158.216L198.632 158.108C198.348 158.056 198.004 158 197.596 157.952C197.188 157.905 196.732 157.823 196.224 157.788C195.716 157.753 195.152 157.689 194.552 157.667C193.952 157.645 193.304 157.637 192.628 157.633C189.688 157.666 186.763 158.101 183.924 158.929C183.276 159.132 182.652 159.313 182.084 159.529C181.516 159.745 180.984 159.935 180.504 160.134C180.024 160.332 179.6 160.527 179.224 160.695C178.848 160.864 178.528 161.015 178.268 161.149L177.664 161.443C177.595 161.48 177.523 161.511 177.448 161.533C177.508 161.48 177.576 161.436 177.648 161.404L178.232 161.071C178.488 160.924 178.8 160.756 179.176 160.579C179.552 160.402 179.976 160.181 180.452 159.987C180.928 159.792 181.452 159.555 182.028 159.352C182.604 159.149 183.228 158.92 183.876 158.725C185.302 158.307 186.75 157.982 188.212 157.753C189.671 157.544 191.14 157.431 192.612 157.417C193.292 157.417 193.94 157.416 194.544 157.473C195.148 157.529 195.708 157.563 196.22 157.62C196.732 157.676 197.192 157.753 197.596 157.818C198 157.883 198.348 157.948 198.628 158.013L199.276 158.16C199.359 158.175 199.439 158.201 199.516 158.237Z" fill="white"/>
<path d="M160.776 177.984C160.776 178.045 143.244 178.096 121.628 178.096C100.012 178.096 82.472 178.045 82.472 177.984C82.472 177.924 100 177.872 121.628 177.872C143.256 177.872 160.776 177.911 160.776 177.984Z" fill="white"/>
</svg>
